/* XPM */
static char * add_xpm[] = {
"22 22 92 2",
"  	c None",
". 	c #3B7504",
"+ 	c #3A7304",
"@ 	c #588929",
"# 	c #BED9A4",
"$ 	c #669539",
"% 	c #3C7603",
"& 	c #C1DCA9",
"* 	c #B7D59B",
"= 	c #74A14A",
"- 	c #3B7404",
"; 	c #3C7705",
"> 	c #BFDAA5",
", 	c #87BB57",
"' 	c #B0D290",
") 	c #83AD5B",
"! 	c #3B7403",
"~ 	c #BCD9A1",
"{ 	c #7BB445",
"] 	c #7CB447",
"^ 	c #A6CC82",
"/ 	c #8DB767",
"( 	c #3D7609",
"_ 	c #BCD9A0",
": 	c #76B13E",
"< 	c #73AF3A",
"[ 	c #70AE36",
"} 	c #98C56F",
"| 	c #97BF71",
"1 	c #457C10",
"2 	c #B9D79C",
"3 	c #70AD36",
"4 	c #6DAC32",
"5 	c #6AAA2D",
"6 	c #66A828",
"7 	c #89BC58",
"8 	c #9DC578",
"9 	c #4B8118",
"0 	c #B5D597",
"a 	c #6BAD2E",
"b 	c #6AAD2B",
"c 	c #68AB27",
"d 	c #64A922",
"e 	c #5FA51C",
"f 	c #78B241",
"g 	c #9FC678",
"h 	c #568A22",
"i 	c #3B7503",
"j 	c #A8CD85",
"k 	c #58AA0C",
"l 	c #5EAE12",
"m 	c #60AF15",
"n 	c #61AD16",
"o 	c #5DAA13",
"p 	c #77B63A",
"q 	c #9DC775",
"r 	c #558B22",
"s 	c #3B7604",
"t 	c #A3CB7E",
"u 	c #5EB30D",
"v 	c #60B60E",
"w 	c #5FB40D",
"x 	c #84C447",
"y 	c #9CCA70",
"z 	c #4A8316",
"A 	c #3B7703",
"B 	c #65BD10",
"C 	c #67C111",
"D 	c #69C213",
"E 	c #95D359",
"F 	c #98C967",
"G 	c #447D0F",
"H 	c #69C311",
"I 	c #73CC1A",
"J 	c #A3DF69",
"K 	c #8EC35A",
"L 	c #3E7709",
"M 	c #3D7705",
"N 	c #AEDB83",
"O 	c #71C61F",
"P 	c #A7DE72",
"Q 	c #7FB44A",
"R 	c #ACD882",
"S 	c #A6D676",
"T 	c #6B9F3A",
"U 	c #387004",
"V 	c #A4CF7A",
"W 	c #5A8D29",
"X 	c #336602",
"Y 	c #4E831E",
"Z 	c #2F5D03",
"` 	c #376E03",
"                                            ",
"                                            ",
"              .                             ",
"              + @                           ",
"              + # $ %                       ",
"              + & * = -                     ",
"              ; > , ' ) !                   ",
"              + ~ { ] ^ / (                 ",
"              + _ : < [ } | 1               ",
"              + 2 3 4 5 6 7 8 9             ",
"              + 0 a b c d e f g h i         ",
"              + j k l m n o p q r s         ",
"              + t u v v w x y z A           ",
"              + t B C D E F G               ",
"              + t H I J K L                 ",
"              M N O P Q -                   ",
"              + R S T U                     ",
"              + V W X                       ",
"              + Y Z                         ",
"              `                             ",
"                                            ",
"                                            "};
