/* XPM */
static char * boxes_xpm[] = {
/* width height ncolors cpp [x_hot y_hot] */
"24 24 4 1 0 0",
/* colors */
" 	s none	m none	c none",
".	s iconColor1	m black	c black",
"X	s iconColor2	m white	c white",
"o	c darkgreen",
/* pixels */
"                        ",
"                        ",
"                        ",
"                        ",
"                        ",
"  ....................  ",
" .XXXXXXXXXXXXXXXXXXXX. ",
" .XXXXXXXXXXXXXXXXXXXX. ",
" .XXooooXXXooXXoXXXoXX. ",
" .XXoXXXoXoXXoXoXXXoXX. ",
" .XXoXXXoXoXXoXXoXoXXX. ",
" .XXooooXXoXXoXXXoXXXX. ",
" .XXoXXXoXoXXoXXXoXXXX. ",
" .XXoXXXoXoXXoXXoXoXXX. ",
" .XXoXXXoXoXXoXoXXXoXX. ",
" .XXooooXXXooXXoXXXoXX. ",
" .XXXXXXXXXXXXXXXXXXXX. ",
" .XXXXXXXXXXXXXXXXXXXX. ",
"  ....................  ",
"                        ",
"                        ",
"                        ",
"                        ",
"                        "};
