/* XPM */
static char * classes_xpm[] = {
"22 22 81 1",
" 	c None",
".	c #204A87",
"+	c #3465A4",
"@	c #F7F7F7",
"#	c #F6F6F6",
"$	c #F5F5F5",
"%	c #F4F4F4",
"&	c #F3F3F3",
"*	c #F3F2F2",
"=	c #F2F1F2",
"-	c #F0F0F0",
";	c #EFEFEF",
">	c #EFEEEF",
",	c #EEEDEE",
"'	c #EDECEC",
")	c #EBECEB",
"!	c #F57900",
"~	c #F4F5F4",
"{	c #F3F4F3",
"]	c #F3F2F3",
"^	c #F2F2F1",
"/	c #EEEDED",
"(	c #ECECEC",
"_	c #EBEBEB",
":	c #EAEAEA",
"<	c #F3F3F4",
"[	c #F2F2F2",
"}	c #F1F2F2",
"|	c #F1F1F1",
"1	c #E9E9EA",
"2	c #F6F7F6",
"3	c #EAEBEB",
"4	c #E9E9E9",
"5	c #E8E8E8",
"6	c #EFF0F0",
"7	c #EFEFEE",
"8	c #EEEEEE",
"9	c #E9EAE9",
"0	c #E7E7E7",
"a	c #E7E6E6",
"b	c #F7F7F6",
"c	c #F5F5F6",
"d	c #F4F3F4",
"e	c #F2F3F3",
"f	c #F1F0F0",
"g	c #F0F0EF",
"h	c #EEEEED",
"i	c #EDEDED",
"j	c #EBEAEA",
"k	c #E6E6E7",
"l	c #E6E6E6",
"m	c #F6F5F5",
"n	c #F5F5F4",
"o	c #8E8E8E",
"p	c #F2F3F2",
"q	c #EEEFEF",
"r	c #ECECEB",
"s	c #EBEAEB",
"t	c #F2F2F3",
"u	c #ECEBEB",
"v	c #EBEBEA",
"w	c #E9EAEA",
"x	c #E8E9E9",
"y	c #E8E8E7",
"z	c #E6E7E6",
"A	c #F1F2F1",
"B	c #F0F1F0",
"C	c #EFEFF0",
"D	c #F0EFEF",
"E	c #E7E7E6",
"F	c #E8E7E8",
"G	c #EDEEED",
"H	c #EDEDEC",
"I	c #EBECEC",
"J	c #EAEAE9",
"K	c #F5F5F7",
"L	c #F0F0F1",
"M	c #EAE9EA",
"N	c #E9E8E9",
"O	c #E8E8E9",
"P	c #E8E7E7",
"......................",
".++++++++++++++++++++.",
".++++++++++++++++++++.",
"......................",
".@@@@@@@@#$%&*=-;>,').",
".@@@@!!!!~{]^!!!!/(_:.",
".@@@@!!!!<[}|!!!!(_:1.",
".@@@2!!!![|-;!!!!3:45.",
".@@#$!!!!|678!!!!950a.",
".bc$de[|fg8hi(j:450kl.",
".mn{eoooo8i()ooooklll.",
".%&p}f;q/irs:450allll.",
".t}|-;8i(uvwxyzllllll.",
".ABC;!!!!:955!!!!llll.",
".-D8h!!!!45El!!!!llll.",
".;8i(!!!!Fall!!!!llll.",
".GHI_!!!!alll!!!!llll.",
".(_vJ4K|4lllllcL4llll.",
".v:45oooolllloooollll.",
".MN5lllllllllllllllll.",
".OPzlllllllllllllllll.",
"......................"};
