/* XPM */
static char * clsbr_v+_xpm[] = {
/* width height num_colors chars_per_pixel */
"16 16 5 1",
/* colors */
" 	c None",
".	c black",
"X	c magenta",
"o	c cyan",
"O	c white",
/* pixels */
"       ..       ",
"      .XX.      ",
"     .XXXX.     ",
"    .XXXXXX.    ",
"   .XXX..XXX.   ",
"  .XXX.oo.XXX.  ",
" .XXX.oooo.XXX. ",
".XXX.oooooo.XXX.",
" .OOO.oooo.OOO. ",
"  .OOO.oo.OOO.  ",
"   .OOO..OOO.   ",
"    .OOOOOO.    ",
"     .OOOO.     ",
"      .OO.      ",
"       ..       ",
"                "};
