/* XPM */
static char * clsbr_s+_xpm[] = {
/* width height num_colors chars_per_pixel */
"16 16 6 1",
/* colors */
" 	c None",
".	c darkred",
"X	c black",
"o	c yellow",
"O	c magenta",
"+	c white",
/* pixels */
" ...   X        ",
"..o.  XOX       ",
".oo. XOOOX      ",
".....OOOOOX     ",
"   ...OOOOOX    ",
"  XO...OOOOOX   ",
" XOOO...OOOOOX  ",
"XOOOOO...OOOOOX ",
" X+++++..++++X  ",
"  X+++++++++X   ",
"   X+++++++X    ",
"    X+++++X     ",
"     X+++X      ",
"      X+X       ",
"       X        ",
"                "};
