/* XPM */
static char * clsbr_pv_xpm[] = {
/* width height num_colors chars_per_pixel */
"16 16 5 1",
/* colors */
" 	c None",
".	c black",
"X	c white",
"o	c yellow",
"O	c cyan",
/* pixels */
"       ..       ",
"      .XX.      ",
"     .XXXX.     ",
"    .XXXXXX.    ",
"  .......XXX.   ",
" .ooooo.O.XXX.  ",
" .oo.oo.OO.XXX. ",
"..ooooo.OOO.XXX.",
".X..oo.OOOO.XXX.",
" .X.o.OOOO.XXX. ",
"  ..oo.OO.XXX.  ",
"   .o.X..XXX.   ",
"   .oo.XXXX.    ",
"   .o..XXX.     ",
"    . .XX.      ",
"       ..       "};
