/* XPM */
static char * clsbr_p+_xpm[] = {
/* width height num_colors chars_per_pixel */
"16 16 5 1",
/* colors */
" 	c None",
".	c black",
"X	c magenta",
"o	c yellow",
"O	c white",
/* pixels */
"       ..       ",
"      .XX.      ",
"     .XXXX.     ",
"    .XXXXXX.    ",
"  .....XXXXX.   ",
" .ooooo.XXXXX.  ",
" .oo.oo.XXXXXX. ",
"..ooooo.XXXXXXX.",
" ...oo.OOOOOOO. ",
"  ..o.OOOOOOO.  ",
"   .oo.OOOOO.   ",
"   .o.OOOOO.    ",
"   .oo.OOO.     ",
"   .o..OO.      ",
"    .  ..       ",
"                "};
