/* XPM */
static char * clsbr_p+__xpm[] = {
/* width height num_colors chars_per_pixel */
"16 16 4 1",
/* colors */
" 	c None",
".	c black",
"X	c magenta",
"o	c yellow",
/* pixels */
"       ..       ",
"      .XX.      ",
"     .XXXX.     ",
"    .XXXXXX.    ",
"  .....XXXXX.   ",
" .ooooo.XXXXX.  ",
" .oo.oo.XXXXXX. ",
"..ooooo.XXXXXXX.",
" ...oo.XXXXXXX. ",
"  ..o.XXXXXXX.  ",
"   .oo.XXXXX.   ",
"   .o.XXXXX.    ",
"   .oo.XXX.     ",
"   .o..XX.      ",
"    .  ..       ",
"                "};
