/* XPM */
static char * clsbr_v_xpm[] = {
/* width height num_colors chars_per_pixel */
"16 16 4 1",
/* colors */
" 	c None",
".	c black",
"X	c white",
"o	c cyan",
/* pixels */
"       ..       ",
"      .XX.      ",
"     .XXXX.     ",
"    .XXXXXX.    ",
"   .XXX..XXX.   ",
"  .XXX.oo.XXX.  ",
" .XXX.oooo.XXX. ",
".XXX.oooooo.XXX.",
" .XXX.oooo.XXX. ",
"  .XXX.oo.XXX.  ",
"   .XXX..XXX.   ",
"    .XXXXXX.    ",
"     .XXXX.     ",
"      .XX.      ",
"       ..       ",
"                "};
