/* XPM */
static char * clsbr_p__xpm[] = {
/* width height num_colors chars_per_pixel */
"16 16 5 1",
/* colors */
" 	c None",
".	c black",
"X	c white",
"o	c yellow",
"O	c magenta",
/* pixels */
"       ..       ",
"      .XX.      ",
"     .XXXX.     ",
"    .XXXXXX.    ",
"  ..... XXXX.   ",
" .ooooo.XXXXX.  ",
" .oo.oo.XXXXXX. ",
"..ooooo.OOOOOOO.",
" ...oo.OOOOOOO. ",
"  ..o.OOOOOOO.  ",
"   .oo.OOOOO.   ",
"   .o.OOOOO.    ",
"   .oo.OOO.     ",
"   .o..OO.      ",
"    .  ..       ",
"                "};
