/* XPM */
static char * clsbr_v__xpm[] = {
/* width height num_colors chars_per_pixel */
"16 16 5 1",
/* colors */
" 	c None",
".	c black",
"X	c white",
"o	c cyan",
"O	c magenta",
/* pixels */
"       ..       ",
"      .XX.      ",
"     .XXXX.     ",
"    .XXXXXX.    ",
"   .XXX..XXX.   ",
"  .XXX.oo.XXX.  ",
" .XXX.oooo.XXX. ",
".OOO.oooooo.OOO.",
" .OOO.oooo.OOO. ",
"  .OOO.oo.OOO.  ",
"   .OOO..OOO.   ",
"    .OOOOOO.    ",
"     .OOOO.     ",
"      .OO.      ",
"       ..       ",
"                "};
