/* XPM */
static char * compile_xpm[] = {
/* width height ncolors cpp [x_hot y_hot] */
"24 24 4 1 0 0",
/* colors */
" 	s none	m none	c none",
".	s iconColor5	m black	c blue",
"X	s iconColor1	m black	c black",
"o	s iconColor2	m white	c white",
/* pixels */
"                        ",
"                        ",
"         ...            ",
"         ...            ",
"         ...XXX         ",
"         ...oooX        ",
"        X...ooooX       ",
"       Xo...oooooX      ",
"     XX.......ooooX     ",
"    Xooo.....oooXX      ",
"     Xooo...ooXXoX      ",
"     XXooo.oXXooooX     ",
"    XooXooXXooooXX      ",
"     XooXXooooXXooX     ",
"    XoXoooooXXooXX      ",
"     XoXooXXooXX        ",
"      XoXXooXX          ",
"       XooXX            ",
"        XX              ",
"                        ",
"                        ",
"                        ",
"                        ",
"                        "};
