/* XPM */
static char * compile_xpm[] = {
"22 22 157 2",
"  	c None",
". 	c #1F4884",
"+ 	c #204A87",
"@ 	c #1F4883",
"# 	c #E1E1E3",
"$ 	c #B8B8B8",
"% 	c #D9D9D9",
"& 	c #BDBDBD",
"* 	c #DDDDDD",
"= 	c #FFFFFF",
"- 	c #FDFDFE",
"; 	c #657E9C",
"> 	c #5D7697",
", 	c #798EA9",
"' 	c #5880B4",
") 	c #3565A3",
"! 	c #3C68A1",
"~ 	c #3866A2",
"{ 	c #3667A5",
"] 	c #658ABA",
"^ 	c #5B84B6",
"/ 	c #406EA8",
"( 	c #3465A4",
"_ 	c #3A6BA8",
": 	c #3869A6",
"< 	c #698EBC",
"[ 	c #5F87B9",
"} 	c #7898C1",
"| 	c #3B6CA8",
"1 	c #3E6FAB",
"2 	c #6B90BE",
"3 	c #628ABC",
"4 	c #FBFBFB",
"5 	c #4070AB",
"6 	c #4373AE",
"7 	c #6F93C0",
"8 	c #668EBE",
"9 	c #F4F4F4",
"0 	c #4777B1",
"a 	c #7297C3",
"b 	c #6A91C0",
"c 	c #EEEEEE",
"d 	c #446C9D",
"e 	c #748593",
"f 	c #555753",
"g 	c #5E605C",
"h 	c #6D94C3",
"i 	c #E8E8E8",
"j 	c #D4D5D4",
"k 	c #637A92",
"l 	c #B2B3B0",
"m 	c #F1F1F1",
"n 	c #F6F6F6",
"o 	c #F9F9F9",
"p 	c #EDEDED",
"q 	c #E9E9E9",
"r 	c #DADADA",
"s 	c #CDCDCD",
"t 	c #797A77",
"u 	c #60625D",
"v 	c #7198C6",
"w 	c #D7D9DD",
"x 	c #D8DADD",
"y 	c #BEBFBC",
"z 	c #FCFCFC",
"A 	c #EFEFEF",
"B 	c #D4D4D4",
"C 	c #A1A1A0",
"D 	c #898A89",
"E 	c #81817F",
"F 	c #6E6F6D",
"G 	c #C1C1C1",
"H 	c #737571",
"I 	c #61635F",
"J 	c #759BC7",
"K 	c #5381B7",
"L 	c #F3F3F4",
"M 	c #E8E9EB",
"N 	c #EDEEEF",
"O 	c #F3F3F3",
"P 	c #F7F7F7",
"Q 	c #F0F0F0",
"R 	c #6E6F6C",
"S 	c #B5B5B4",
"T 	c #636560",
"U 	c #789ECA",
"V 	c #5D8BC0",
"W 	c #F5F5F5",
"X 	c #EBEBEB",
"Y 	c #CCCDCB",
"Z 	c #656763",
"` 	c #81827F",
" .	c #848483",
"..	c #7CA2CD",
"+.	c #618FC3",
"@.	c #6E8FB4",
"#.	c #E4E4E4",
"$.	c #E2E2E2",
"%.	c #F2F2F2",
"&.	c #B5B6B3",
"*.	c #7D7D7B",
"=.	c #949594",
"-.	c #989898",
";.	c #7EA5D0",
">.	c #6593C6",
",.	c #6C91B8",
"'.	c #EFF0F1",
").	c #6E706C",
"!.	c #6A7378",
"~.	c #585A56",
"{.	c #A6A6A6",
"].	c #A0A0A0",
"^.	c #82A8D1",
"/.	c #6997C9",
"(.	c #6F94BB",
"_.	c #717F88",
":.	c #7896B4",
"<.	c #595B57",
"[.	c #AFAFAF",
"}.	c #A8A8A8",
"|.	c #87ACD4",
"1.	c #6E9BCC",
"2.	c #5C5E5A",
"3.	c #B6B6B6",
"4.	c #92B4D8",
"5.	c #8C9AA6",
"6.	c #616767",
"7.	c #7C7D79",
"8.	c #BCBCBC",
"9.	c #B7B7B7",
"0.	c #1F4986",
"a.	c #EAEAEA",
"b.	c #E5E5E5",
"c.	c #5A5C58",
"d.	c #CACACA",
"e.	c #CFCFCF",
"f.	c #D0D0D0",
"g.	c #AEAFAE",
"h.	c #90928E",
"i.	c #BABABA",
"j.	c #B9B9B9",
"k.	c #A5A6A4",
"l.	c #A7A7A6",
"m.	c #D8D8D8",
"n.	c #DBDBDB",
"o.	c #D1D1D1",
"p.	c #51524F",
"q.	c #ADAEAC",
"r.	c #A0A19F",
"s.	c #9E9E9D",
"t.	c #ADADAC",
"u.	c #9F9F9E",
"v.	c #A4A4A3",
"w.	c #50514E",
"x.	c #525450",
"y.	c #575955",
"z.	c #50524E",
". + + + + + + + + + + + + + + + + + @       ",
"+ # $ $ % & $ * = = = = = = = = = - +       ",
"+ ; > > > > > > > > > > > > > > > , +       ",
"+ ' ) ! ! ! ! ! ! ~ { { { { { { { ] +       ",
"+ ^ / ( ( ( ( ( ( _ : _ _ _ _ _ _ < +       ",
"+ [ ( } ( ( ( ( ( ( | 1 1 1 1 1 1 2 +       ",
"+ 3 ( 4 4 4 4 4 4 ( 5 6 6 6 6 6 6 7 +       ",
"+ 8 ( 9 9 9 9 9 9 ( 0 0 0 0 0 0 0 a +       ",
"+ b ( c c c c c c d e f f f f f f f f g     ",
"+ h ( i i i i i j k l m n o o p q r s t u   ",
"+ v ( w x x f f f y 4 z z A B C D E F G H I ",
"+ J K ( ( ( f L M N 9 O O P Q i A f g R S T ",
"+ U V V V V V f W X X X X X A Y f Z `  .S f ",
"+ ..+.+.+.+.+.@.f Q #.$.$.%.&.f *.=.-.-.s f ",
"+ ;.>.>.>.>.>.>.,.f '.n P ).!.~.{.].].].s f ",
"+ ^./././././././.(.f f f _.:.<.[.}.}.}.s f ",
"+ |.1.1.1.1.1.1.1.1.1.1.1.1.1.2.3.[.[.[.s f ",
"+ 4.4.4.4.4.4.4.5.f f f f f 6.7.8.9.9.9.s f ",
"0.+ + + + + + + g a.i b.b.b.c.d.e.e.e.f.g.f ",
"                2.h.j 8.i.j.k.c.l.m.n.o.Z I ",
"                  p.g q.r.s.s.t.u.v.s.I w.  ",
"                    x.y.f f f f f f 2.z.    "};
