/* XPM */
static char * copy_xpm[] = {
/* width height ncolors cpp [x_hot y_hot] */
"24 24 4 1 0 0",
/* colors */
" 	s none	m none	c none",
".	s iconColor1	m black	c black",
"X	s iconColor2	m white	c white",
"o	s iconColor5	m black	c blue",
/* pixels */
"                        ",
"                        ",
"                        ",
"                        ",
"    ..........          ",
"    .XXXXXXXX.          ",
"    .XXXXXXXX.          ",
"    .XX...oooooooooo    ",
"    .XXXXXoXXXXXXXXo    ",
"    .XX...oXXXXXXXXo    ",
"    .XXXXXoXX....XXo    ",
"    .XX...oXXXXXXXXo    ",
"    .XXXXXoXX....XXo    ",
"    .XXXXXoXXXXXXXXo    ",
"    .XXXXXoXX....XXo    ",
"    ......oXXXXXXXXo    ",
"          oXXXXXXXXo    ",
"          oXXXXXXXXo    ",
"          oooooooooo    ",
"                        ",
"                        ",
"                        ",
"                        ",
"                        "};
