/* XPM */
static char * copy_xpm[] = {
"22 22 57 1",
" 	c None",
".	c #8C8E89",
"+	c #EBEBEA",
"@	c #DDDDDD",
"#	c #90918D",
"$	c #979995",
"%	c #8C8E8A",
"&	c #8D8F8A",
"*	c #898B86",
"=	c #FFFFFF",
"-	c #FEFEFE",
";	c #F0F0EF",
">	c #8A8C87",
",	c #EFEFEE",
"'	c #C7C7C6",
")	c #C6C6C5",
"!	c #EEEEEE",
"~	c #EEEEED",
"{	c #EDEDEC",
"]	c #EDEDED",
"^	c #C5C5C5",
"/	c #C5C5C4",
"(	c #C8C8C7",
"_	c #F4F4F4",
":	c #ECECEB",
"<	c #EBEBEB",
"[	c #EFEFEF",
"}	c #F2F2F2",
"|	c #FCFCFC",
"1	c #C4C4C4",
"2	c #C4C4C3",
"3	c #C3C3C3",
"4	c #CDCDCD",
"5	c #DCDCDC",
"6	c #F9F9F9",
"7	c #8B8D88",
"8	c #EAEAEA",
"9	c #EAEAE9",
"0	c #ECECEC",
"a	c #F7F7F7",
"b	c #F0F0F0",
"c	c #F1F1F1",
"d	c #BDBEBB",
"e	c #888A85",
"f	c #FDFDFD",
"g	c #FAFAFA",
"h	c #868A84",
"i	c #CFCFCF",
"j	c #BABBB9",
"k	c #E9E9E9",
"l	c #F3F3F3",
"m	c #898D87",
"n	c #B4B5B4",
"o	c #90948F",
"p	c #F6F6F6",
"q	c #868A85",
"r	c #878A84",
" .............        ",
" +++++++++++++        ",
" +@@@@@@@@@@@+        ",
" +@@@@@@@@@@@+#       ",
" +@@@@@$....%&.......&",
" +@@@@@*=-----------=.",
" +@@@@@*=;;;;;;;;;;;-.",
" +@@@@@>=;;;;;;;;;;,-.",
" +@@@@@*=;'''''''')!-.",
" +@@@@@>=;,,,,,,~~{]-.",
" +@@@@@*=;''''')^^/!-.",
" +@@@@@>=;;;;,,~]{~]-.",
" +@@@@@*=;(''))^^~]_-.",
" +@@@@@>=;,!~{{:<[}[|.",
" +@@@@@>=,^^/123455}67",
" +@@@@@>=~:<+890[][}a7",
" ++++++>={0:+8,b[c}cd*",
" eeeeee*f:<+80b!eeeeee",
"       *g+890[[chiije ",
"       *a8k~ccl_mineo ",
"       *}}cbc_apqje   ",
"       &**eeeeerhe    "};
