/* XPM */
static char * copy_xpm[] = {
"22 22 56 1",
" 	c None",
".	c #8C8E89",
"+	c #EBEBEA",
"@	c #DDDDDD",
"#	c #979995",
"$	c #8C8E8A",
"%	c #8D8F8A",
"&	c #898B86",
"*	c #FFFFFF",
"=	c #FEFEFE",
"-	c #F0F0EF",
";	c #8A8C87",
">	c #EFEFEE",
",	c #C7C7C6",
"'	c #C6C6C5",
")	c #EEEEEE",
"!	c #EEEEED",
"~	c #EDEDEC",
"{	c #EDEDED",
"]	c #C5C5C5",
"^	c #C5C5C4",
"/	c #C8C8C7",
"(	c #F4F4F4",
"_	c #ECECEB",
":	c #EBEBEB",
"<	c #EFEFEF",
"[	c #F2F2F2",
"}	c #FCFCFC",
"|	c #C4C4C4",
"1	c #C4C4C3",
"2	c #C3C3C3",
"3	c #CDCDCD",
"4	c #DCDCDC",
"5	c #F9F9F9",
"6	c #8B8D88",
"7	c #EAEAEA",
"8	c #EAEAE9",
"9	c #ECECEC",
"0	c #F7F7F7",
"a	c #F0F0F0",
"b	c #F1F1F1",
"c	c #BDBEBB",
"d	c #888A85",
"e	c #FDFDFD",
"f	c #FAFAFA",
"g	c #868A84",
"h	c #CFCFCF",
"i	c #BABBB9",
"j	c #E9E9E9",
"k	c #F3F3F3",
"l	c #898D87",
"m	c #B4B5B4",
"n	c #90948F",
"o	c #F6F6F6",
"p	c #868A85",
"q	c #878A84",
"...............       ",
".+++++++++++++.       ",
".+@@@@@@@@@@@+.       ",
".+@@@@@@@@@@@+        ",
".+@@@@@#....$%.......%",
".+@@@@@&*===========*.",
".+@@@@@&*-----------=.",
".+@@@@@;*---------->=.",
".+@@@@@&*-,,,,,,,,')=.",
".+@@@@@;*->>>>>>!!~{=.",
".+@@@@@&*-,,,,,']]^)=.",
".+@@@@@;*---->>!{~!{=.",
".+@@@@@&*-/,,'']]!{(=.",
".+@@@@@;*->)!~~_:<[<}.",
".+@@@@@;*>]]^|12344[56",
".+@@@@@;*!_:+789<{<[06",
".++++++;*~9_+7>a<b[bc&",
".ddddd &e_:+79a)dddddd",
"       &f+789<<bghhid ",
"       &07j!bbk(lhmdn ",
"       &[[bab(0opid   ",
"       %&&dddddqgd    "};
