/* XPM */
static char * crossref2_xpm[] = {
"22 22 154 2",
"  	c None",
". 	c #102747",
"+ 	c #FFFFFF",
"@ 	c #6993CD",
"# 	c #6D96CD",
"$ 	c #7198CF",
"% 	c #749ACF",
"& 	c #779ECF",
"* 	c #7BA0D0",
"= 	c #7EA2D1",
"- 	c #80A4D1",
"; 	c #81A5D2",
"> 	c #82A5D2",
", 	c #7FA3D1",
"' 	c #7CA1D0",
") 	c #799FD0",
"! 	c #769CCF",
"~ 	c #7299CF",
"{ 	c #6F97CE",
"] 	c #6B94CD",
"^ 	c #6792CD",
"/ 	c #6992CD",
"( 	c #6B95CD",
"_ 	c #6F98CE",
": 	c #7299CE",
"< 	c #759CD0",
"[ 	c #799FCF",
"} 	c #7DA2D1",
"| 	c #7EA3D1",
"1 	c #7DA1D0",
"2 	c #7A9FD0",
"3 	c #779ED0",
"4 	c #749BCF",
"5 	c #7199CF",
"6 	c #6D96CE",
"7 	c #6A94CD",
"8 	c #6690CC",
"9 	c #6791CC",
"0 	c #7199CE",
"a 	c #739BCF",
"b 	c #769DCF",
"c 	c #789ED0",
"d 	c #7AA0D0",
"e 	c #6892CD",
"f 	c #6590CC",
"g 	c #6C94CD",
"h 	c #6E97CD",
"i 	c #7099CE",
"j 	c #759CCF",
"k 	c #779DD0",
"l 	c #779CD0",
"m 	c #6D95CD",
"n 	c #6A94CC",
"o 	c #6791CD",
"p 	c #638FCC",
"q 	c #638ECB",
"r 	c #6691CC",
"s 	c #6C95CD",
"t 	c #6E96CE",
"u 	c #7098CE",
"v 	c #739ACE",
"w 	c #739ACF",
"x 	c #658FCC",
"y 	c #628DCC",
"z 	c #618CCB",
"A 	c #648FCC",
"B 	c #6D95CE",
"C 	c #6E97CE",
"D 	c #6994CD",
"E 	c #608CCB",
"F 	c #5E8BCB",
"G 	c #B55900",
"H 	c #6C94CE",
"I 	c #6A93CD",
"J 	c #6490CC",
"K 	c #5D8ACA",
"L 	c #5C89CA",
"M 	c #F57900",
"N 	c #6891CC",
"O 	c #5B88CA",
"P 	c #5987C9",
"Q 	c #5A88CA",
"R 	c #5886C9",
"S 	c #5685C9",
"T 	c #5F8BCB",
"U 	c #608DCB",
"V 	c #5785CA",
"W 	c #5584C8",
"X 	c #5382C8",
"Y 	c #5D89CB",
"Z 	c #5D8ACB",
"` 	c #5B89CB",
" .	c #5A87CA",
"..	c #5886CA",
"+.	c #5684C9",
"@.	c #5583C8",
"#.	c #5282C8",
"$.	c #5081C7",
"%.	c #5281C9",
"&.	c #5483C9",
"*.	c #5584C9",
"=.	c #5986C9",
"-.	c #5986CA",
";.	c #5887CA",
">.	c #5785C9",
",.	c #5382C9",
"'.	c #5181C8",
").	c #5080C7",
"!.	c #4E7DC8",
"~.	c #4F7FC8",
"{.	c #5180C7",
"].	c #5281C8",
"^.	c #5583C9",
"/.	c #5484C8",
"(.	c #5482C8",
"_.	c #5080C8",
":.	c #4E7EC7",
"<.	c #4C7DC7",
"[.	c #4A7BC7",
"}.	c #4D7EC7",
"|.	c #4E7FC7",
"1.	c #507FC7",
"2.	c #5180C8",
"3.	c #4B7CC7",
"4.	c #497BC7",
"5.	c #4679C6",
"6.	c #487AC6",
"7.	c #497CC7",
"8.	c #4D7DC8",
"9.	c #4779C6",
"0.	c #4377C5",
"a.	c #4577C5",
"b.	c #497BC6",
"c.	c #497CC6",
"d.	c #4B7BC7",
"e.	c #4A7CC6",
"f.	c #4477C6",
"g.	c #4376C5",
"h.	c #4074C5",
"i.	c #4275C5",
"j.	c #4477C5",
"k.	c #4577C6",
"l.	c #4578C6",
"m.	c #4678C6",
"n.	c #4175C5",
"o.	c #3F74C4",
"p.	c #3C71C4",
"q.	c #3E73C4",
"r.	c #3F73C5",
"s.	c #4276C5",
"t.	c #4376C6",
"u.	c #4075C5",
"v.	c #4074C4",
"w.	c #3D72C4",
". . . . . . . . . . . . . . . . . . . . . . ",
". + + + + + + + + + + + + + + + + + + + + . ",
". + @ # $ % & * = - ; > , ' ) ! ~ { ] ^ + . ",
". + / ( _ : < [ * } | = 1 2 3 4 5 6 7 8 + . ",
". + 9 7 6 0 a b c 2 d d ) ! ! { { ( e f + . ",
". + f e g h i a j k k l ! ! # { m n o p + . ",
". + q r @ s t u ~ v v w ! ! # { 7 e x y + . ",
". + z A r / ] B C { _ { { # s D e f q E + . ",
". + F G G G G G ] s H { ] I e o J q E K + . ",
". + L G M M M G o e e e N o f + + + K O + . ",
". + P G M M M + + + + + + + + + + + Q R + . ",
". + S G M M M G T E + U E T T + + + V W + . ",
". + X G G G G G L Y + K Z ` O  ...+.@.#.+ . ",
". + $.%.&.*.S R P =.+ -.-.;.>.+.&.,.'.).+ . ",
". + !.~.{.].,.@.^.*.+ -.*./.(.,.'._.:.<.+ . ",
". + [.<.}.|.1.'.'.'.+ ].2.2._.+ + + 3.4.+ . ",
". + 5.6.7.3.<.8.}.:.+ + + + + + + + 9.5.+ . ",
". + 0.a.5.6.6.b.c.d.3.[.[.e.b.+ + + f.g.+ . ",
". + h.i.g.j.k.l.5.9.5.9.5.m.l.f.0.i.n.o.+ . ",
". + p.q.r.h.i.s.s.g.t.g.g.s.i.u.v.r.w.p.+ . ",
". + + + + + + + + + + + + + + + + + + + + . ",
". . . . . . . . . . . . . . . . . . . . . . "};
