/* XPM */
static char * cross_param_xpm[] = {
/* width height num_colors chars_per_pixel */
"24 24 4 1",
/* colors */
" 	c None",
".	c black",
"X	c red",
"o	c darkblue",
/* pixels */
"                        ",
"                        ",
"                        ",
"                        ",
"  .. ..          .. ..  ",
" ..   ..        ..   .. ",
" ..   ..        ..   .. ",
"..     ..      ..     ..",
"..     ..      ..     ..",
"..     .. XXXX ..     ..",
"..     .. XXXX ..     ..",
".. o o ..      .. o o ..",
".. o o .. XXXX .. o o ..",
"..     .. XXXX ..     ..",
"..     ..      ..     ..",
"..     ..      ..     ..",
" ..   ...      ...   .. ",
" ..   ..        ..   .. ",
"  .. ..          .. ..  ",
"                        ",
"                        ",
"                        ",
"                        ",
"                        "};
