/* XPM */
static char * cross_dispparam_xpm[] = {
/* width height num_colors chars_per_pixel */
"24 24 4 1",
/* colors */
" 	c None",
".	c darkblue",
"X	c black",
"o	c red",
/* pixels */
"                        ",
"                        ",
"                        ",
"      ..                ",
"     ..                 ",
"    ..                  ",
"    ..    XX        XX  ",
"    ..   XX          XX ",
"    ..   XX          XX ",
"    ..   XX          XX ",
"    ..   XX          XX ",
"  ...... XX .. oo .. XX ",
"    ..   XX .. oo .. XX ",
"    ..   XX     o    XX ",
"    ..   XX     o    XX ",
"    ..   XX    o     XX ",
"    ..   XX          XX ",
"    ..    XX        XX  ",
"    ..                  ",
"   ..                   ",
"  ..                    ",
"                        ",
"                        ",
"                        "};
