/* XPM */
static char * dbgwatch_xpm[] = {
/* width height ncolors cpp [x_hot y_hot] */
"24 24 4 1 0 0",
/* colors */
" 	s none	m none	c none",
".	s iconColor5	m black	c blue",
"X	s iconColor2	m white	c white",
"o	s iconColor1	m black	c black",
/* pixels */
"                        ",
"                        ",
"                        ",
"                        ",
"                        ",
"                        ",
"                        ",
"    ....        ....    ",
"   .XXXX.      .XXXX.   ",
"  .XXXXXX.    .XXXXXX.  ",
" .XXXXXXXX.  .XXXXXXXX. ",
" .XXXXXXXX.oo.XXXXXXXX. ",
" .XXooXXXX.  .XXooXXXX. ",
" .XXooXXXX.  .XXooXXXX. ",
"  .XXXXXX.    .XXXXXX.  ",
"   .XXXX.      .XXXX.   ",
"    ....        ....    ",
"                        ",
"                        ",
"                        ",
"                        ",
"                        ",
"                        ",
"                        "};
