/* XPM */
static char * cut_xpm[] = {
/* width height ncolors cpp [x_hot y_hot] */
"24 24 3 1 0 0",
/* colors */
" 	s none	m none	c none",
".	s iconColor1	m black	c black",
"X	s iconColor5	m black	c blue",
/* pixels */
"                        ",
"                        ",
"                        ",
"                        ",
"                        ",
"       .       .        ",
"        .     .         ",
"        .     .         ",
"         .   .          ",
"         .. ..          ",
"          XXX           ",
"          X X           ",
"          XXX           ",
"         XX XX          ",
"         X   X          ",
"       XXX   XXX        ",
"      X  X   X  X       ",
"      X  X   X  X       ",
"       XX     XX        ",
"                        ",
"                        ",
"                        ",
"                        ",
"                        "};
