/* XPM */
static char * cut_xpm[] = {
"22 22 120 2",
"  	c None",
". 	c #8F918C",
"+ 	c #8D8F8A",
"@ 	c #888A85",
"# 	c #90928E",
"$ 	c #91938E",
"% 	c #C2C4C1",
"& 	c #9C9D99",
"* 	c #90928D",
"= 	c #D2D3D1",
"- 	c #929490",
"; 	c #939590",
"> 	c #D7D8D6",
", 	c #E2E2E2",
"' 	c #9F9F9C",
") 	c #9B9C98",
"! 	c #ABACA8",
"~ 	c #E3E3E3",
"{ 	c #D0D1D0",
"] 	c #A0A19D",
"^ 	c #EBEBEB",
"/ 	c #DCDDDC",
"( 	c #8C8E89",
"_ 	c #E3E3E2",
": 	c #E0E0E0",
"< 	c #D8D9D8",
"[ 	c #959792",
"} 	c #9D9E9A",
"| 	c #E8E8E8",
"1 	c #E1E1E1",
"2 	c #B2B3B1",
"3 	c #A4A6A2",
"4 	c #C5C6C3",
"5 	c #DFDFDF",
"6 	c #989A95",
"7 	c #E0E0DF",
"8 	c #92948F",
"9 	c #DEDEDE",
"0 	c #CBCCCB",
"a 	c #91938F",
"b 	c #C9C9C8",
"c 	c #AAABA8",
"d 	c #949691",
"e 	c #D4D5D3",
"f 	c #DDDDDD",
"g 	c #C2C3C0",
"h 	c #9C9E9A",
"i 	c #A4A5A2",
"j 	c #DCDCDC",
"k 	c #B1B2B0",
"l 	c #8A8C87",
"m 	c #EAEAE9",
"n 	c #D6D6D6",
"o 	c #A9ABA7",
"p 	c #C1C3C1",
"q 	c #DBDBDB",
"r 	c #DEDEDD",
"s 	c #ADAEAB",
"t 	c #B0B2AF",
"u 	c #BEBFBD",
"v 	c #979995",
"w 	c #DFE0DE",
"x 	c #DADADA",
"y 	c #D8D8D8",
"z 	c #B3B4B1",
"A 	c #BABCBA",
"B 	c #9B8F8B",
"C 	c #BFC0BE",
"D 	c #A99592",
"E 	c #B00606",
"F 	c #946F6B",
"G 	c #B6B3B1",
"H 	c #B30808",
"I 	c #B50909",
"J 	c #AE0505",
"K 	c #DA3130",
"L 	c #C73A39",
"M 	c #AA0303",
"N 	c #D41A1A",
"O 	c #DC1F1F",
"P 	c #E12121",
"Q 	c #AD0505",
"R 	c #DC1E1E",
"S 	c #C41111",
"T 	c #CE1717",
"U 	c #CB1515",
"V 	c #A40000",
"W 	c #AE5855",
"X 	c #AE1211",
"Y 	c #E72525",
"Z 	c #C91313",
"` 	c #D71C1C",
" .	c #B10707",
"..	c #AE0D0C",
"+.	c #EF2929",
"@.	c #BE0D0D",
"#.	c #E22222",
"$.	c #AD0C0B",
"%.	c #AF0808",
"&.	c #CC1515",
"*.	c #C71111",
"=.	c #E32323",
"-.	c #B20909",
";.	c #940404",
">.	c #950404",
",.	c #B30909",
"'.	c #B50C0C",
").	c #C51212",
"!.	c #D81A1A",
"~.	c #D01818",
"{.	c #B60A0A",
"].	c #A00808",
"^.	c #9F0808",
"/.	c #AD0C0C",
"(.	c #AE0707",
"_.	c #AC0606",
":.	c #8F0404",
"<.	c #A90606",
"[.	c #AD0707",
"}.	c #A60808",
"        . +                   @ #           ",
"        $ % &               * = - @         ",
"      ; > , ' )           ; ! ~ { ]         ",
"      . ^ , / )           ( _ : < [         ",
"      @ } | 1 2 3       [ 4 5 , 6           ",
"        @ 7 : : 6       8 1 9 0 a           ",
"        @ * ^ 5 b c   d e f , (             ",
"          @ g : f } h i j j k ;             ",
"            l m j n o p q r [               ",
"            @ s 5 q t u j v                 ",
"              l w x y z A )                 ",
"              @ B , y C D                   ",
"              E F G   G F E                 ",
"          H I J K L M L K J I H             ",
"        I N O P P M M M P P O N I           ",
"      Q R S E T U V W V U T E S R Q         ",
"    X Y Z J M `  .       .` M J Z Y X       ",
"    ..+.@.   .#.H       H #. .  @.+.$.      ",
"    %.P &.*.=.-.;.      >.,.=.*.&.P %.      ",
"    '.).!.~.{.].          ^.{.~.!.)./.      ",
"        (._.                :.<.[.}.        ",
"                                            "};
