/* XPM */
static char *cygnus[] = {
/* width height num_colors chars_per_pixel */
"    48    47       14            1",
/* colors */
". c #000000",
"# c #808080",
"a c #555f55",
"b c #7f1f00",
"c c #7f5f55",
"d c #d41f00",
"e c #d41f55",
"f c #d4dfff",
"g c #2a0000",
"h c #2a0055",
"i c #2a1f00",
"j c #2a1f55",
"k c #fffbf0",
"l c #ffffff",
/* pixels */
"lllllllllllllllllll.i...g...llllllllllllllllllll",
"llllllllllllllll.......i.h.i..illlllllllllllllll",
"lllllllllllllj..i....j.....i....j.llllllllllllll",
"lllllllllll...i..ij.jg....ii.......lllllllllllll",
"llllllllll.gi.hi..i......g...i..i....lllllllllll",
"lllllllf..ig..g.eeeedddddeddde....h.igilllllllll",
"lllllllg..jig..edeedddddeiij.de........#llllllll",
"lllllll.i.....dedeeddeeeeee...e.i.ii....llllllll",
"lllllj.g....hieeeeeddededddeeeed.iii..h..kllllll",
"llllig.gggjj.ded.eddeeddddeeeddee..hji.iggllllll",
"llll...ig...ided..i...dedededeeed...i.....jlllll",
"lllig........dde..eeddeedddeeeddee........glllll",
"lll....i.....deededdeedeeededeeded....j....illll",
"ll...........dddeeddddddddddeededd.i......g.llll",
"l...i.gdeded..dddededeeeddeeddddeei..i.gi..i.lll",
"lg...deeededi.i.eedddddedddedeedeedgi..i.i...lll",
"lji..ddedede.gjh..eddddededdedeedde.j....i.ii.ll",
"lj...dddeeddei.jii...h.ededdddeeeeeidd....i.hhll",
"l.i..ddeddeeedg.ij......eddedeeedd..dddd......ll",
"i.h..ddddddddddd.gjg.g..eeedddeeed.eddddh...g.ll",
".......eeeeddeeedddd..i.hdddddddeddeddeedd...hll",
"i.....hdededddddddddde..gdeeddddddeddddedd....ll",
"ii.i.....eeeddededdeddddeddededededdeeeeee...jll",
".ii..iij..gddedeededeeeddeddddddddeeeededeg..ill",
".............eedeeddedeeedddeddededdeddeee..i.ll",
".........ji..bdddddedddddedddeddedddeedee...gjll",
".i....i...lll...eedededeeddededeeedddeddi.ii..ll",
"...g......llll.h...ddeddededddddeedeede.......ll",
"liii..i...lllll.l..i.gddddeddedededddih.....i.ll",
"l..ig.ji..llllllll..i.gi.eedeeddeeg...i..g.i.gll",
"l....lllll.llllllll......h.....g...ig......h..ll",
"llllllllllg..llllllllh..lll.lllill.i.igi....glll",
"lllllllllllgllllllllllllllllllllll....i......lll",
"llkllllllllllllllllllllllllllllll...i..ii...llll",
"lllllllllllllllllllllllll.lllllll....i..i...llll",
"lllalllllllllllllllllllll...lllll.......g..lllll",
"llllllllllllllllllllllllllllllll...lllllllclllll",
"llll.llllllllllllllllllllllllll...glllllllllllll",
"lllllllllllllllllllllllllllllllg..lllllll#llllll",
"llllllllllllllllllllllllllllll..llllllllllllllll",
"lllllllllllllllllllllllllllllk.llllllllgllllllll",
"lllllllilllllllllllllllllllll..lllllllglllllllll",
"llllllllllllllllllllllllllllllllllllclllllllllll",
"llllllllllllllllllllllllllllllllllllllllllllllll",
"llllllllllllklllllllllllllllllllllllllllllllllll",
"llllllllllllllllllllllllllllllllllllllllllllllll",
"llllllllllllllllllkilllllll.llllllllllllllllllll"
};
