/* XPM */
static char * del_xpm[] = {
/* width height ncolors cpp [x_hot y_hot] */
"24 24 3 1 0 0",
/* colors */
" 	s none	m none	c none",
".	c lightgray",
"X	c black",
/* pixels */
"                        ",
"                .       ",
"               .X       ",
"              .XX       ",
"             .XXX       ",
"            .XXXX       ",
"           .XXXXX       ",
"          .XXXXXX       ",
"         .XXXXXXX       ",
"        .XXXXXXXX       ",
"       .XXXXXXXXX       ",
"      .XXXXXXXXXX       ",
"       XXXXXXXXXX       ",
"        XXXXXXXXX       ",
"         XXXXXXXX       ",
"          XXXXXXX       ",
"           XXXXXX       ",
"            XXXXX       ",
"             XXXX       ",
"              XXX       ",
"               XX       ",
"                X       ",
"                        ",
"                        "};
