/* XPM */
static char * del_xpm[] = {
"22 22 92 2",
"  	c None",
". 	c #3B7504",
"+ 	c #588929",
"@ 	c #3A7304",
"# 	c #3C7603",
"$ 	c #669539",
"% 	c #BED9A4",
"& 	c #3B7404",
"* 	c #74A14A",
"= 	c #B7D59B",
"- 	c #C1DCA9",
"; 	c #3B7403",
"> 	c #83AD5B",
", 	c #B0D290",
"' 	c #87BB57",
") 	c #BFDAA5",
"! 	c #3C7705",
"~ 	c #3D7609",
"{ 	c #8DB767",
"] 	c #A6CC82",
"^ 	c #7CB447",
"/ 	c #7BB445",
"( 	c #BCD9A1",
"_ 	c #457C10",
": 	c #97BF71",
"< 	c #98C56F",
"[ 	c #70AE36",
"} 	c #73AF3A",
"| 	c #76B13E",
"1 	c #BCD9A0",
"2 	c #4B8118",
"3 	c #9DC578",
"4 	c #89BC58",
"5 	c #66A828",
"6 	c #6AAA2D",
"7 	c #6DAC32",
"8 	c #70AD36",
"9 	c #B9D79C",
"0 	c #3B7503",
"a 	c #568A22",
"b 	c #9FC678",
"c 	c #78B241",
"d 	c #5FA51C",
"e 	c #64A922",
"f 	c #68AB27",
"g 	c #6AAD2B",
"h 	c #6BAD2E",
"i 	c #B5D597",
"j 	c #3B7604",
"k 	c #558B22",
"l 	c #9DC775",
"m 	c #77B63A",
"n 	c #5DAA13",
"o 	c #61AD16",
"p 	c #60AF15",
"q 	c #5EAE12",
"r 	c #58AA0C",
"s 	c #A8CD85",
"t 	c #3B7703",
"u 	c #4A8316",
"v 	c #9CCA70",
"w 	c #84C447",
"x 	c #5FB40D",
"y 	c #60B60E",
"z 	c #5EB30D",
"A 	c #A3CB7E",
"B 	c #447D0F",
"C 	c #98C967",
"D 	c #95D359",
"E 	c #69C213",
"F 	c #67C111",
"G 	c #65BD10",
"H 	c #3E7709",
"I 	c #8EC35A",
"J 	c #A3DF69",
"K 	c #73CC1A",
"L 	c #69C311",
"M 	c #7FB44A",
"N 	c #A7DE72",
"O 	c #71C61F",
"P 	c #AEDB83",
"Q 	c #3D7705",
"R 	c #387004",
"S 	c #6B9F3A",
"T 	c #A6D676",
"U 	c #ACD882",
"V 	c #336602",
"W 	c #5A8D29",
"X 	c #A4CF7A",
"Y 	c #2F5D03",
"Z 	c #4E831E",
"` 	c #376E03",
"                                            ",
"                                            ",
"                            .               ",
"                          + @               ",
"                      # $ % @               ",
"                    & * = - @               ",
"                  ; > , ' ) !               ",
"                ~ { ] ^ / ( @               ",
"              _ : < [ } | 1 @               ",
"            2 3 4 5 6 7 8 9 @               ",
"        0 a b c d e f g h i @               ",
"        j k l m n o p q r s @               ",
"          t u v w x y y z A @               ",
"              B C D E F G A @               ",
"                H I J K L A @               ",
"                  & M N O P Q               ",
"                    R S T U @               ",
"                      V W X @               ",
"                        Y Z @               ",
"                            `               ",
"                                            ",
"                                            "};
