/* XPM */
static char * dir_xpm[] = {
"16 16 61 1",
" 	c None",
".	c #555753",
"+	c #6D6F6B",
"@	c #676965",
"#	c #CECECE",
"$	c #C6C6C5",
"%	c #636561",
"&	c #C0C0BF",
"*	c #969795",
"=	c #C9C9C9",
"-	c #A6A6A6",
";	c #A7A7A7",
">	c #A8A8A8",
",	c #617A9A",
"'	c #3465A4",
")	c #466D9C",
"!	c #C6D8EB",
"~	c #BED2E8",
"{	c #AEC7E3",
"]	c #8CB1D8",
"^	c #5F615D",
"/	c #89AED6",
"(	c #A6C2E0",
"_	c #3967A2",
":	c #ADC7E3",
"<	c #8BB0D7",
"[	c #8AAFD7",
"}	c #88AED6",
"|	c #85ABD5",
"1	c #80A8D3",
"2	c #7AA4D2",
"3	c #73A0CF",
"4	c #6E9DCE",
"5	c #98B9DC",
"6	c #58769B",
"7	c #9BBBDD",
"8	c #709ECE",
"9	c #709DCF",
"0	c #6E9CCE",
"a	c #6D9CCE",
"b	c #6C9BCE",
"c	c #6B9BCD",
"d	c #6A9ACE",
"e	c #6999CD",
"f	c #6899CD",
"g	c #94B6DB",
"h	c #A9ABA9",
"i	c #89AFD7",
"j	c #6B9ACD",
"k	c #6A9ACD",
"l	c #6898CD",
"m	c #6698CC",
"n	c #6598CD",
"o	c #6597CC",
"p	c #6496CC",
"q	c #6395CC",
"r	c #9ABADE",
"s	c #537196",
"t	c #455D79",
"u	c #3E6089",
"v	c #3F6086",
".+++++@@        ",
"+######$%       ",
"+&*******.....  ",
"+=---------;>.  ",
"@&,'''''''''''')",
"@='!~~~~~~~~~~!'",
"@&'{]]]]]]]]]]{'",
"^='{]]]]]]]]]]{'",
".&'{]]]]]]]]]]{'",
".='{]]]]]]]]]]{'",
".&'{]]]]]]]]]/('",
".=_:<]<[}|12345'",
".&678940abcdefg'",
".hicjkelmnopqrst",
"u'''''''''''''v ",
"                "};
