/* XPM */
static char * dir_+_xpm[] = {
"16 16 62 1",
" 	c None",
".	c #555753",
"+	c #6D6F6B",
"@	c #676965",
"#	c #CECECE",
"$	c #C6C6C5",
"%	c #636561",
"&	c #C0C0BF",
"*	c #969795",
"=	c #C9C9C9",
"-	c #A6A6A6",
";	c #A7A7A7",
">	c #A8A8A8",
",	c #617A9A",
"'	c #3465A4",
")	c #466D9C",
"!	c #C6D8EB",
"~	c #BED2E8",
"{	c #AEC7E3",
"]	c #8CB1D8",
"^	c #5F615D",
"/	c #8DB2D8",
"(	c #000000",
"_	c #89AED6",
":	c #A6C2E0",
"<	c #3967A2",
"[	c #ADC7E3",
"}	c #8BB0D7",
"|	c #8AAFD7",
"1	c #85ABD5",
"2	c #80A8D3",
"3	c #7AA4D2",
"4	c #73A0CF",
"5	c #6E9DCE",
"6	c #98B9DC",
"7	c #58769B",
"8	c #9BBBDD",
"9	c #709ECE",
"0	c #709DCF",
"a	c #6E9CCE",
"b	c #6D9CCE",
"c	c #6C9BCE",
"d	c #6B9BCD",
"e	c #6A9ACE",
"f	c #6999CD",
"g	c #6899CD",
"h	c #94B6DB",
"i	c #A9ABA9",
"j	c #89AFD7",
"k	c #6B9ACD",
"l	c #6A9ACD",
"m	c #6898CD",
"n	c #6698CC",
"o	c #6598CD",
"p	c #6597CC",
"q	c #6496CC",
"r	c #6395CC",
"s	c #9ABADE",
"t	c #537196",
"u	c #455D79",
"v	c #3E6089",
"w	c #3F6086",
".+++++@@        ",
"+######$%       ",
"+&*******.....  ",
"+=---------;>.  ",
"@&,'''''''''''')",
"@='!~~~~~~~~~~!'",
"@&'{]]]]]]]]]]{'",
"^='{]]]/(]]]]]{'",
".&'{]]]](]]]]]{'",
".='{]](((((]]]{'",
".&'{]]]](]]]]_:'",
".=<[}]}|(123456'",
".&78905abcdefgh'",
".ijdklfmnopqrstu",
"v'''''''''''''w ",
"                "};
