/* XPM */
static char * dir_+_xpm[] = {
/* width height num_colors chars_per_pixel */
"16 16 3 1",
/* colors */
" 	c None",
".	c black",
"X	c #f0ff80",
/* pixels */
"                ",
"                ",
"    ....        ",
"   .XXXX.       ",
"  .XXXXXX.      ",
" .............  ",
" .XXXXXXXXXXX.  ",
" .XXXXX.XXXXX.  ",
" .XXXXX.XXXXX.  ",
" .XXX.....XXX.  ",
" .XXXXX.XXXXX.  ",
" .XXXXX.XXXXX.  ",
" .XXXXXXXXXXX.  ",
" .............  ",
"                ",
"                "};
