/* XPM */
static char * down_xpm[] = {
"22 22 122 2",
"  	c None",
". 	c #3A7504",
"+ 	c #3A7304",
"@ 	c #BFDAA5",
"# 	c #BBD8A0",
"$ 	c #B8D69C",
"% 	c #B4D496",
"& 	c #B1D292",
"* 	c #AED08D",
"= 	c #AACE88",
"- 	c #A4CB80",
"; 	c #BFDAA6",
"> 	c #7EB54A",
", 	c #77B140",
"' 	c #70AD36",
") 	c #6AAA2E",
"! 	c #63A624",
"~ 	c #5CA21A",
"{ 	c #A4CB7F",
"] 	c #64A625",
"^ 	c #7DB549",
"/ 	c #69A92D",
"( 	c #5BA118",
"_ 	c #A3CA7E",
": 	c #BEDAA4",
"< 	c #7CB447",
"[ 	c #76B03E",
"} 	c #6FAD34",
"| 	c #69A92C",
"1 	c #62A523",
"2 	c #569E11",
"3 	c #3B7504",
"4 	c #3C7705",
"5 	c #BDD9A2",
"6 	c #7BB345",
"7 	c #74B03C",
"8 	c #6DAC32",
"9 	c #67A82A",
"0 	c #4E9A06",
"a 	c #588A29",
"b 	c #BDD8A3",
"c 	c #C1DBA8",
"d 	c #79B241",
"e 	c #74B23A",
"f 	c #6FB031",
"g 	c #65AA22",
"h 	c #54A209",
"i 	c #53A108",
"j 	c #A5CD7E",
"k 	c #A4CC7E",
"l 	c #A3CB7E",
"m 	c #9EC677",
"n 	c #4F831D",
"o 	c #649537",
"p 	c #B6D59A",
"q 	c #86BA56",
"r 	c #7DB646",
"s 	c #79B63F",
"t 	c #72B433",
"u 	c #60AD18",
"v 	c #58A90A",
"w 	c #58AA0A",
"x 	c #57A80A",
"y 	c #5FAA17",
"z 	c #9CC972",
"A 	c #5B8E28",
"B 	c #3C7603",
"C 	c #74A049",
"D 	c #B1D490",
"E 	c #80BA47",
"F 	c #74B734",
"G 	c #5DAD0F",
"H 	c #5CAF0C",
"I 	c #5DB10C",
"J 	c #5EB20C",
"K 	c #60B112",
"L 	c #9CCC6C",
"M 	c #699D39",
"N 	c #3A7604",
"O 	c #83AF59",
"P 	c #A9D381",
"Q 	c #60B113",
"R 	c #5EB30D",
"S 	c #61B70E",
"T 	c #62B90E",
"U 	c #63BA0F",
"V 	c #63B90F",
"W 	c #99D064",
"X 	c #7BAF4A",
"Y 	c #3C7704",
"Z 	c #8ABA5E",
"` 	c #8EC955",
" .	c #65BD10",
"..	c #67C111",
"+.	c #68C211",
"@.	c #94D357",
"#.	c #8BC159",
"$.	c #3C7604",
"%.	c #3F7709",
"&.	c #95C666",
"*.	c #89CC48",
"=.	c #69C311",
"-.	c #6CC813",
";.	c #8FD64A",
">.	c #9DD069",
",.	c #3F7A09",
"'.	c #447B0F",
").	c #A1D172",
"!.	c #83CE39",
"~.	c #86D33B",
"{.	c #A9DD75",
"].	c #457E0F",
"^.	c #4C8216",
"/.	c #A7D877",
"(.	c #AADD78",
"_.	c #4F8918",
":.	c #396E03",
"<.	c #578E23",
"[.	c #5A9524",
"}.	c #397103",
"|.	c #366D03",
"1.	c #397005",
"                                            ",
"                                            ",
"            . + + + + + + + + .             ",
"            + @ # $ % & * = - +             ",
"            + ; > , ' ) ! ~ { +             ",
"            + ; > , ' ) ] ~ { +             ",
"            + @ ^ , ' / ! ( _ +             ",
"            + : < [ } | 1 2 _ +             ",
"    3 + + + 4 5 6 7 8 9 ~ 0 _ 4 + + + .     ",
"      a b c : # d e f g h i j k l m n       ",
"        o p q r s t u v w v x y z A         ",
"        B C D E F G H I J I K L M B         ",
"          N O P Q R S T U V W X Y           ",
"            4 Z ` T  ...+.@.#.$.            ",
"              %.&.*.=.-.;.>.,.              ",
"                '.).!.~.{.].                ",
"                  ^./.(._.                  ",
"                  :.<.[.}.                  ",
"                    |.1.                    ",
"                                            ",
"                                            ",
"                                            "};
