#define editor.xbm_width 44
#define editor.xbm_height 44
static char editor.xbm_bits[] = {
   0x55, 0x55, 0x55, 0x55, 0x55, 0x05, 0xaa, 0xaa, 0xaa, 0xaa, 0xaa, 0x0a,
   0x01, 0x00, 0x00, 0x00, 0x00, 0x04, 0x22, 0x42, 0x10, 0x04, 0x41, 0x08,
   0x81, 0x08, 0x82, 0x20, 0x08, 0x04, 0x02, 0x00, 0x00, 0x00, 0x00, 0x08,
   0x01, 0x00, 0x00, 0x00, 0x80, 0x04, 0x02, 0x00, 0x00, 0x00, 0x00, 0x08,
   0x01, 0x00, 0x00, 0x00, 0x00, 0x04, 0x02, 0x00, 0x00, 0x00, 0x40, 0x08,
   0x01, 0xe0, 0xff, 0x00, 0x00, 0x04, 0x02, 0xe0, 0xff, 0x00, 0x00, 0x08,
   0x01, 0x60, 0xe0, 0x00, 0x80, 0x04, 0x02, 0x60, 0xe0, 0x00, 0x00, 0x08,
   0x01, 0x60, 0xfe, 0x00, 0x00, 0x04, 0x02, 0x60, 0xfe, 0x00, 0x40, 0x08,
   0x01, 0x60, 0xf8, 0x00, 0x00, 0x04, 0x02, 0x60, 0xf8, 0x00, 0x00, 0x08,
   0x01, 0x60, 0xfe, 0x00, 0x80, 0x04, 0x02, 0x60, 0xfe, 0x00, 0x00, 0x08,
   0x01, 0x60, 0xe0, 0x00, 0x00, 0x04, 0x02, 0x60, 0xe0, 0x00, 0x40, 0x08,
   0x01, 0xe0, 0xff, 0x00, 0x00, 0x04, 0x02, 0xe0, 0xff, 0x00, 0x00, 0x08,
   0x01, 0x00, 0x00, 0x00, 0x80, 0x04, 0x02, 0x00, 0x00, 0x00, 0x00, 0x08,
   0x01, 0x00, 0x00, 0x00, 0x00, 0x04, 0x02, 0xe0, 0xfc, 0x79, 0x4e, 0x08,
   0x01, 0xe0, 0xfc, 0x79, 0x0e, 0x04, 0x02, 0x00, 0x00, 0x00, 0x00, 0x08,
   0x01, 0xe0, 0x79, 0x1e, 0x83, 0x04, 0x02, 0x00, 0x00, 0x00, 0x00, 0x08,
   0x01, 0x00, 0x00, 0x00, 0x00, 0x04, 0x02, 0xe0, 0xc3, 0xd9, 0x43, 0x08,
   0x01, 0x00, 0x00, 0x00, 0x00, 0x04, 0x02, 0xe0, 0x37, 0x1f, 0x07, 0x08,
   0x01, 0xe0, 0x37, 0x1f, 0x87, 0x04, 0x02, 0x00, 0x00, 0x00, 0x00, 0x08,
   0x01, 0x00, 0x00, 0x00, 0x00, 0x04, 0x02, 0x00, 0x00, 0x00, 0x40, 0x08,
   0x01, 0x00, 0x00, 0x00, 0x00, 0x04, 0x02, 0x00, 0x00, 0x00, 0x80, 0x08,
   0x55, 0x55, 0x55, 0x55, 0x55, 0x05, 0xaa, 0xaa, 0xaa, 0xaa, 0xaa, 0x0a};
