#define enabled_width 12
#define enabled_height 12
static unsigned char enabled_bits[] = {
   0xff, 0xff, 0x01, 0xf8, 0x01, 0xfc, 0x01, 0xfe, 0x85, 0xfb, 0xcd, 0xf9,
   0xf9, 0xf8, 0x79, 0xf8, 0x39, 0xf8, 0x11, 0xf8, 0x01, 0xf8, 0xff, 0xff};
