/* XPM */
static char * enabled_xpm[] = {
"12 12 48 1",
" 	c None",
".	c #DFF3E3",
"+	c #D8F2DC",
"@	c #D3F1D8",
"#	c #D0F1D5",
"$	c #CEF0D3",
"%	c #CDF0D2",
"&	c #D0EFD5",
"*	c #DDF7DE",
"=	c #C6EFCB",
"-	c #B9EDBE",
";	c #B9ECBA",
">	c #CAF3CB",
",	c #BBEBC0",
"'	c #B5ECB7",
")	c #B7F0B9",
"!	c #ACEAB2",
"~	c #A3E9A9",
"{	c #9BE7A1",
"]	c #85E088",
"^	c #96E398",
"/	c #FFFFFF",
"(	c #D9EEDA",
"_	c #9BE79D",
":	c #CFECCF",
"<	c #58D95C",
"[	c #7BDF7E",
"}	c #70E273",
"|	c #6FDD72",
"1	c #60DA67",
"2	c #4FD653",
"3	c #61DF65",
"4	c #6AE06D",
"5	c #59DD5D",
"6	c #4ADA4E",
"7	c #3BD73F",
"8	c #45D949",
"9	c #55DD59",
"0	c #39B044",
"a	c #30B538",
"b	c #28B830",
"c	c #21BB29",
"d	c #1DBD25",
"e	c #1CBE24",
"f	c #20BC28",
"g	c #25BA2D",
"h	c #2DB638",
"i	c #36B241",
"            ",
" .+@#$%$&** ",
" $===-;==>= ",
" ,'=;;;;=)= ",
" !~{]]]]^/( ",
" __]]]]]//: ",
" _//<<<///] ",
" [///<///}] ",
" |1/////23] ",
" 456///789] ",
" 0abcdefghi ",
"            "};
