/* XPM */
static char * exe___xpm[] = {
"16 16 7 1",
" 	c None",
".	c #5743EF",
"+	c #221096",
"@	c #3055DB",
"#	c #000000",
"$	c #777676",
"%	c #34C7EF",
"     .+  ++     ",
"     ++  ++@ +  ",
"  +. ++++++++++ ",
"  ++++#####+++  ",
"  @++#$$$$$#++  ",
"  @+#$$$$$$$#+++",
" +++#$$$$$$$#+++",
" +@+#$$###$$++@ ",
"  @+#$$$$$$$#+  ",
" .++#$$$$$$$#+++",
" ++++#$$$$$#+++.",
" @+@++#####++@% ",
"    @+++++++++  ",
"    +++@++@.++  ",
"     +  ++      ",
"                "};
