/* XPM */
static char * file_+_xpm[] = {
/* width height num_colors chars_per_pixel */
"16 16 3 1",
/* colors */
" 	c None",
".	c black",
"X	c white",
/* pixels */
"  .......       ",
"  .XXXXX..      ",
"  .XXXXX.X.     ",
"  .XXXXX..X.    ",
"  .XXXXX.....   ",
"  .XXXXXXXXX.   ",
"  .XXXXXXXXX.   ",
"  .XXXX.XXXX.   ",
"  .XXXX.XXXX.   ",
"  .XX.....XX.   ",
"  .XXXX.XXXX.   ",
"  .XXXX.XXXX.   ",
"  .XXXXXXXXX.   ",
"  .XXXXXXXXX.   ",
"  ...........   ",
"                "};
