/* XPM */
static char * file_h_xpm[] = {
"16 16 78 1",
" 	c None",
".	c #8D8F8A",
"+	c #888A85",
"@	c #898B86",
"#	c #8A8C88",
"$	c #8C8E8A",
"%	c #8D8F8B",
"&	c #FFFFFF",
"*	c #8B8D88",
"=	c #EDEDEC",
"-	c #E9E9E8",
";	c #E3E3E2",
">	c #DDDDDC",
",	c #DADAD9",
"'	c #DBDBDA",
")	c #EBEBEA",
"!	c #F4F4F3",
"~	c #8A8B87",
"{	c #E8E8E7",
"]	c #DEDEDD",
"^	c #D9D9D8",
"/	c #D6D6D5",
"(	c #D4D4D3",
"_	c #D3D3D2",
":	c #D1D1D0",
"<	c #8A8C87",
"[	c #E0E0DF",
"}	c #D7D7D6",
"|	c #D5D5D4",
"1	c #D2D2D1",
"2	c #D0D0CF",
"3	c #CFCFCE",
"4	c #C6C6C5",
"5	c #BCBCBB",
"6	c #C0C0BF",
"7	c #CECECD",
"8	c #C4C4C3",
"9	c #B8B8B7",
"0	c #C5C5C4",
"a	c #CDCDCC",
"b	c #C9C9C8",
"c	c #C3C3C2",
"d	c #B7B7B6",
"e	c #BFBFBE",
"f	c #BBBBBA",
"g	c #8E908B",
"h	c #CCCCCB",
"i	c #C8C8C7",
"j	c #B9B9B8",
"k	c #BDBDBC",
"l	c #949592",
"m	c #BABAB9",
"n	c #989A96",
"o	c #B5B5B4",
"p	c #B4B4B3",
"q	c #9C9D99",
"r	c #B3B3B2",
"s	c #B6B6B5",
"t	c #B2B2B1",
"u	c #9E9E9B",
"v	c #B1B1B0",
"w	c #9D9E9B",
"x	c #B0B0AF",
"y	c #B6B6B6",
"z	c #9E9F9D",
"A	c #9FA09E",
"B	c #FBFBFB",
"C	c #A1A19F",
"D	c #8C8E89",
"E	c #9E9F9C",
"F	c #A0A09D",
"G	c #A0A19E",
"H	c #A2A4A1",
"I	c #A4A5A3",
"J	c #A5A6A4",
"K	c #A6A6A4",
"L	c #A3A4A2",
"M	c #A2A2A0",
" .+@#$%%$#@+++. ",
" +&&&&&&&&&&&&* ",
" +&=-;>,'>;)!&* ",
" ~&{]^/(_(/:'&* ",
" <&[}|1:23456&* ",
" #&'/12748690&* ",
" <&}:abcdeef8&g ",
" @&|hi9999jdk&l ",
" +&14f9ddmjj5&n ",
" +&bmddodd9pd&q ",
" +&irrppsopts&u ",
" +&jrvddsopro&wx",
" +&dvoospopoy&z ",
" +&5tdjppppdd&A ",
" +&&&&B&&&&&&&C ",
" .DlEFGHIJKJLMz "};
