/* XPM */
static char * file_d_xpm[] = {
/* width height num_colors chars_per_pixel */
"16 16 4 1",
/* colors */
" 	c None",
".	c black",
"X	c white",
"o	c red",
/* pixels */
"  .......       ",
"  .XXXXX..      ",
"  .XXXXX.X.     ",
"  .XXXXX..X.    ",
"  .XXXXX.....   ",
"  .XXXXXXXXX.   ",
"  .XoXXXXXoX.   ",
"  .XXoXXXoXX.   ",
"  .XXXoXoXXX.   ",
"  .XXXXoXXXX.   ",
"  .XXXoXoXXX.   ",
"  .XXoXXXoXX.   ",
"  .XoXXXXXoX.   ",
"  .XXXXXXXXX.   ",
"  ...........   ",
"                "};
