/* XPM */
static char * file_s_xpm[] = {
/* width height num_colors chars_per_pixel */
"16 16 4 1",
/* colors */
" 	c None",
".	c black",
"X	c white",
"o	c blue",
/* pixels */
"  .......       ",
"  .XXXXX..      ",
"  .XXXXX.X.     ",
"  .XXXXX..X.    ",
"  .XXXXX.....   ",
"  .XXXXXXXXX.   ",
"  .XXXXXXXXX.   ",
"  .XXXXXXXoX.   ",
"  .XXXXXXoXX.   ",
"  .XXXXXooXX.   ",
"  .XoooXoXXX.   ",
"  .XXXoooXXX.   ",
"  .XXXXoXXXX.   ",
"  .XXXXXXXXX.   ",
"  ...........   ",
"                "};
