/* XPM */
static char * files_xpm[] = {
/* width height ncolors cpp [x_hot y_hot] */
"24 24 4 1 0 0",
/* colors */
" 	s none	m none	c none",
".	s iconColor5	m black	c blue",
"X	c gray",
"o	s iconColor1	m black	c black",
/* pixels */
"                        ",
"                        ",
"                        ",
"               ....     ",
"              .XXXX.    ",
"             .XXXXXX.   ",
"      ....   ..XXXX..   ",
"     .XXXX.  .X....X.   ",
"    .XXXXXX. .XXXXXX.   ",
"    ..XXXX.. .XXXXXX.   ",
"    .X.....ooooXXXXX.   ",
"    .XXXXooXXXXoXXXX.   ",
"    .XXXXoXXXXXXoXXX.   ",
"    .XXXXooXXXXooXX.    ",
"    .XXXXoXooooXo..     ",
"    .XXXXoXXXXXXo       ",
"     .XXXoXXXXXXo       ",
"      ...oXXXXXXo       ",
"          oXXXXo        ",
"           oooo         ",
"                        ",
"                        ",
"                        ",
"                        "};
