/* XPM */
static char * files_xpm[] = {
"22 22 67 1",
" 	c None",
".	c #204A87",
"+	c #3465A4",
"@	c #F7F7F7",
"#	c #F6F6F6",
"$	c #F5F5F5",
"%	c #F4F4F4",
"&	c #F3F3F3",
"*	c #F3F2F2",
"=	c #F2F1F2",
"-	c #F0F0F0",
";	c #EFEFEF",
">	c #EFEEEF",
",	c #EEEDEE",
"'	c #EDECEC",
")	c #EBECEB",
"!	c #F7F6F6",
"~	c #F4F5F4",
"{	c #F3F4F3",
"]	c #F3F2F3",
"^	c #F2F2F1",
"/	c #F1F0F1",
"(	c #EEEEEE",
"_	c #EEEDED",
":	c #ECECEC",
"<	c #EBEBEB",
"[	c #EAEAEA",
"}	c #F3F3F4",
"|	c #F2F2F2",
"1	c #F1F2F2",
"2	c #F1F1F1",
"3	c #EFEFF0",
"4	c #EEEEEF",
"5	c #EDEDED",
"6	c #E9E9EA",
"7	c #EDEEED",
"8	c #ECECED",
"9	c #EAEBEB",
"0	c #E9E9E9",
"a	c #E8E8E8",
"b	c #8E8E8E",
"c	c #E7E7E7",
"d	c #E7E6E6",
"e	c #F7F7F6",
"f	c #F5F5F6",
"g	c #EBEBEA",
"h	c #E6E6E7",
"i	c #E6E6E6",
"j	c #F6F5F5",
"k	c #F5F5F4",
"l	c #EBECEC",
"m	c #F1F0F0",
"n	c #EEEFEF",
"o	c #EBEAEB",
"p	c #F2F2F3",
"q	c #F1F2F1",
"r	c #F0F1F0",
"s	c #F0EFEF",
"t	c #E8E7E8",
"u	c #EDEDEC",
"v	c #EAEAEB",
"w	c #E7E7E6",
"x	c #EAE9EA",
"y	c #E9E8E9",
"z	c #E8E8E9",
"A	c #E8E7E7",
"B	c #E6E7E6",
"......................",
".++++++++++++++++++++.",
".++++++++++++++++++++.",
"......................",
".@@@@@@@@#$%&*=-;>,').",
".@@@@@@!$~{]^/-;(_:<[.",
".@@{++++%}|1234(5:<[6.",
".@@{++++&|2-;(78:9[0a.",
".@@@++++bbb[[[[[[[[cd.",
".ef{++++gbb[[[[[[[[hi.",
".jk22lgggbbbbbbbbbiii.",
".%&mln_5gbbo[0acdiiii.",
".p1lllgggbbbbbbbbbiii.",
".qrlll<[gbbaaiiiiiiii.",
".-slllgggbbbbbbbbbiii.",
".;(lllatgbbiiiiiiiiii.",
".7ulllgggbbbbbbbbbiii.",
".:<gglvwiiiiiiiiiiiii.",
".g[0acdiiiiiiiiiiiiii.",
".xyaiiiiiiiiiiiiiiiii.",
".zABiiiiiiiiiiiiiiiii.",
"......................"};
