#define file_width 16
#define file_height 16
static unsigned char file_bits[] = {
   0xfc, 0x03, 0x04, 0x06, 0x74, 0x0e, 0x04, 0x1e, 0xd4, 0x11, 0x04, 0x10,
   0xd4, 0x15, 0x04, 0x10, 0x74, 0x17, 0x04, 0x10, 0xb4, 0x16, 0x04, 0x10,
   0xb4, 0x17, 0x04, 0x10, 0xfc, 0x1f, 0x00, 0x00};
