/* XPM */
static char * file_b_xpm[] = {
"16 16 26 1",
" 	c None",
".	c #8D8F8A",
"+	c #888A85",
"@	c #FFFFFF",
"#	c #8B8D88",
"$	c #F8F8F7",
"%	c #FEFEFE",
"&	c #F7F7F6",
"*	c #F6F6F5",
"=	c #F5F5F4",
"-	c #F4F4F3",
";	c #F2F2F1",
">	c #F3F3F3",
",	c #F1F1F0",
"'	c #F0F0EF",
")	c #F3F3F2",
"!	c #F2F2F2",
"~	c #F1F1F1",
"{	c #F0F0F0",
"]	c #EFEFEE",
"^	c #EEEEEE",
"/	c #EDEDED",
"(	c #EFEFEF",
"_	c #ECECEC",
":	c #ECECEB",
"<	c #8C8E8A",
" .++++++++++++. ",
" +@@@@@@@@@@@@# ",
" +@$$$$$$$$$$%# ",
" +@$$$$$$$$$$%# ",
" +@$$$$$$$$$$%# ",
" +@$$$$$$$$$$%# ",
" +@$$$$$$$$&*%# ",
" +@$$$$$$$&*=%# ",
" +@$$=$$-$;->%# ",
" +@$$$$$,',);%# ",
" +@$&&'''''''%# ",
" +@&);,'!~{']%# ",
" +@=,,,,,']^/%# ",
" +@-);,{(^/_:%# ",
" +@%%%%%%%%%%@# ",
" .############< "};
