/* XPM */
static char * file_s2_xpm[] = {
"16 16 62 1",
" 	c None",
".	c #8D8F8A",
"+	c #888A85",
"@	c #FFFFFF",
"#	c #8B8D88",
"$	c #F8F8F7",
"%	c #FEFEFE",
"&	c #DFF3E3",
"*	c #D8F2DC",
"=	c #D3F1D8",
"-	c #D0F1D5",
";	c #CEF0D3",
">	c #CDF0D2",
",	c #D0EFD5",
"'	c #DDF7DE",
")	c #7A918A",
"!	c #C6EFCB",
"~	c #B9EDBE",
"{	c #B9ECBA",
"]	c #CAF3CB",
"^	c #709680",
"/	c #BBEBC0",
"(	c #B5ECB7",
"_	c #B7F0B9",
":	c #9BE79D",
"<	c #ACEAB2",
"[	c #A3E9A9",
"}	c #9BE7A1",
"|	c #85E088",
"1	c #96E398",
"2	c #F7F7F6",
"3	c #F3F3F2",
"4	c #58D95C",
"5	c #4BA855",
"6	c #F5F5F4",
"7	c #F1F1F0",
"8	c #7BDF7E",
"9	c #70E273",
"0	c #43AB4D",
"a	c #F4F4F3",
"b	c #6FDD72",
"c	c #60DA67",
"d	c #4FD653",
"e	c #61DF65",
"f	c #3BAF46",
"g	c #6AE06D",
"h	c #59DD5D",
"i	c #4ADA4E",
"j	c #3BD73F",
"k	c #45D949",
"l	c #55DD59",
"m	c #35B240",
"n	c #39B044",
"o	c #30B538",
"p	c #28B830",
"q	c #21BB29",
"r	c #1DBD25",
"s	c #1CBE24",
"t	c #20BC28",
"u	c #25BA2D",
"v	c #2DB638",
"w	c #36B241",
" .++++++++++++. ",
" +@@@@@@@@@@@@# ",
" +@$$$$$$$$$$%# ",
" +@$$$$$$$$$$%# ",
" +@$$$$$$$$$$%# ",
" +@$$$$$$$$$$%# ",
" +@$$&*=-;>;,') ",
" +@$$;!!!~{!!]^ ",
" +@$$/(!{{{{!_: ",
" +@$$<[}||||1@: ",
" +@$2::|||||@@: ",
" +@23:@@444@@@5 ",
" +@678@@@4@@@90 ",
" +@a3bc@@@@@def ",
" +@%%ghi@@@jklm ",
" .###nopqrstuvw "};
