/* XPM */
static char * file_d_xpm[] = {
"16 16 81 1",
" 	c None",
".	c #8D8F8A",
"+	c #888A85",
"@	c #FFFFFF",
"#	c #8B8D88",
"$	c #F8F8F7",
"%	c #FEFEFE",
"&	c #F3E0DF",
"*	c #F2D9D8",
"=	c #F1D4D3",
"-	c #F1D1D0",
";	c #F0CFCE",
">	c #F0CECD",
",	c #EFD1D0",
"'	c #F7DDDD",
")	c #917E7A",
"!	c #EFC7C6",
"~	c #EDBAB9",
"{	c #ECB9B9",
"]	c #F3CACA",
"^	c #967470",
"/	c #EBBCBB",
"(	c #ECB5B5",
"_	c #F0B7B7",
":	c #9B6A66",
"<	c #EAADAC",
"[	c #E9A4A3",
"}	c #E79C9B",
"|	c #E39696",
"1	c #ECA5A5",
"2	c #9F605D",
"3	c #F7F7F6",
"4	c #E79B9B",
"5	c #E18E8D",
"6	c #E08585",
"7	c #DF8383",
"8	c #E89292",
"9	c #A35754",
"0	c #F3F3F2",
"a	c #E18A89",
"b	c #DF7E7E",
"c	c #E58181",
"d	c #A84D4B",
"e	c #F5F5F4",
"f	c #F1F1F0",
"g	c #DF7B7B",
"h	c #DD6F6F",
"i	c #D95858",
"j	c #D85756",
"k	c #E27070",
"l	c #AB4543",
"m	c #F4F4F3",
"n	c #DA6160",
"o	c #D85454",
"p	c #D64A4A",
"q	c #D54545",
"r	c #D54343",
"s	c #D54747",
"t	c #D64F4F",
"u	c #DF6161",
"v	c #AF3D3B",
"w	c #E06A6A",
"x	c #DD5959",
"y	c #DA4A4A",
"z	c #D83E3E",
"A	c #D63636",
"B	c #D63535",
"C	c #D73B3B",
"D	c #D94545",
"E	c #DD5555",
"F	c #B23735",
"G	c #B03B39",
"H	c #B53130",
"I	c #B82928",
"J	c #BB2221",
"K	c #BD1E1D",
"L	c #BE1D1C",
"M	c #BC2120",
"N	c #BA2625",
"O	c #B62F2D",
"P	c #B23836",
" .++++++++++++. ",
" +@@@@@@@@@@@@# ",
" +@$$$$$$$$$$%# ",
" +@$$$$$$$$$$%# ",
" +@$$$$$$$$$$%# ",
" +@$$$$$$$$$$%# ",
" +@$$&*=-;>;,') ",
" +@$$;!@@~{@@]^ ",
" +@$$/(@@@@@@_: ",
" +@$$<[}@@@@|12 ",
" +@$3456@@@@789 ",
" +@30ab@@@@@@cd ",
" +@efgh@@ij@@kl ",
" +@m0hnopqrstuv ",
" +@%%wxyzABCDEF ",
" .###GHIJKLMNOP "};
