/* XPM */
static char * find_xpm[] = {
"22 22 176 2",
"  	c None",
". 	c #979995",
"+ 	c #8C8E89",
"@ 	c #8C8E8A",
"# 	c #8D8F8A",
"$ 	c #898B86",
"% 	c #FFFFFF",
"& 	c #FEFEFE",
"* 	c #F0F0EF",
"= 	c #8A8C87",
"- 	c #EFEFEE",
"; 	c #C7C7C6",
"> 	c #C6C6C5",
", 	c #EEEEEE",
"' 	c #EEEEED",
") 	c #EDEDEC",
"! 	c #EDEDED",
"~ 	c #90928F",
"{ 	c #72736F",
"] 	c #70716D",
"^ 	c #6E706B",
"/ 	c #72746F",
"( 	c #AFB1AE",
"_ 	c #D1D2D0",
": 	c #70726F",
"< 	c #CBCCCA",
"[ 	c #DADBDC",
"} 	c #D4D6D9",
"| 	c #D1D5D9",
"1 	c #D7D8DA",
"2 	c #CACAC9",
"3 	c #6D6F6B",
"4 	c #C8C8C7",
"5 	c #B8B8B6",
"6 	c #6F716C",
"7 	c #DADBDB",
"8 	c #97A9C1",
"9 	c #7199C5",
"0 	c #77A2CF",
"a 	c #729FCE",
"b 	c #6F98C4",
"c 	c #9DAEC3",
"d 	c #DEDEDE",
"e 	c #71736F",
"f 	c #DADADA",
"g 	c #8BA7C5",
"h 	c #729FCF",
"i 	c #C9D9EB",
"j 	c #E3EBF4",
"k 	c #DFE9F2",
"l 	c #B6CDE4",
"m 	c #739FCE",
"n 	c #8DA7C3",
"o 	c #DBDBDB",
"p 	c #6B6D69",
"q 	c #C5C5C5",
"r 	c #A3A4A2",
"s 	c #A7A8A6",
"t 	c #9EAFC4",
"u 	c #729FCD",
"v 	c #D4DFEC",
"w 	c #E4EBF3",
"x 	c #EBF0F6",
"y 	c #E2EAF4",
"z 	c #D5E2F0",
"A 	c #AFC8E3",
"B 	c #719DCD",
"C 	c #ADBACA",
"D 	c #A3A4A1",
"E 	c #ECECEB",
"F 	c #696B66",
"G 	c #DADAD9",
"H 	c #6690BF",
"I 	c #ADC6E2",
"J 	c #D9E4F0",
"K 	c #E0E9F3",
"L 	c #E3EBF3",
"M 	c #D0DEED",
"N 	c #93B4DA",
"O 	c #749BC7",
"P 	c #81A3CA",
"Q 	c #D9D9D8",
"R 	c #ECECEC",
"S 	c #D8DADB",
"T 	c #719ECE",
"U 	c #C0D3E7",
"V 	c #D2DFEC",
"W 	c #D9E4EF",
"X 	c #DDE7F1",
"Y 	c #D7E3F0",
"Z 	c #BCCEE3",
"` 	c #BBD0E7",
" .	c #7B94AC",
"..	c #E2E2E2",
"+.	c #FDFDFD",
"@.	c #EBEBEB",
"#.	c #DFDFDF",
"$.	c #76A0CD",
"%.	c #ABC3DF",
"&.	c #C6D6E8",
"*.	c #D2DDEB",
"=.	c #BDCFE4",
"-.	c #C1D2E3",
";.	c #C3D5EA",
">.	c #7C94AA",
",.	c #6E9AC9",
"'.	c #6C6E69",
").	c #FAFAFA",
"!.	c #EBEBEA",
"~.	c #EAEAEA",
"{.	c #999B97",
"].	c #C4C4C4",
"^.	c #86A6CA",
"/.	c #87A8CE",
"(.	c #ABC3DE",
"_.	c #B4C9DF",
":.	c #C0D1E3",
"<.	c #B7CAE0",
"[.	c #C8D5E4",
"}.	c #C7D8EB",
"|.	c #6A8AAB",
"1.	c #89A9CB",
"2.	c #C9C9C8",
"3.	c #848682",
"4.	c #F7F7F7",
"5.	c #E9E9E9",
"6.	c #C6C7C4",
"7.	c #8E908D",
"8.	c #D1D9E1",
"9.	c #A4BFDC",
"0.	c #B3C8E0",
"a.	c #BECFE2",
"b.	c #AFC5DD",
"c.	c #C4D3E3",
"d.	c #B7CCE3",
"e.	c #D2D9E0",
"f.	c #676965",
"g.	c #777976",
"h.	c #AEAFAE",
"i.	c #B9CADC",
"j.	c #799BC0",
"k.	c #BCD0E5",
"l.	c #A2BEDC",
"m.	c #7998BC",
"n.	c #C5CCD2",
"o.	c #939592",
"p.	c #868785",
"q.	c #686966",
"r.	c #888A85",
"s.	c #90918F",
"t.	c #DBE2E9",
"u.	c #96B3D2",
"v.	c #78A0CC",
"w.	c #97B4D3",
"x.	c #D5DCE4",
"y.	c #6A6B68",
"z.	c #B8B8B7",
"A.	c #858784",
"B.	c #747672",
"C.	c #666864",
"D.	c #7A7A78",
"E.	c #8A8B8A",
"F.	c #BFBFBF",
"G.	c #858685",
"H.	c #626460",
"I.	c #6D6E6B",
"J.	c #B7B7B5",
"K.	c #898B88",
"L.	c #C7C7C7",
"M.	c #6C6D6A",
"N.	c #858782",
"O.	c #6B6D68",
"P.	c #878984",
"Q.	c #6B6B6B",
"R.	c #CBCBCA",
"S.	c #D6D6D6",
"                                            ",
"    . + + + + @ # + + + + + + + #           ",
"    $ % & & & & & & & & & & & % +           ",
"    $ % * * * * * * * * * * * & +           ",
"    = % * * * * * * * * * * - & +           ",
"    $ % * ; ; ; ; ; ; ; ; > , & +           ",
"    = % * - - - - - - ' ' ) ! & +           ",
"    $ % * ; ; ; ; ; ~ { ] ^ / ( +           ",
"    = % * * * * _ : < [ } | 1 2 3           ",
"    $ % * 4 ; 5 6 7 8 9 0 a b c d ^         ",
"    = % * - , e f g h i j k l m n o p       ",
"    = % - q r s t u v w x y z A B C D       ",
"    = % ' E F G H I J K L K M N O P Q F     ",
"    = % ) R ^ S T U V W X Y Z `  .T ..^     ",
"    $ +.E @.^ #.$.%.&.V *.=.-.;.>.,.o '.    ",
"    $ ).!.~.{.].^./.(._.:.<.[.}.|.1.2.3.    ",
"    $ 4.~.5.6.7.8.a 9.0.a.b.c.d.a e.f.      ",
"    $ & & & & g.h.i.a j.k.l.m.m n.o.p.q.    ",
"    + $ $ r.r.r.'.s.t.u.v.a w.x.y.z.A.B.C.  ",
"                  C.D.E.F.#.G.H.  I.J.K.L.M.",
"                      N.O.'.P.    Q.M.R.S.M.",
"                                      M.M.  "};
