#define folder_width 15
#define folder_height 15
static char folder_bits[] = {
   0x3f, 0x00, 0x61, 0x00, 0xc1, 0x00, 0x81, 0x7f, 0x01, 0x40, 0x01, 0x42,
   0x01, 0x46, 0xf9, 0x4b, 0x09, 0x50, 0xf9, 0x4b, 0x01, 0x46, 0x01, 0x42,
   0x01, 0x40, 0xff, 0x7f, 0x00, 0x00};
