/* XPM */
static char * function_xpm[] = {
"22 22 91 1",
" 	c None",
".	c #204A87",
"+	c #3465A4",
"@	c #F7F7F7",
"#	c #F6F6F6",
"$	c #F5F5F5",
"%	c #F4F4F4",
"&	c #F3F3F3",
"*	c #F3F2F2",
"=	c #F2F1F2",
"-	c #F0F0F0",
";	c #EFEFEF",
">	c #EFEEEF",
",	c #EEEDEE",
"'	c #EDECEC",
")	c #EBECEB",
"!	c #F57900",
"~	c #F4F5F4",
"{	c #F3F4F3",
"]	c #F3F2F3",
"^	c #F2F2F1",
"/	c #EEEDED",
"(	c #ECECEC",
"_	c #EBEBEB",
":	c #EAEAEA",
"<	c #F3F3F4",
"[	c #F2F2F2",
"}	c #F1F2F2",
"|	c #F1F1F1",
"1	c #E9E9EA",
"2	c #F6F7F6",
"3	c #EAEBEB",
"4	c #E9E9E9",
"5	c #E8E8E8",
"6	c #EFF0F0",
"7	c #EFEFEE",
"8	c #EEEEEE",
"9	c #E9EAE9",
"0	c #E7E7E7",
"a	c #E7E6E6",
"b	c #F7F7F6",
"c	c #F5F5F6",
"d	c #F4F3F4",
"e	c #F2F3F3",
"f	c #F1F0F0",
"g	c #F0F0EF",
"h	c #EEEEED",
"i	c #EDEDED",
"j	c #EBEAEA",
"k	c #E6E6E7",
"l	c #E6E6E6",
"m	c #F6F5F5",
"n	c #F5F5F4",
"o	c #8E8E8E",
"p	c #AFB0AF",
"q	c #565656",
"r	c #787878",
"s	c #F2F3F2",
"t	c #EEEFEF",
"u	c #ECECEB",
"v	c #EBEAEB",
"w	c #5A5A5A",
"x	c #BDBDBD",
"y	c #E2E1E1",
"z	c #F2F2F3",
"A	c #ECEBEB",
"B	c #EBEBEA",
"C	c #E9EAEA",
"D	c #E8E9E9",
"E	c #E8E8E7",
"F	c #4C4C4C",
"G	c #CDCDCD",
"H	c #F1F2F1",
"I	c #F0F1F0",
"J	c #EFEFF0",
"K	c #5F5F5F",
"L	c #515151",
"M	c #ACACAC",
"N	c #F0EFEF",
"O	c #E7E7E6",
"P	c #E8E7E8",
"Q	c #EDEEED",
"R	c #EDEDEC",
"S	c #EBECEC",
"T	c #EAEAE9",
"U	c #F5F5F7",
"V	c #EAE9EA",
"W	c #E9E8E9",
"X	c #E8E8E9",
"Y	c #E8E7E7",
"Z	c #E6E7E6",
"......................",
".++++++++++++++++++++.",
".++++++++++++++++++++.",
"......................",
".@@@@@@@@#$%&*=-;>,').",
".@@@@!!!!~{]^/////(_:.",
".@@@@!!!!<[}|////(_:1.",
".@@@2!!!![|-;////3:45.",
".@@#$!!!!|678////950a.",
".bc$de[|fg8hi(j:450kl.",
".mn{eoooo8i())pqrklll.",
".%&s}f;t/iuv:4wxyllll.",
".z}|-;8i(ABCDEFGlllll.",
".HIJ;!!!!:955KFLMllll.",
".-N8h!!!!45OllFGlllll.",
".;8i(!!!!PalllFGlllll.",
".QRS_!!!!allllFGlllll.",
".(_BT4U|4lllllFGlllll.",
".B:45oooolllllFGlllll.",
".VW5llllllllllFGlllll.",
".XYZlllllllllllllllll.",
"......................"};
