/* XPM */
static char * function_xpm[] = {
/* width height ncolors cpp [x_hot y_hot] */
"24 24 4 1 0 0",
/* colors */
" 	s none	m none	c none",
".	s iconColor1	m black	c black",
"X	c #aaaaaa",
"o	s iconColor5	m black	c blue",
/* pixels */
"                        ",
"                        ",
"                        ",
" ...................... ",
" .XX.XXXXXXXXXXXX.XX.XX ",
" .XX.XXXXXXXXXXXX.XX.XX ",
" ...................... ",
" .                  .XX ",
" .                  .XX ",
" .      .  o  o     ... ",
" .     .  oX  Xo    .XX ",
" .     .  o    o    .XX ",
" .     .  o    o    .XX ",
" .    ... o    o    .XX ",
" .     .  o    o    .XX ",
" .     .  oX  Xo    .XX ",
" .     .   o  o     ... ",
" .    .             .XX ",
" .                  .XX ",
" ...................... ",
"                        ",
"                        ",
"                        ",
"                        "};
