/* XPM */
static char * go_xpm[] = {
/* width height ncolors cpp [x_hot y_hot] */
"24 24 3 1 0 0",
/* colors */
" 	s none	m none	c none",
".	s iconColor1	m black	c black",
"X	s iconColor2	m white	c white",
/* pixels */
"                        ",
"                        ",
"                        ",
"   ...........          ",
"   .XXXXXXXXX.          ",
"   .XXXXXXXXX.   .      ",
"   .X...XXXXX.   .      ",
"   .XXXXXXXXX.   .      ",
"   .XX......X.   .      ",
"   .XXXXXXXXX.   .      ",
"   .XX......X.   .      ",
"   .XXXXXXXXX.   .      ",
"   .XXX....XX.   .      ",
"   .XXXXXXXXX.   .      ",
"   .XX......X. .....    ",
"   .XXXXXXXXX.  ...     ",
"   .XXXXXXXXX.   .      ",
"   ...........          ",
"                        ",
"                        ",
"                        ",
"                        ",
"                        ",
"                        "};
