/* XPM */
static char * goto_xpm[] = {
/* width height ncolors cpp [x_hot y_hot] */
"24 24 2 1 0 0",
/* colors */
" 	s none	m none	c none",
".	c black",
/* pixels */
"                        ",
"                        ",
".....................   ",
" ...................    ",
"  .................     ",
"   ...............      ",
"    .............       ",
"     ...........        ",
"      .........         ",
"       .......          ",
"        .....           ",
"         ...            ",
"          .             ",
"                        ",
".....................   ",
".....................   ",
".....................   ",
"                        ",
".....................   ",
".....................   ",
".....................   ",
"                        ",
"                        ",
"                        "};
