/* XPM */
static char * grep_xpm[] = {
"22 22 105 2",
"  	c None",
". 	c #70716F",
"+ 	c #6D6F6B",
"@ 	c #676965",
"# 	c #D0D0D0",
"$ 	c #A6A6A5",
"% 	c #8E8E8D",
"& 	c #5D5F5B",
"* 	c #585A56",
"= 	c #575955",
"- 	c #565854",
"; 	c #555753",
"> 	c #A8A8A8",
", 	c #AAAAAA",
"' 	c #ADADAD",
") 	c #BE7942",
"! 	c #CE5C00",
"~ 	c #D2D2D2",
"{ 	c #FCBF64",
"] 	c #FCAF3E",
"^ 	c #E58720",
"/ 	c #5F615D",
"( 	c #FCBB60",
"_ 	c #FCAB39",
": 	c #FBAB39",
"< 	c #E5851D",
"[ 	c #D18141",
"} 	c #DBDBDB",
"| 	c #EB8E25",
"1 	c #FBAA38",
"2 	c #FCAA39",
"3 	c #FCAA38",
"4 	c #FCBA5F",
"5 	c #FBB75B",
"6 	c #FAA533",
"7 	c #FBA533",
"8 	c #FBA532",
"9 	c #D39B6E",
"0 	c #FAA432",
"a 	c #FBA432",
"b 	c #FBA431",
"c 	c #FBB65A",
"d 	c #FBB357",
"e 	c #FAA02C",
"f 	c #FA9F2C",
"g 	c #FA9E2B",
"h 	c #F99E2E",
"i 	c #FBB154",
"j 	c #FAAE50",
"k 	c #F99926",
"l 	c #FA9926",
"m 	c #FA9A25",
"n 	c #E98217",
"o 	c #F99823",
"p 	c #F99824",
"q 	c #F89B30",
"r 	c #F9A94B",
"s 	c #FAA94B",
"t 	c #F8931E",
"u 	c #F8931F",
"v 	c #F9931F",
"w 	c #E4780F",
"x 	c #E87E13",
"y 	c #F9931D",
"z 	c #F89B37",
"A 	c #F49B3B",
"B 	c #F9A546",
"C 	c #F88E18",
"D 	c #F78D18",
"E 	c #F78E18",
"F 	c #E3760C",
"G 	c #D7C2B1",
"H 	c #F78C17",
"I 	c #F89B3B",
"J 	c #EA892B",
"K 	c #CD5B00",
"L 	c #CE630D",
"M 	c #F89F41",
"N 	c #F78811",
"O 	c #F78810",
"P 	c #F78711",
"Q 	c #F2830F",
"R 	c #E27208",
"S 	c #F78710",
"T 	c #F89F3F",
"U 	c #E0791C",
"V 	c #CA5A00",
"W 	c #A5A8AA",
"X 	c #C26F2B",
"Y 	c #F79B3B",
"Z 	c #F6830B",
"` 	c #F6820B",
" .	c #F6820A",
"..	c #F7820A",
"+.	c #F6810A",
"@.	c #F68109",
"#.	c #F7993A",
"$.	c #D6680B",
"%.	c #B75200",
"&.	c #C27C44",
"*.	c #E68F24",
"=.	c #F99B27",
"-.	c #F99A26",
";.	c #F99B26",
">.	c #883C00",
"                                            ",
"                                            ",
"  . + + + + + @ @                           ",
"  + # # # # # # # @                         ",
"  + $ % % % % % % % & * = - ; ;             ",
"  + # > > > > > > > > > > > , ' ;           ",
"  @ $ ) ! ! ! ! ! ! ! ! ! ! ! ! ! ! ! ! !   ",
"  @ ~ ! { { { { { { { { { { { { { { { { !   ",
"  @ $ ! { ] ] ] ] ^ ! ! ! ^ ] ] ] ] ] { !   ",
"  / ~ ! ( _ : : < [ } } } [ | 1 2 3 1 4 !   ",
"  / $ ! 5 6 7 8 ! } 9 ! 9 } ! 0 a b b c !   ",
"  ; ~ ! d e f f ! } ! g ! } ! g g g h i !   ",
"  ; $ ! j k l m ! } 9 ! 9 } ! n o p q r !   ",
"  ; ~ ! s t u v w [ } } } } } ! x y z A !   ",
"  ; $ ! B C D E C F ! ! ! ! } G ! H I J K   ",
"  ; ~ L M N N N N N O P Q R ! ! ! S T U V   ",
"  ; W X Y Z `  .` .. .+... . .+.+.@.#.$.%.  ",
"  ; &.*.=.-.;.-.-.-.-.-.-.-.-.-.-.-.-.!     ",
"    ! ! ! ! ! ! ! ! ! ! ! ! ! ! ! ! ! >.    ",
"                                            ",
"                                            ",
"                                            "};
