/* XPM */
static char * grep_xpm[] = {
/* width height ncolors cpp [x_hot y_hot] */
"24 24 6 1 0 3",
/* colors */
" 	s none	m none	c none",
".	s iconColor1	m black	c black",
"X	s iconColor2	m white	c white",
"o	c lightgray",
"O	c #aaaaaa",
"+	s iconColor7	m white	c cyan",
/* pixels */
"                        ",
"                        ",
"                        ",
"                        ",
"                        ",
"                        ",
"      .........         ",
"      .XoXoXoX..        ",
"      .oXoXoXo.o.       ",
"      .XoXoXoX.Xo.      ",
"      .oXoXoXo.....     ",
"      .XoXo...oXoX.     ",
"      .o....O....o.     ",
"    .......O.O.......   ",
"   ..XOX....O....XOX..  ",
"  ..XXXOX.......XXXOX.. ",
"  .XXOX+++.....+++XXOO. ",
"  .OXXX+++.....+..XOXO. ",
"  .XOXO+++..X..+++OXOO. ",
"  ..XOXOO..XoX..XOXOO.. ",
"   ..OOO..XoXoX..OOO..  ",
"    .................   ",
"                        ",
"                        "};
