/* XPM */
static char * hold_off_xpm[] = {
/* width height ncolors cpp [x_hot y_hot] */
"24 24 5 1 0 3",
/* colors */
" 	s none	m none	c none",
".	s iconColor1	m black	c black",
"X	c #aaaaaa",
"o	c darkred",
"O	c yellow",
/* pixels */
"                        ",
"                        ",
"   ..................   ",
"  ..XXXXXXXXXXXXXXXX..  ",
"  .XXXXXXXXXXXXXXXXXX.  ",
"  .XXXXXXXXXXXXXXXXXX.  ",
"  .XXXXXXXXXXXXXXXXXX.  ",
"  .XXXXXXXXXXXXXXXXXX.  ",
"  .XXXXXXXXXXXXooXXXX.  ",
"  .XXXXXXXXXXXooooXXX.  ",
"  .XXXXXXXXXXXoOooXXX.  ",
"  .XXXXooooooooOooXXX.  ",
"  .XXXXooooooooOooXXX.  ",
"  .XXXXXXXXXXXoOooXXX.  ",
"  .XXXXXXXXXXXooooXXX.  ",
"  .XXXXXXXXXXXXooXXXX.  ",
"  .XXXXXXXXXXXXXXXXXX.  ",
"  .XXXXXXXXXXXXXXXXXX.  ",
"  .XXXXXXXXXXXXXXXXXX.  ",
"  .XXXXXXXXXXXXXXXXXX.  ",
"  ..XXXXXXXXXXXXXXXX..  ",
"   ..................   ",
"                        ",
"                        "};
