/* XPM */
static char *cf_icon[] = {
/* width height num_colors chars_per_pixel */
"    48    48      238            2",
/* colors */
".. c #bc021c",
".# c #e48614",
".a c #cc422c",
".b c #f4c204",
".c c #c42234",
".d c #e48a9c",
".e c #d4622c",
".f c #fcde84",
".g c #e4a214",
".h c #c4122c",
".i c #cc322c",
".j c #dc4264",
".k c #fcea04",
".l c #d46274",
".m c #f4d23c",
".n c #e4921c",
".o c #bc063c",
".p c #d4722c",
".q c #cc2244",
".r c #fceab4",
".s c #ecb204",
".t c #d4522c",
".u c #ecae6c",
".v c #c41a2c",
".w c #f4ca1c",
".x c #d45274",
".y c #c40a34",
".z c #e45674",
".A c #e49a1c",
".B c #dc7a14",
".C c #cc2a2c",
".D c #d46a2c",
".E c #ecaa04",
".F c #cc3a2c",
".G c #cc2a44",
".H c #eca6b4",
".I c #c40a2c",
".J c #cc4a34",
".K c #f4ca04",
".L c #f4ced4",
".M c #d41644",
".N c #fceef4",
".O c #f4bac4",
".P c #c4123c",
".Q c #f4da64",
".R c #ecba04",
".S c #d45a2c",
".T c #d41a44",
".U c #d45a74",
".V c #e4a2b4",
".W c #e47274",
".X c #dc8224",
".Y c #d4422c",
".Z c #dc6224",
".0 c #cc0234",
".1 c #cc1a44",
".2 c #ecaeb4",
".3 c #c4021c",
".4 c #cc2234",
".5 c #d42244",
".6 c #dc8e24",
".7 c #ecaa14",
".8 c #d43a24",
".9 c #fcfae4",
"#. c #e48224",
"## c #fcda54",
"#a c #ec922c",
"#b c #f4b204",
"#c c #fcca1c",
"#d c #e45e7c",
"#e c #f4ca14",
"#f c #d45a44",
"#g c #e47a2c",
"#h c #f4c614",
"#i c #e496a4",
"#j c #fce694",
"#k c #eca214",
"#l c #cc1234",
"#m c #d4362c",
"#n c #dc6274",
"#o c #fcd64c",
"#p c #c40234",
"#q c #cc2654",
"#r c #fcda04",
"#s c #cc1a34",
"#t c #d43a5c",
"#u c #dc5684",
"#v c #cc2a3c",
"#w c #d42a4c",
"#x c #cc123c",
"#y c #dc5a74",
"#z c #cc0e44",
"#A c #c4022c",
"#B c #e48a24",
"#C c #cc462c",
"#D c #f4c604",
"#E c #d4662c",
"#F c #fce294",
"#G c #cc362c",
"#H c #fcee5c",
"#I c #e49622",
"#J c #dc722c",
"#K c #cc264a",
"#L c #fcd20c",
"#M c #fcf2cc",
"#N c #d4562f",
"#O c #f4ce2c",
"#P c #c40e44",
"#Q c #ec5a78",
"#R c #e49a24",
"#S c #cc2e31",
"#T c #dc6a2e",
"#U c #ecae05",
"#V c #fca6bc",
"#W c #cc0a2c",
"#X c #f4ce04",
"#Y c #fcd664",
"#Z c #f4ba04",
"#0 c #d45e2e",
"#1 c #ec9eb4",
"#2 c #dc728c",
"#3 c #fce2e9",
"#4 c #fcf6e4",
"#5 c #fceecc",
"#6 c #fcfafc",
"#7 c #f4d6dc",
"#8 c #f4aa1c",
"#9 c #fcd23c",
"a. c #dc6234",
"a# c #ecb2c4",
"aa c #cc263c",
"ab c #d42654",
"ac c #d43e34",
"ad c #fcce2c",
"ae c #eca21c",
"af c #e4728c",
"ag c #e47a15",
"ah c #d44a31",
"ai c #ec96aa",
"aj c #f4d214",
"ak c #bc0624",
"al c #c42638",
"am c #c41634",
"an c #d46670",
"ao c #ecb606",
"ap c #f4ce1d",
"aq c #d43657",
"ar c #d4566c",
"as c #c40e34",
"at c #e48e1c",
"au c #e49e1b",
"av c #cc3e32",
"aw c #cc2e4c",
"ax c #ecaabc",
"ay c #c40e29",
"az c #f4bec4",
"aA c #cc0e3a",
"aB c #ec9e19",
"aC c #dc7e2c",
"aD c #dc8624",
"aE c #d44630",
"aF c #dc662c",
"aG c #cc0634",
"aH c #cc1e4c",
"aI c #ecb2bc",
"aJ c #c40624",
"aK c #cc2631",
"aL c #e48629",
"aM c #f4b604",
"aN c #e47e2b",
"aO c #eca60f",
"aP c #c40635",
"aQ c #cc1e2f",
"aR c #d42e54",
"aS c #cc1644",
"aT c #dc5e7c",
"aU c #e48e25",
"aV c #dc762c",
"aW c #dc5674",
"aX c #dc6e2c",
"aY c #fcda67",
"aZ c #f4be05",
"a0 c #eca2b5",
"a1 c #fcfefc",
"a2 c #e48e9c",
"a3 c #fce284",
"a4 c #fcee04",
"a5 c #f4d63c",
"a6 c #fceeb4",
"a7 c #fcf2f4",
"a8 c #ecae14",
"a9 c #f4ce14",
"b. c #cc1634",
"b# c #dc6674",
"ba c #c4062c",
"bb c #fcf25c",
"bc c #e4768c",
"bd c #cc4234",
"be c #f4c20c",
"bf c #d46234",
"bg c #c41234",
"bh c #cc3234",
"bi c #e49224",
"bj c #cc224c",
"bk c #f4d20c",
"bl c #d45234",
"bm c #e4567c",
"bn c #cc2a34",
"bo c #ecaa0c",
"bp c #eca6bc",
"bq c #f4ca0c",
"br c #f4cedc",
"bs c #f4bacc",
"bt c #c41244",
"bu c #d45a34",
"bv c #d41a4c",
"bw c #cc0a3c",
"bx c #ec9a1c",
"by c #dc7a2c",
"bz c #dc822c",
"bA c #d44234",
"bB c #cc023c",
"bC c #cc1a4c",
"bD c #ecaebc",
"bE c #c40224",
"bF c #d43a2c",
"bG c #e4822c",
"bH c #fcd654",
"bI c #c4023c",
"bJ c #d43a64",
"bK c #cc1244",
"bL c #dc5a7c",
"bM c #e48a2c",
"bN c #cc4634",
"bO c #f4c60c",
"bP c #d46634",
"bQ c #fce29c",
"bR c #cc3634",
/* pixels */
".LbcbmaTbL#daTbLaT#dbLaT#dbLaT#dbLaTaT#ubL.W.u#Hbb#Y.W#ubLbLaTaT#dbLaT#dbLaT#dbLaTbLaTbL#d#uaTai",
"aIabbwbtaA#PaA#PaA#P#z#z#P#z#z#z#P#z#zbt#P#vaNaj.k.7acbtbtaA#P#z#P#z#z#P#z#z#z#zbt#z#PaA#PaA.T.U",
"a#.0#p#pbIaP.0bIaP#paP#p#paP#p#paP#p#pbIbI.4ag#Xa4aObFbI.o#p#paP#paP#p#paP#p#p#p#p#paPbI#p#paP#y",
"aI#pbB.0#p.0#p#p.0bI.0#p.0#p.0#p#pbB#p.0#A.caN#L.k#8#m#p.0bI#p.0#p.0#p.0#p.0#p#p.0.0#p.0.0#pbI#y",
"a0bwbB#pbI#pbI#p#p#p#pbI#p#p#p#p#p#p#pbIbI.c.B#Xa4aO.F#pbI#p#pbI#p#p#p#pbI#p#pbI#p#pbI#pbI#paP.U",
"a#aS#p#p#p#p#pbI#pbI#p#pbI#pbIbIaP#p#p#p.o.4ag#Xa4aO.8.obI#p#p#p#pbI#pbI#p#pbI#p.0aP#p#p#p#p#zar",
"a#.TbB#paP#p#paP.0#p#p.0#p#p.0#p#pbIaPbIaPaK.B#Xa4.E.8.o#p#paPaP#paG#paP.0aP#paP#pbIaP.0aPaPbK#y",
"a#.M#p#paP.0aP#paP#paP#paP#paP#paP#p#p#p.oaKag#La4.s#mbI#pbI#pbB#p#p#p#p#p#p#p#paP.0aP#p#p#pbKaW",
"bDbCbB#p#p#p#p#p#pbI#pbI.0#p#paP#p#p#pbIaP.cag#X.kaM#m#p.o#p#p#paPaP#paG#paPbI.0#p#pbI#p#pbIaSaW",
"aIbv#p#p#pbIaPaPbB#p.0aPbIaP#pbBaP#p#pbIakaK.##La4aoahbI#p#p#pbI#pbB#pbIaP#paPbIaP.0aP#paP#paSbm",
"bDaSbI#paP#p#p#p#paP#p#p.0bIaP#p#p.0aPbIbI#m.##X.kaZ.eb..I.y.0aP.0#p#p#p#p.0#paP#p#pbI#p#pbIaS.z",
"ax.M#p#p#p#p#p#p#paP#p#p#p#p#p#p#p#W.c.4al.t.A#X#raZagav.CaK#s.yaP#paP#p#p#p#paP#p#paP#paG#paS#Q",
"bpaSbB#paG#paPbIaPbI#paP#p#p#p#paA.C.F.Y.a.D#k#X#r.b.#.S.Jbdav.C#s.I#p#paP#p#p.0#p#pbB#p#p#p.T.z",
"a0aS#p#pbI#p#p.0#p#paGbI#paG.h.4#Gah.Sbu.S#g#U.K#r.b#I.Da..e#Nahav.C#l#p.0bI#p#p#paP#p#paP#paS#Q",
"a0bv#p#paP#paPbIaP#p#p#pasaQbRah.S.D#JaVaVat.s#X#X.baB#.aVbyaX.D#0blav#s.y#p#paPbI#p#pbI#pbB.1#Q",
"a0aSbI#paP#p.0#p#pbIaPas.4.Y#NbPaXaCbGaL.6aBaZ.K#X#Da8.n.6aL#.by#J#T#Nav.4as#p#p#p#paP#paP#paS#Q",
"a0aSaP#pbI#p#paPaP#p#AaQav#N#EaXbybGaUaUbi.gaZbq#X#D.7aBbibiaUaLaC#J#E.tav.4aP.0#paPbB#paPbI.M.z",
"bpaS#paPbI#paP#p.0#pas#SblbfaXbybzaUbi#Iaua8be.K#X#D.saOau#I#IaU#BaNaX#0.J#G#saPbI#p#p#p#pbI.1#Q",
"a0aSaP.0#p#p.0bI#paG.4#C.S#JbyaLaU.AaB#kaO.s#D.K#X.KaZ#UaO#kau.Abi.6aN#T.Sah.i.h#p#p#paP#paGaS#Q",
"bpaSbIaP#paPbI#pba#lbh.S#TaVaDaU#I#kaO.E#U#Z#D.K#X#D.b#b#U#UaO#k#R#aaDaV#T#0.Y.caGbI#p#p#pbIaS#Q",
"a0bC#p#p#paP#p#p.yaK#CbfaV#.aU#RauaO#UaMaM.b.K.K.K#D#D.R#Z.s#U.E#kbxbibz#J#E#Nbh.y#p#p#p.0aPbKaW",
"bpaS#p#p#pbB#paP#s.F.t#TaCaU#IaBaO#Uao#ZaZ.b.K#D.K.K.K#DaZaM#b#Ubo.g#R#BbyaXbf.Y#saP#paPbI#paSaW",
".HaSaPbI.0#p#p.yaKbd#0#JbGbi.A#k.E#b#Z.R.b#D.K.K.K.K.K#D.baZ.R#b#UboaBbiaLby#T.JaKaP#pbBaP#pbKar",
"a0aSaP#paP#paP#l#Sah#EaV#B#IaBbo#Uao#ZaZ#D#D#X.K.K.K.K#D.baZaZao#b#U.gbiaLaCaX.tbnay#p#p#p#pbKaW",
"a0bCbI.0#p#p#p.v#GblaFaCaU#R#k.E.s#Z.R.b#Dbq#cap#e#L.K.K#D.baZ.Rao#UaO.A#Bbz#J#NbR#W#paP#pbI#x.U",
"a0aS#p#p#p#paG.4bd.SaXbzbiaBbo#UaoaZ#D.Kap.m#o#obHa5ap.w.K.b.baZ#Z.saO.AbiaLaV.eavaQ#paPbI.0btbL",
"#VbtaP#p#p#paP.CaE#0.pbG#IaBbo.s#Z.RbOad#o.Q#jbQbQa3aY.m#c#D.b.RaZaM#UaubiaUby#E#CaKaPaP#p#pbK#y",
".HbCaP#p#p#paP.Cah#0#JaL#Iae.E.s#Z.ba9.m#Y#j.r#M#5.rbQ.Qap#X.b.baZaM#U#kbi#BaC.ZahaKaP.0#p#pbt.U",
"a0aS#p#paP.0babn.J.ZaXaDbi#k.E#U.Rbead#o#F.r#4#4.9#5.r.f#9a9#D.RaZao#Uau.naUaCbPahaKaP#p#pbIbKaT",
"a0bC#pbI#p#paPbnah#0#JaLbi#kaO#b.Rbeap.Q#F#5.9a1a1#4a6#F.mbq.b.b#ZaM#UaBbi#BaNaF.JaKaG#p#paPaSaW",
".HaS#paP.0#p.yaK#C#0#JaD#I#k.g.saMbO#O#Y#F#5.9a1.9#4.ra3#9bq#DaZ.RaM#Uau#I#Bby#E.Y.4aP#p#p#pbK.z",
".HaS#p#p#p#paPaKbA#N.pbGbiaB.E#Uao.b#O##a3.r#5.9.9#5.ra3.mbq#D#Z.R#baO.AbiaLbybf.a#s.0aP#paPaS#Q",
"aIaH#pbI#p#A#p#sav.t#TaCaUau#k.E.saZ#e.maY#F.r.r.r#ja3bH#O#D.RaZ.R.saO.AaUaLaV.Sac.vaP#p#paP.T#2",
"brbj#A.0#p#p#pam.i.J.Zby#B#Iae.E#U#Z.bap.maYa3bQ.f.QbH#9bk#DaZaM#b.E#k#IaLaCaX.t#GaA#p#p#p#A#w#V",
"#3bJ#p#A#p#p#pas.CaE#0aVbM#IauaO.EaMaZ#Dad.mbHaYaYbH.map.K.b#Zao.saOaB.nbGaC.Dahbnba#p#p#paJaq.L",
".N#y.y..#pbI#pba.4avbuaXbzaUbxaeaO#U.RaZ#Dap#Oa5.map.w.K#D#Zao#b.EaO.AaU.X#JaF.a.caPaP#p#A#A.j.N",
"#6aibj..#A#paP.0am.iblaFby#Bbi.A#k.E#baoaZ.bbO#cbO#h#D.b#ZaM.s#UaO#k#IaLbyaX#NbR.h.0#pbI#A.P#2#6",
"a1#7aTasbE#AbI#pba#savbuaXaCaUbibx#k.E#U.saM#Z.Rao#Z.R#Z.s#UaO#kaB#I#BaCaX.Z.J#SaP#pbI#Aakaqaxa1",
"a1#6bs.xba#A#p#p#pasaKah.e#JaN#Bbi.A#kaO.E#U.s#bao.s#b#U.EaOaO.A#I#BbG.pbfbl#Gb.ba#p#paJaJbL.Na1",
"a1a1#6aIaqbabE#paP#pas#G#NaF#JaCaLbi.A.Aau#k.EaO.EaOaOaOaO.A.A.n.6#.#Jbfbl.F.c#p#p#p..#Aawa#a1a1",
"a1a1a1.Na0#tbE#A#p#p#A.4bd#NbPaXbyaLaU.n#RaBau#kaB#kauaB.A#IaUaDbzaV#T.tavaKas#p#AbEbE#qai.Na1a1",
"a1a1a1a1.N#iaR..bEak#pas.CaE#N#E.paCaL#BaUbi#I#I.A#I#I#IaUbM#.aNaV#T#0.aaKay#A#AbEakaqa2#3a1a1a1",
"a1a1a1a1a1#3.d#KaybE#AbE.IaK#C.t.ZaXbyaCaLaLataU.6#BaU.6aLaCaV.p#EbubNaK.I#Aak#Aasaq#1a7a1a1a1a1",
"a1a1a1a1a1a1#7a2.x.Gbg#A..aJaQbR.JbuaF#JaVaVaC.XaNaCaC#gaVaXaFbu.tavaQ.3bEba#Waqbca#.Na1a1a1a1a1",
"a1a1a1a1a1a1a1#3.O#i#KbEak#A...3.ibdah#N#N.Zbf#E.D.D.Zbf#N.t.J.YbE.3bEbEakalaf.Vbra7a1a1a1a1a1a1",
"a1a1a1a1a1a1a1a1#3#3#2bc#KbE#AbEbEbE.....3#f#f#f#f#f#f..bE...3..#Aak#Aalbcaf#3#3a1a1a1a1a1a1a1a1",
"a1a1a1a1a1a1a1a1a1a1#3.O.O#2aabj.q.qbjbjbj.qbj.5.q.5bjaHbjbjbjbj.q#Kafbsbs#3a1a1a1a1a1a1a1a1a1a1",
"a1a1a1a1a1a1a1a1a1a1a1a1a1a0.2.l.lb##n.l#n#n.l#n.l#n.lb#an#nan#n.laxaza1a1a1a1a1a1a1a1a1a1a1a1a1"
};
