/* XPM */
static char * include_xpm[] = {
/* width height ncolors cpp [x_hot y_hot] */
"24 24 9 1 0 0",
/* colors */
" 	s none	m none	c none",
".	s iconColor1	m black	c black",
"X	c gray",
"o	c darkred",
"O	c darkblue",
"+	c white",
"@	s iconColor3	m black	c red",
"#	c darkgreen",
"$	s iconColor6	m white	c yellow",
/* pixels */
"                        ",
"                        ",
"  ..........  ......... ",
"  .      .XX. .ooooooo. ",
"  . ...  .XOOO.ooooooo. ",
"  .      .XOX.......... ",
"  . . .. .XOXX.   +     ",
"  .      ..O........... ",
"  . .. ..  O  .OOOOOOO. ",
".......... OOO.OOOOOOO. ",
".@@@@@@@.  O  ......... ",
".@@@@@@@.OOO .    .     ",
".........  O. ......... ",
"  .        O  .#######. ",
"  . ... .. OOO.#######. ",
"  .        O  ......... ",
"  . .. ... O .    .     ",
"  .        O  ......... ",
"  . . . .. O  .$$$$$$$. ",
"  .        OOO.$$$$$$$. ",
"  . . .. .  . ......... ",
"  .               .     ",
"  .................     ",
"                        "};
