/* XPM */
static char * include_xpm[] = {
"22 22 158 2",
"  	c None",
". 	c #102747",
"+ 	c #FFFFFF",
"@ 	c #6993CD",
"# 	c #6D96CD",
"$ 	c #7198CF",
"% 	c #749ACF",
"& 	c #779ECF",
"* 	c #7BA0D0",
"= 	c #7EA2D1",
"- 	c #80A4D1",
"; 	c #81A5D2",
"> 	c #82A5D2",
", 	c #7FA3D1",
"' 	c #7CA1D0",
") 	c #799FD0",
"! 	c #769CCF",
"~ 	c #7299CF",
"{ 	c #6F97CE",
"] 	c #6B94CD",
"^ 	c #6792CD",
"/ 	c #6992CD",
"( 	c #6B95CD",
"_ 	c #6F98CE",
": 	c #7299CE",
"< 	c #759CD0",
"[ 	c #799FCF",
"} 	c #7DA2D1",
"| 	c #7EA3D1",
"1 	c #7DA1D0",
"2 	c #7A9FD0",
"3 	c #779ED0",
"4 	c #749BCF",
"5 	c #7199CF",
"6 	c #6D96CE",
"7 	c #6A94CD",
"8 	c #6690CC",
"9 	c #6791CC",
"0 	c #7199CE",
"a 	c #739BCF",
"b 	c #769DCF",
"c 	c #789ED0",
"d 	c #7AA0D0",
"e 	c #6892CD",
"f 	c #6590CC",
"g 	c #6C94CD",
"h 	c #6E97CD",
"i 	c #7099CE",
"j 	c #759CCF",
"k 	c #779DD0",
"l 	c #779CD0",
"m 	c #6D95CD",
"n 	c #6A94CC",
"o 	c #6791CD",
"p 	c #638FCC",
"q 	c #638ECB",
"r 	c #6691CC",
"s 	c #6C95CD",
"t 	c #6E96CE",
"u 	c #7098CE",
"v 	c #739ACE",
"w 	c #739ACF",
"x 	c #658FCC",
"y 	c #628DCC",
"z 	c #618CCB",
"A 	c #648FCC",
"B 	c #6D95CE",
"C 	c #6E97CE",
"D 	c #6994CD",
"E 	c #608CCB",
"F 	c #5E8BCB",
"G 	c #618DCB",
"H 	c #6892CC",
"I 	c #6A93CD",
"J 	c #6C94CE",
"K 	c #6490CC",
"L 	c #5D8ACA",
"M 	c #5C89CA",
"N 	c #5F8BCB",
"O 	c #6590CD",
"P 	c #6891CC",
"Q 	c #5B88CA",
"R 	c #5987C9",
"S 	c #5B88CB",
"T 	c #5A88CA",
"U 	c #5886C9",
"V 	c #5685C9",
"W 	c #5887C9",
"X 	c #608DCB",
"Y 	c #5785CA",
"Z 	c #5584C8",
"` 	c #5382C8",
" .	c #5584C9",
"..	c #5A87CA",
"+.	c #5B89CA",
"@.	c #5D89CB",
"#.	c #5D8ACB",
"$.	c #5B89CB",
"%.	c #5886CA",
"&.	c #5684C9",
"*.	c #5583C8",
"=.	c #5282C8",
"-.	c #5081C7",
";.	c #5281C9",
">.	c #5483C9",
",.	c #5986C9",
"'.	c #5986CA",
").	c #5887CA",
"!.	c #5785C9",
"~.	c #5382C9",
"{.	c #5181C8",
"].	c #5080C7",
"^.	c #4E7DC8",
"/.	c #4F7FC8",
"(.	c #5180C7",
"_.	c #5281C8",
":.	c #5583C9",
"<.	c #5484C8",
"[.	c #5482C8",
"}.	c #5080C8",
"|.	c #4E7EC7",
"1.	c #4C7DC7",
"2.	c #4A7BC7",
"3.	c #4D7EC7",
"4.	c #4E7FC7",
"5.	c #507FC7",
"6.	c #5180C8",
"7.	c #4B7CC7",
"8.	c #497BC7",
"9.	c #4679C6",
"0.	c #487AC6",
"a.	c #497CC7",
"b.	c #4D7DC8",
"c.	c #4779C6",
"d.	c #4377C5",
"e.	c #4577C5",
"f.	c #497BC6",
"g.	c #497CC6",
"h.	c #4B7BC7",
"i.	c #4A7CC6",
"j.	c #4477C6",
"k.	c #4376C5",
"l.	c #4074C5",
"m.	c #4275C5",
"n.	c #4477C5",
"o.	c #4577C6",
"p.	c #4578C6",
"q.	c #4678C6",
"r.	c #4175C5",
"s.	c #3F74C4",
"t.	c #3C71C4",
"u.	c #3E73C4",
"v.	c #3F73C5",
"w.	c #4276C5",
"x.	c #4376C6",
"y.	c #4075C5",
"z.	c #4074C4",
"A.	c #3D72C4",
". . . . . . . . . . . . . . . . . . . . . . ",
". + + + + + + + + + + + + + + + + + + + + . ",
". + @ # $ % & * = - ; > , ' ) ! ~ { ] ^ + . ",
". + / ( _ : < [ * } | = 1 2 3 4 5 6 7 8 + . ",
". + 9 7 6 0 a b c 2 d d ) ! ! { { ( e f + . ",
". + f e g h i a j k k l ! ! # { m n o p + . ",
". + q r @ s t u ~ v v w ! ! # { 7 e x y + . ",
". + z A r / ] B C { _ { { # s D e f q E + . ",
". + F G A r H I ] s J { ] I e o K q E L + . ",
". + M N + + + O o e e e P o f + + + L Q + . ",
". + R S + + + + + + + + + + + + + + T U + . ",
". + V W + + + N N E + X E N N + + + Y Z + . ",
". + `  .U R ..+.M @.+ L #.$.Q ..%.&.*.=.+ . ",
". + -.;.>. .V U R ,.+ '.'.).!.&.>.~.{.].+ . ",
". + ^./.(._.~.*.:. .+ '. .<.[.~.{.}.|.1.+ . ",
". + 2.1.3.4.5.{.{.{.+ _.6.6.}.+ + + 7.8.+ . ",
". + 9.0.a.7.1.b.3.|.+ + + + + + + + c.9.+ . ",
". + d.e.9.0.0.f.g.h.7.2.2.i.f.+ + + j.k.+ . ",
". + l.m.k.n.o.p.9.c.9.c.9.q.p.j.d.m.r.s.+ . ",
". + t.u.v.l.m.w.w.k.x.k.k.w.m.y.z.v.A.t.+ . ",
". + + + + + + + + + + + + + + + + + + + + . ",
". . . . . . . . . . . . . . . . . . . . . . "};
