/* XPM */
static char * info_xpm[] = {
/* width height ncolors chars_per_pixel */
"32 32 4 1",
/* colors */
" 	s None c None m None",
".	c blue m black",
"X	c gray m white",
"o	c black m black",
/* pixels */
"                                ",
"           ..........           ",
"         ..............         ",
"       ..................       ",
"      ....................      ",
"     ......................     ",
"    .......XXXXXXXXXX.......    ",
"   ........XXXXXXXXXXo.......   ",
"   ........XXXXXXXXXXo.......   ",
"  ...........XXXXXXooo........  ",
"  ...........XXXXXXo..........  ",
" ............XXXXXXo........... ",
" ............XXXXXXo........... ",
" ............XXXXXXo........... ",
" ............XXXXXXo........... ",
" ............XXXXXXo........... ",
" ............XXXXXXo........... ",
" ............XXXXXXo........... ",
" ............XXXXXXo........... ",
" ............XXXXXXo........... ",
" ............XXXXXXo........... ",
"  ...........XXXXXXo..........  ",
"  ...........XXXXXXo..........  ",
"   ........XXXXXXXXXX........   ",
"   ........XXXXXXXXXXo.......   ",
"    .......XXXXXXXXXXo......    ",
"     .......oooooooooo.....     ",
"      ....................      ",
"       ..................       ",
"         ..............         ",
"           ..........           ",
"                                "};
