/* XPM */
static char * insert_xpm[] = {
/* width height ncolors cpp [x_hot y_hot] */
"24 24 4 1 0 0",
/* colors */
" 	s none	m none	c none",
".	c black",
"X	c lightgray",
"o	s iconColor5	m black	c blue",
/* pixels */
"                        ",
"                        ",
"                        ",
"            .......     ",
"          ..XXXXXXX..   ",
"         .XXXXXXXXXXX.  ",
"        .XXXXXXXXXXXXX. ",
"        .XXXXXXXXXXXXX. ",
"        ..XXXXXXXXXXX.. ",
"        .X..XXXXXXX..X. ",
"      o .XXX.......XXX. ",
"      oo.XXXXXXXXXXXXX. ",
"      oooXXXXXXXXXXXXX. ",
" oooooooooXXXXXXXXXXXX. ",
" ooooooooooXXXXXXXXXXX. ",
" ooooooooooXXXXXXXXXXX. ",
" oooooooooXXXXXXXXXXXX. ",
"      oooXXXXXXXXXXXXX. ",
"      oo.XXXXXXXXXXXXX. ",
"      o .XXXXXXXXXXXXX. ",
"         .XXXXXXXXXXX.  ",
"          ..XXXXXXX..   ",
"            .......     ",
"                        "};
