/* XPM */
static char * lib___xpm[] = {
"16 16 6 1",
" 	c None",
".	c #5743EF",
"+	c #085B08",
"@	c #777676",
"#	c #665AC4",
"$	c #000000",
"     .+  ++     ",
"     ++ @++@#+# ",
"  +.@++++++++++ ",
"  ++++$$$$$+++. ",
"   ++$@@@@@$++  ",
"   ++@@@@@@@$+++",
" +++$@@@@@@@$+++",
" +++$@@$$$@@++  ",
"   +$@@@@@@@$+  ",
" .++$@@@@@@@$+++",
" ++++$@@@@@$+++.",
" .+ ++$$$$$++   ",
"    .+++++++++  ",
"    +++ ++ +++  ",
"    .+  ++   #  ",
"                "};
