/* XPM */
static char * method_xpm[] = {
/* width height ncolors cpp [x_hot y_hot] */
"24 24 4 1 0 0",
/* colors */
" 	s none	m none	c none",
".	s iconColor1	m black	c black",
"X	c gray",
"o	s iconColor5	m black	c blue",
/* pixels */
"                        ",
"                        ",
"                        ",
"  ....................  ",
"  .XX.XXXXXXXXXXXX.XX.  ",
"  .XX.XXXXXXXXXXXX.XX.  ",
"  ....................  ",
"  .                  .  ",
"  .                  .  ",
"  .         o  o     .  ",
"  .        oX  Xo    .  ",
"  .  ..X.. o    o    .  ",
"  .  . . . o    o    .  ",
"  .  . . . o    o    .  ",
"  .  .   . o    o    .  ",
"  .  .   . oX  Xo    .  ",
"  .         o  o     .  ",
"  .                  .  ",
"  .                  .  ",
"  ....................  ",
"                        ",
"                        ",
"                        ",
"                        "};
