/* XPM */
static char * method_xpm[] = {
"22 22 97 2",
"  	c None",
". 	c #204A87",
"+ 	c #3465A4",
"@ 	c #F7F7F7",
"# 	c #F6F6F6",
"$ 	c #F5F5F5",
"% 	c #F4F4F4",
"& 	c #F3F3F3",
"* 	c #F3F2F2",
"= 	c #F2F1F2",
"- 	c #F0F0F0",
"; 	c #EFEFEF",
"> 	c #EFEEEF",
", 	c #EEEDEE",
"' 	c #EDECEC",
") 	c #EBECEB",
"! 	c #F57900",
"~ 	c #F4F5F4",
"{ 	c #F3F4F3",
"] 	c #F3F2F3",
"^ 	c #F2F2F1",
"/ 	c #EEEDED",
"( 	c #ECECEC",
"_ 	c #EBEBEB",
": 	c #EAEAEA",
"< 	c #F3F3F4",
"[ 	c #F2F2F2",
"} 	c #F1F2F2",
"| 	c #F1F1F1",
"1 	c #E9E9EA",
"2 	c #F6F7F6",
"3 	c #EAEBEB",
"4 	c #E9E9E9",
"5 	c #E8E8E8",
"6 	c #EFF0F0",
"7 	c #EFEFEE",
"8 	c #EEEEEE",
"9 	c #E9EAE9",
"0 	c #E7E7E7",
"a 	c #E7E6E6",
"b 	c #F7F7F6",
"c 	c #F5F5F6",
"d 	c #F4F3F4",
"e 	c #F2F3F3",
"f 	c #F1F0F0",
"g 	c #F0F0EF",
"h 	c #EEEEED",
"i 	c #EDEDED",
"j 	c #EBEAEA",
"k 	c #E6E6E7",
"l 	c #E6E6E6",
"m 	c #F6F5F5",
"n 	c #F5F5F4",
"o 	c #8E8E8E",
"p 	c #F2F3F2",
"q 	c #EEEFEF",
"r 	c #ECECEB",
"s 	c #EBEAEB",
"t 	c #F2F2F3",
"u 	c #ECEBEB",
"v 	c #EBEBEA",
"w 	c #E9EAEA",
"x 	c #E8E9E9",
"y 	c #E8E8E7",
"z 	c #E6E7E6",
"A 	c #F1F2F1",
"B 	c #F0F1F0",
"C 	c #EFEFF0",
"D 	c #4C4C4C",
"E 	c #B1B1B1",
"F 	c #5F5F5F",
"G 	c #525252",
"H 	c #A4A4A4",
"I 	c #BBBBBB",
"J 	c #5B5B5B",
"K 	c #535353",
"L 	c #A7A7A7",
"M 	c #F0EFEF",
"N 	c #6F6F6F",
"O 	c #CDCDCD",
"P 	c #A5A5A5",
"Q 	c #515151",
"R 	c #7C7C7C",
"S 	c #D1D1D1",
"T 	c #555555",
"U 	c #E8E7E8",
"V 	c #C4C4C4",
"W 	c #DBDBDB",
"X 	c #EDEEED",
"Y 	c #EDEDEC",
"Z 	c #EBECEC",
"` 	c #EAEAE9",
" .	c #F5F5F7",
"..	c #EAE9EA",
"+.	c #E9E8E9",
"@.	c #E8E8E9",
"#.	c #E8E7E7",
". . . . . . . . . . . . . . . . . . . . . . ",
". + + + + + + + + + + + + + + + + + + + + . ",
". + + + + + + + + + + + + + + + + + + + + . ",
". . . . . . . . . . . . . . . . . . . . . . ",
". @ @ @ @ @ @ @ @ # $ % & * = - ; > , ' ) . ",
". @ @ @ @ ! ! ! ! ~ { ] ^ / / / / / ( _ : . ",
". @ @ @ @ ! ! ! ! < [ } | / / / / ( _ : 1 . ",
". @ @ @ 2 ! ! ! ! [ | - ; / / / / 3 : 4 5 . ",
". @ @ # $ ! ! ! ! | 6 7 8 / / / / 9 5 0 a . ",
". b c $ d e [ | f g 8 h i ( j : 4 5 0 k l . ",
". m n { e o o o o 8 i ( ) ) ) ) ) k l l l . ",
". % & p } f ; q / i r s : 4 5 0 a l l l l . ",
". t } | - ; 8 i ( u v w x y z l l l l l l . ",
". A B C ; ! ! ! ! : 9 D E F G H I J K L l . ",
". - M 8 h ! ! ! ! 4 5 D N O P Q R S H T l . ",
". ; 8 i ( ! ! ! ! U a D V l O D W l O D l . ",
". X Y Z _ ! ! ! ! a l D O l O D l l O D l . ",
". ( _ v ` 4  .| 4 l l D O l O D l l O D l . ",
". v : 4 5 o o o o l l D O l O D l l O D l . ",
". ..+.5 l l l l l l l D O l O D l l O D l . ",
". @.#.z l l l l l l l l l l l l l l l l l . ",
". . . . . . . . . . . . . . . . . . . . . . "};
