/* XPM */
static char * move_xpm[] = {
/* width height ncolors cpp [x_hot y_hot] */
"25 25 3 1 0 0",
/* colors */
" 	s none	m none	c none",
".	c black",
"X	c #aaaaaa",
/* pixels */
"                         ",
"                         ",
"           ..            ",
"          ....           ",
"         ......          ",
"        ........         ",
"          ....           ",
"          ....           ",
"     .    ....     .     ",
"    ..             ..    ",
"   ...... XXXX .......   ",
"  ....... XXXX ........  ",
"  ....... XXXX ........  ",
"   ...... XXXX .......   ",
"    ..             ..    ",
"     .    ....     .     ",
"          ....           ",
"          ....           ",
"        ........         ",
"         ......          ",
"          ....           ",
"           ..            ",
"                         ",
"                         ",
"                         "};
