/* XPM */
static char * new_xpm[] = {
"22 22 138 2",
"  	c None",
". 	c #888A85",
"+ 	c #8A8B83",
"@ 	c #9D9B7B",
"# 	c #B6B06F",
"$ 	c #B9B26E",
"% 	c #B2AC70",
"& 	c #FFFFFF",
"* 	c #FEFEFA",
"= 	c #FEF9D0",
"- 	c #FCEF8E",
"; 	c #F7EE8E",
"> 	c #F6EE98",
", 	c #E4D86F",
"' 	c #DEDEDE",
") 	c #E1E1E1",
"! 	c #E0E0E0",
"~ 	c #E2E2E2",
"{ 	c #E3E3E3",
"] 	c #E4E4E4",
"^ 	c #E4E4E3",
"/ 	c #E9E5C9",
"( 	c #F3E785",
"_ 	c #F6EC8E",
": 	c #F5F2E1",
"< 	c #F6F5F3",
"[ 	c #F2ECB4",
"} 	c #FAEA5F",
"| 	c #DFDFDF",
"1 	c #E2E1E1",
"2 	c #E3E2E3",
"3 	c #E3E3E4",
"4 	c #E4E4E0",
"5 	c #EBE6BD",
"6 	c #F4E87E",
"7 	c #F5EDA2",
"8 	c #F5F4F3",
"9 	c #F6F5F5",
"0 	c #F2ECBB",
"a 	c #FAEA5C",
"b 	c #E1E2E1",
"c 	c #E5E5E4",
"d 	c #E5E5E3",
"e 	c #E9E7CA",
"f 	c #F2E893",
"g 	c #F6E980",
"h 	c #F5EFB7",
"i 	c #F6F3DE",
"j 	c #ECE485",
"k 	c #FBE951",
"l 	c #E3E3E2",
"m 	c #E5E5E5",
"n 	c #E5E6E6",
"o 	c #E7E6E6",
"p 	c #E7E7E2",
"q 	c #EAE8CC",
"r 	c #F0E8A4",
"s 	c #F5E982",
"t 	c #FAEE8D",
"u 	c #CAC169",
"v 	c #E6E6E6",
"w 	c #E4E3E4",
"x 	c #E6E6E7",
"y 	c #E7E8E8",
"z 	c #E8E8E8",
"A 	c #E9E9E7",
"B 	c #EBE9DF",
"C 	c #EDE9CE",
"D 	c #FEF9D3",
"E 	c #94947F",
"F 	c #ADAFAC",
"G 	c #E4E4E5",
"H 	c #E7E7E7",
"I 	c #E7E7E8",
"J 	c #E8E8E9",
"K 	c #E9E9EA",
"L 	c #EAEAEA",
"M 	c #EAEBEA",
"N 	c #ECECEC",
"O 	c #888A84",
"P 	c #E5E6E5",
"Q 	c #E6E6E5",
"R 	c #E7E7E6",
"S 	c #E8E9E9",
"T 	c #E9E9E9",
"U 	c #EBEBEB",
"V 	c #EDECED",
"W 	c #E7E6E7",
"X 	c #E8E7E8",
"Y 	c #EAEBEB",
"Z 	c #ECECEB",
"` 	c #ECECED",
" .	c #EDEDED",
"..	c #E8E8E7",
"+.	c #E9E9E8",
"@.	c #ECEDED",
"#.	c #EDEEEE",
"$.	c #EFEEEE",
"%.	c #E9E8E8",
"&.	c #E9E8E9",
"*.	c #EAE9EA",
"=.	c #EBEAEA",
"-.	c #EDEDEE",
";.	c #EEEEEE",
">.	c #F0F0EF",
",.	c #AEAFAD",
"'.	c #EBEAEB",
").	c #EBECEB",
"!.	c #EEEEED",
"~.	c #EFEFEF",
"{.	c #F0F0F0",
"].	c #F0F1F0",
"^.	c #EDEEED",
"/.	c #EFEEEF",
"(.	c #F1F1F1",
"_.	c #F1F1F2",
":.	c #ECEBEB",
"<.	c #EEEEEF",
"[.	c #F2F2F2",
"}.	c #F2F3F3",
"|.	c #EFF0F0",
"1.	c #F0F1F1",
"2.	c #F2F2F1",
"3.	c #F3F2F3",
"4.	c #F3F4F4",
"5.	c #F2F1F2",
"6.	c #F2F3F2",
"7.	c #F3F4F3",
"8.	c #F4F3F4",
"9.	c #F5F4F5",
"0.	c #EEEFEE",
"a.	c #F1F0F1",
"b.	c #F3F3F2",
"c.	c #F4F4F3",
"d.	c #F4F4F4",
"e.	c #F5F5F4",
"f.	c #F5F6F6",
"g.	c #868883",
"                                            ",
"    . . . . . . . . . . . . . + @ # $ %     ",
"    . & & & & & & & & & & & * = - ; > ,     ",
"    . & ' ) ! ) ~ ~ { ] ] ^ / ( _ : < [ }   ",
"    . & | ~ ) ) ) 1 ~ 2 3 4 5 6 7 8 9 0 a   ",
"    . & ! { ~ ) b ~ { ] c d e f g h i j k   ",
"    . & ) ] ] ~ l 3 ] m n o p q r s t u     ",
"    . & ~ v m { w ] m v x y z A B C D E     ",
"    . & F v v ] G v v H I J K L M N & O     ",
"    . & ] & H P Q R I z S T L U N V & .     ",
"    . & m H z W H X S T L Y U Z `  .& .     ",
"    . & v z T H ..+.T L U U N @.#.$.& .     ",
"    . & v T T %.&.*.=.Z N  .-.;.$.>.& .     ",
"    . & ,.T L T *.'.).N  .!.;.~.{.].& .     ",
"    . & H & U =.U N V ^.;./.>.{.(._.& .     ",
"    . & z L U :.N @.;.;.<.{.(.(.[.}.& .     ",
"    . & z L U `  .!.<.|.{.1.2.[.3.4.& .     ",
"    . & z U U #.<.~.~.].(.5.6.7.8.9.& .     ",
"    . & z U U 0.~.{.a._.[.b.c.d.e.f.& .     ",
"    . & & & & & & & & & & & & & & & & .     ",
"    g.. . . . . . . . . . . . . . . .       ",
"                                            "};
