/* XPM */
static char * next2_xpm[] = {
/* width height num_colors chars_per_pixel */
"24 24 4 1",
/* colors */
" 	c None",
".	c black",
"X	c #a6a6a6",
"o	c darkgreen",
/* pixels */
"                        ",
"      ...               ",
"      .XX.      .....   ",
"      .XXX.      ...    ",
"   ....XXXX.      .     ",
"   .XXXXXXXX.           ",
"   .XooooooXX.          ",
"   .XoooooooXX.         ",
"   .XooooooooXX.        ",
"   .XoooooooooXX.       ",
"   .XooooooooooXX.      ",
"   .XoooooooooooXX.     ",
"   .XoooooooooooXX.     ",
"   .XooooooooooXX.      ",
"   .XoooooooooXX.       ",
"   .XooooooooXX.        ",
"   .XoooooooXX.         ",
"   .XooooooXX.          ",
"   .XXXXXXXX.           ",
"   ....XXXX.            ",
"      .XXX.             ",
"      .XX.              ",
"      ...               ",
"                        "};
