/* XPM */
static char * next_xpm[] = {
/* width height ncolors cpp [x_hot y_hot] */
"24 24 5 1 0 0",
/* colors */
" 	s none	m none	c none",
".	s iconColor1	m black	c black",
"X	s iconColor2	m white	c white",
"o	s iconColor4	m white	c green",
"O	s iconColor5	m black	c blue",
/* pixels */
"                        ",
"                        ",
"                        ",
"                        ",
"      ..   ..           ",
"      ..   ..           ",
"     ...   ...          ",
"    .X.....X...         ",
"    .X... .X...         ",
"    ..... .....         ",
"    .X..   .X..         ",
"    .X..   .X..         ",
"    oooo   oooo         ",
"                O       ",
"                OO      ",
"     O O O O OOOOOO     ",
"                OO      ",
"                O       ",
"                        ",
"                        ",
"                        ",
"                        ",
"                        ",
"                        "};
