/* XPM */
static char * next2_xpm[] = {
"22 22 124 2",
"  	c None",
". 	c #3B7504",
"+ 	c #3A7304",
"@ 	c #588929",
"# 	c #BED9A4",
"$ 	c #669539",
"% 	c #3C7603",
"& 	c #C1DCA9",
"* 	c #B7D59B",
"= 	c #74A14A",
"- 	c #3B7404",
"; 	c #3A7504",
"> 	c #3C7705",
", 	c #BFDAA5",
"' 	c #87BB57",
") 	c #B0D290",
"! 	c #83AD5B",
"~ 	c #3B7403",
"{ 	c #C0DBA6",
"] 	c #BFDAA4",
"^ 	c #BEDAA3",
"/ 	c #BCD9A1",
"( 	c #7BB445",
"_ 	c #7CB447",
": 	c #A6CC82",
"< 	c #8DB767",
"[ 	c #3D7609",
"} 	c #BCD9A0",
"| 	c #7FB64A",
"1 	c #7EB549",
"2 	c #7DB547",
"3 	c #7AB344",
"4 	c #78B242",
"5 	c #76B13E",
"6 	c #73AF3A",
"7 	c #70AE36",
"8 	c #98C56F",
"9 	c #97BF71",
"0 	c #457C10",
"a 	c #B9D79C",
"b 	c #78B241",
"c 	c #76B13F",
"d 	c #75B03D",
"e 	c #70AD36",
"f 	c #6DAC32",
"g 	c #6AAA2D",
"h 	c #66A828",
"i 	c #89BC58",
"j 	c #9DC578",
"k 	c #4B8118",
"l 	c #B5D597",
"m 	c #6FAD34",
"n 	c #61A521",
"o 	c #66A727",
"p 	c #6BAB2D",
"q 	c #6BAD2E",
"r 	c #6AAD2B",
"s 	c #68AB27",
"t 	c #64A922",
"u 	c #5FA51C",
"v 	c #9FC678",
"w 	c #568A22",
"x 	c #3B7503",
"y 	c #A8CD85",
"z 	c #4F9A07",
"A 	c #4E9A06",
"B 	c #4F9C06",
"C 	c #52A108",
"D 	c #55A509",
"E 	c #58AA0C",
"F 	c #5EAE12",
"G 	c #60AF15",
"H 	c #61AD16",
"I 	c #5DAA13",
"J 	c #77B63A",
"K 	c #9DC775",
"L 	c #558B22",
"M 	c #3B7604",
"N 	c #A3CB7E",
"O 	c #54A308",
"P 	c #58A90A",
"Q 	c #5CAF0C",
"R 	c #5EB30D",
"S 	c #60B60E",
"T 	c #5FB40D",
"U 	c #84C447",
"V 	c #9CCA70",
"W 	c #4A8316",
"X 	c #3B7703",
"Y 	c #57A80A",
"Z 	c #5CB00C",
"` 	c #61B70E",
" .	c #65BD10",
"..	c #67C111",
"+.	c #69C213",
"@.	c #95D359",
"#.	c #98C967",
"$.	c #447D0F",
"%.	c #A4CB7E",
"&.	c #A6CF7F",
"*.	c #A9D481",
"=.	c #ACD882",
"-.	c #AFDC83",
";.	c #69C311",
">.	c #73CC1A",
",.	c #A3DF69",
"'.	c #8EC35A",
").	c #3E7709",
"!.	c #397304",
"~.	c #3D7705",
"{.	c #AEDB83",
"].	c #71C61F",
"^.	c #A7DE72",
"/.	c #7FB44A",
"(.	c #A6D676",
"_.	c #6B9F3A",
":.	c #387004",
"<.	c #A4CF7A",
"[.	c #5A8D29",
"}.	c #336602",
"|.	c #000000",
"1.	c #4E831E",
"2.	c #2F5D03",
"3.	c #376E03",
"                                            ",
"                                            ",
"                  .                         ",
"                  + @                       ",
"                  + # $ %                   ",
"                  + & * = -                 ",
"      ; + + + + + > , ' ) ! ~               ",
"      + { { { { ] ^ / ( _ : < [             ",
"      + } | | 1 2 3 4 5 6 7 8 9 0           ",
"      + a b b b c d 6 e f g h i j k         ",
"      + l m h n n o p q r s t u b v w x     ",
"      + y z A A B C D E F G H I J K L M     ",
"      + N A A B O P Q R S S T U V W X       ",
"      + N A A C Y Z `  ...+.@.#.$.          ",
"      + N N %.&.*.=.-.;.>.,.'.).            ",
"      !.+ + + + + ~.{.].^./.-               ",
"                  + =.(._.:.                ",
"                  + <.[.}.      |.|.|.|.|.  ",
"                  + 1.2.          |.|.|.    ",
"                  3.                |.      ",
"                                            ",
"                                            "};
