/* XPM */
static char * prev_xpm[] = {
"22 22 137 2",
"  	c None",
". 	c #3A7404",
"+ 	c #548825",
"@ 	c #3C7507",
"# 	c #3A7403",
"$ 	c #629234",
"% 	c #BAD69F",
"& 	c #3F770B",
"* 	c #3B7504",
"= 	c #719E45",
"- 	c #B5D498",
"; 	c #BFDAA5",
"> 	c #3C7404",
", 	c #7EAA55",
"' 	c #AFD18E",
") 	c #84B952",
"! 	c #BCD9A0",
"~ 	c #417B0B",
"{ 	c #3A7304",
"] 	c #3D7708",
"^ 	c #8BB663",
"/ 	c #A4CB7F",
"( 	c #78B242",
"_ 	c #78B241",
": 	c #B9D79D",
"< 	c #BCD9A1",
"[ 	c #BEDAA3",
"} 	c #BFDAA4",
"| 	c #C0DBA6",
"1 	c #3F760A",
"2 	c #447B0F",
"3 	c #94BC6C",
"4 	c #96C36B",
"5 	c #6DAC31",
"6 	c #6FAD34",
"7 	c #72AF39",
"8 	c #76B13E",
"9 	c #7AB344",
"0 	c #7DB547",
"a 	c #7EB549",
"b 	c #7FB64A",
"c 	c #BBD89F",
"d 	c #498016",
"e 	c #9AC374",
"f 	c #87BA55",
"g 	c #63A623",
"h 	c #66A828",
"i 	c #6AAA2D",
"j 	c #6DAC32",
"k 	c #70AD36",
"l 	c #73AF3A",
"m 	c #75B03D",
"n 	c #76B13F",
"o 	c #B8D69A",
"p 	c #3E7609",
"q 	c #3B7503",
"r 	c #548820",
"s 	c #9BC474",
"t 	c #75B13E",
"u 	c #5AA117",
"v 	c #5EA31C",
"w 	c #61A521",
"x 	c #64A725",
"y 	c #69AB2B",
"z 	c #6BAF2C",
"A 	c #6AB028",
"B 	c #67AF23",
"C 	c #6BAF29",
"D 	c #72B236",
"E 	c #B4D595",
"F 	c #3D7508",
"G 	c #3B7703",
"H 	c #548A20",
"I 	c #9AC471",
"J 	c #539D0D",
"K 	c #559E10",
"L 	c #549E0F",
"M 	c #57A40F",
"N 	c #57A70B",
"O 	c #59AB0A",
"P 	c #5BAE0B",
"Q 	c #5CB00C",
"R 	c #5AAA0B",
"S 	c #AAD384",
"T 	c #498215",
"U 	c #95C06C",
"V 	c #4E9A06",
"W 	c #52A007",
"X 	c #57A709",
"Y 	c #5FB40D",
"Z 	c #62B80E",
"` 	c #64BB0F",
" .	c #63BB0F",
"..	c #5FB30D",
"+.	c #A8D47E",
"@.	c #42790D",
"#.	c #8CB961",
"$.	c #86BB53",
"%.	c #57A50C",
"&.	c #5AAC0B",
"*.	c #68C111",
"=.	c #6BC612",
"-.	c #6AC512",
";.	c #67C111",
">.	c #63BA0F",
",.	c #AAD77F",
"'.	c #3C7508",
").	c #3C7607",
"!.	c #81B053",
"~.	c #94C663",
"{.	c #61B114",
"].	c #60B60E",
"^.	c #AEDD80",
"/.	c #B2E184",
"(.	c #B5E686",
"_.	c #B4E585",
":.	c #AFDD83",
"<.	c #ADD982",
"[.	c #3C7608",
"}.	c #3A7203",
"|.	c #75A645",
"1.	c #9DCE6F",
"2.	c #69B91C",
"3.	c #ADDB80",
"4.	c #417D09",
"5.	c #3B7304",
"6.	c #376E03",
"7.	c #669836",
"8.	c #A1D075",
"9.	c #ACD881",
"0.	c #000000",
"a.	c #336502",
"b.	c #578B25",
"c.	c #A3CE79",
"d.	c #2D5903",
"e.	c #4C811B",
"f.	c #3C7406",
"                                            ",
"                                            ",
"                        .                   ",
"                      + @                   ",
"                  # $ % &                   ",
"                * = - ; &                   ",
"              > , ' ) ! ~ { { { { { *       ",
"            ] ^ / ( _ : < [ } | | | 1       ",
"          2 3 4 5 6 7 8 ( 9 0 a b c 1       ",
"        d e f g h i j k l m n _ _ o p       ",
"    q r s t u v w x y z A B B C D E F       ",
"    G H I k J K L M N O P Q Q P R S F       ",
"      . T U 9 V W X P Y Z `  .Z ..+.F       ",
"          @.#.$.%.&.Y ` *.=.-.;.>.,.'.      ",
"            ).!.~.{.].^./.(._./.:.<.[.      ",
"              }.|.1.2.3.4.{ { { { { 5.      ",
"                6.7.8.9.[.                  ",
"  0.0.0.0.0.      a.b.c.[.                  ",
"    0.0.0.          d.e.f.                  ",
"      0.                6.                  ",
"                                            ",
"                                            "};
