/* XPM */
static char * prev_xpm[] = {
/* width height num_colors chars_per_pixel */
"24 24 4 1",
/* colors */
" 	c None",
".	c black",
"X	c #a6a6a6",
"o	c darkgreen",
/* pixels */
"                        ",
"               ...      ",
"   .....      .XX.      ",
"    ...      .XXX.      ",
"     .      .XXXX....   ",
"           .XXXXXXXX.   ",
"          .XXooooooX.   ",
"         .XXoooooooX.   ",
"        .XXooooooooX.   ",
"       .XXoooooooooX.   ",
"      .XXooooooooooX.   ",
"     .XXoooooooooooX.   ",
"     .XXoooooooooooX.   ",
"      .XXooooooooooX.   ",
"       .XXoooooooooX.   ",
"        .XXooooooooX.   ",
"         .XXoooooooX.   ",
"          .XXooooooX.   ",
"           .XXXXXXXX.   ",
"            .XXXX....   ",
"             .XXX.      ",
"              .XX.      ",
"               ...      ",
"                        "};
