/* XPM */
static char * print_xpm[] = {
/* width height ncolors cpp [x_hot y_hot] */
"24 24 4 1 0 0",
/* colors */
" 	s none	m none	c none",
".	s iconColor1	m black	c black",
"X	s iconColor6	m white	c yellow",
"o	s iconColor5	m black	c blue",
/* pixels */
"                        ",
"                        ",
"                        ",
"                        ",
"        .........       ",
"        .XXXXXXX.       ",
"        .XXXXXXX.       ",
"        .XXXXXXX.       ",
"        .XXXXXXX.       ",
"      ...XXXXXXX...     ",
"     .  .........  .    ",
"    .               .   ",
"   ...................  ",
"   .                 .  ",
"   .                 .  ",
"   .                 .  ",
"   .                 .  ",
"   .                 .  ",
"   ...................  ",
"     ooooooooooooooo    ",
"                        ",
"                        ",
"                        ",
"                        "};
