/* XPM */
static char * print_xpm[] = {
"22 22 117 2",
"  	c None",
". 	c #AFB0AE",
"+ 	c #FFFFFF",
"@ 	c #FDFDFD",
"# 	c #E1E1E1",
"$ 	c #CBCBCB",
"% 	c #8A8A88",
"& 	c #8B8B89",
"* 	c #CDCDCD",
"= 	c #CECECE",
"- 	c #E8E8E8",
"; 	c #929290",
"> 	c #939391",
", 	c #949492",
"' 	c #EAEAEA",
") 	c #8C8C8A",
"! 	c #EBEBEB",
"~ 	c #E2E2E2",
"{ 	c #E4E4E4",
"] 	c #E5E5E5",
"^ 	c #E9E9E9",
"/ 	c #ECECEC",
"( 	c #999997",
"_ 	c #A5A5A4",
": 	c #EEEEEE",
"< 	c #7D7E7B",
"[ 	c #E7E7E7",
"} 	c #C7C7C6",
"| 	c #C8C8C7",
"1 	c #EDEDED",
"2 	c #F0F0F0",
"3 	c #F2F2F2",
"4 	c #A3A3A0",
"5 	c #F1F0EE",
"6 	c #6E6E6C",
"7 	c #6C6C69",
"8 	c #878683",
"9 	c #ACABA8",
"0 	c #E4E4E3",
"a 	c #CBCBC9",
"b 	c #F7F7F7",
"c 	c #D3D3D3",
"d 	c #F0EFEE",
"e 	c #B0B0B0",
"f 	c #E7E7E6",
"g 	c #FBFBFB",
"h 	c #C3C3C3",
"i 	c #E9E9E8",
"j 	c #E8E7E7",
"k 	c #8B8B88",
"l 	c #BEBEBC",
"m 	c #959595",
"n 	c #F3F3F2",
"o 	c #BFBFBF",
"p 	c #E0E0DF",
"q 	c #F9F9F8",
"r 	c #F9F9F9",
"s 	c #FAFAFA",
"t 	c #F8F7F7",
"u 	c #F7F6F5",
"v 	c #F1F0F0",
"w 	c #7A7A77",
"x 	c #B8B8B8",
"y 	c #D4D4D4",
"z 	c #949494",
"A 	c #767574",
"B 	c #71716E",
"C 	c #6D6D6B",
"D 	c #6E6D6C",
"E 	c #6C6B69",
"F 	c #6B6968",
"G 	c #777775",
"H 	c #B4B4B4",
"I 	c #C4C4C4",
"J 	c #BABAB9",
"K 	c #ACABAA",
"L 	c #9C9C9A",
"M 	c #9E9C9A",
"N 	c #9D9C9B",
"O 	c #9C9B9A",
"P 	c #979795",
"Q 	c #8B8A88",
"R 	c #81807F",
"S 	c #838380",
"T 	c #848481",
"U 	c #858583",
"V 	c #878785",
"W 	c #8E8D8A",
"X 	c #C0C0C0",
"Y 	c #B9BAB8",
"Z 	c #B8B7B5",
"` 	c #B3B3B1",
" .	c #ABABA9",
"..	c #ABAAA9",
"+.	c #A8A8A7",
"@.	c #A6A5A4",
"#.	c #A7A7A7",
"$.	c #A6A6A6",
"%.	c #A5A4A3",
"&.	c #A3A3A1",
"*.	c #A2A2A0",
"=.	c #A1A19F",
"-.	c #9F9F9D",
";.	c #9E9E9E",
">.	c #ADADAD",
",.	c #C5C5C5",
"'.	c #9F9F9F",
").	c #8A8B88",
"!.	c #767774",
"~.	c #B7B7B5",
"{.	c #BCBCBC",
"].	c #BDBDBD",
"^.	c #BCBCBB",
"/.	c #BABAB8",
"(.	c #B5B5B4",
"_.	c #ABABAB",
":.	c #787977",
"                                            ",
"          . . . . . . . . . . . .           ",
"          . + @ @ @ @ @ @ @ @ + .           ",
"          . + # $ $ % & * = - + .           ",
"          . + # # ; > > , - ' + .           ",
"          . + # & & & & ) ) ! + .           ",
"          . + ~ { ] , , ^ ! / + .           ",
"          . + { * = ( _ ! / : + .           ",
"        < . + ] [ - } | 1 : 2 + . <         ",
"      < + . 3 ] ] ] ] ] ] ] ] 3 . 4 <       ",
"    < + 5 . 6 7 7 7 7 7 7 7 7 8 9 0 a <     ",
"  < + + b + + + + + + + + + + + + ^ ^ c <   ",
"  < d e f g h 1 / : : ! i i j i i i k l <   ",
"  < c m n o p q r g s g g t t t u v w x <   ",
"  < y z A B 6 C 6 D C C 7 7 E F B 6 G H <   ",
"  < I J K L M N N O P Q R S T U U V W H <   ",
"  < X Y Z `  ...+.+.@.#.$.%.&.*.=.-.;.>.<   ",
"  < < ,.< < < < < < < < < < < < < < '.).!.  ",
"    < ~.{.].o o o o ^.{.{.^./././.(._.<     ",
"    < < < < < < < < < < < < < < < < < :.    ",
"                                            ",
"                                            "};
