/* XPM */
static char * question_xpm[] = {
/* width height ncolors chars_per_pixel */
"32 32 4 1",
/* colors */
" 	s None c None m None",
".	c blue m black",
"X	c gray m white",
"o	c black m black",
/* pixels */
"                                ",
"                                ",
"             .......            ",
"          .............         ",
"         ...............        ",
"       ...................      ",
"      ......XXXXXXX........     ",
"     ......XXXXXXXXXX.......    ",
"     .....XXXXXXXXXXX.......    ",
"    .....XXXXXXoooXXXX.......   ",
"   ......XXXXoo....XXXX.......  ",
"   ......XXXXo.....XXXXo......  ",
"   .......XXXo.....XXXXo......  ",
"  .........ooo....XXXXXo....... ",
"  ................XXXXo........ ",
"  ..............XXXXXo......... ",
"  .............XXXXoo.......... ",
"  .............XXXXo........... ",
"  ...........XXXXXo............ ",
"  ...........XXXXXo............ ",
"   ..........XXXXXo...........  ",
"   ...........ooooo...........  ",
"   ...........................  ",
"    .........................   ",
"     .........XXX...........    ",
"     ........XXXXX..........    ",
"      ........XXXo.........     ",
"       ........oo.........      ",
"         ...............        ",
"          .............         ",
"             .......            ",
"                                "};
