/* XPM */
static char * question_xpm[] = {
"32 32 388 2",
"  	c None",
". 	c #204B86",
"+ 	c #214B87",
"@ 	c #204B87",
"# 	c #224B86",
"$ 	c #214987",
"% 	c #214A87",
"& 	c #45689C",
"* 	c #879DBF",
"= 	c #BCC9DC",
"- 	c #D4DDE9",
"; 	c #E7EBF2",
"> 	c #D5DDE9",
", 	c #BDCADC",
"' 	c #899FC0",
") 	c #466A9D",
"! 	c #224B87",
"~ 	c #6A86AF",
"{ 	c #D1DAE7",
"] 	c #F7F8FB",
"^ 	c #F7F9FB",
"/ 	c #D3DCE8",
"( 	c #6D89B1",
"_ 	c #1F4A88",
": 	c #4A6D9F",
"< 	c #CDD7E5",
"[ 	c #98ADCA",
"} 	c #6786B1",
"| 	c #5478A7",
"1 	c #42699F",
"2 	c #436A9F",
"3 	c #577AA8",
"4 	c #6A89B3",
"5 	c #9BAFCC",
"6 	c #D0D9E6",
"7 	c #4D6FA1",
"8 	c #204B89",
"9 	c #204A87",
"0 	c #708BB3",
"a 	c #EEF2F6",
"b 	c #D2DBE8",
"c 	c #6E8CB4",
"d 	c #3A6299",
"e 	c #3C659B",
"f 	c #3F679D",
"g 	c #40689E",
"h 	c #426A9F",
"i 	c #436AA0",
"j 	c #436BA0",
"k 	c #41699E",
"l 	c #7592B9",
"m 	c #EFF3F7",
"n 	c #748EB5",
"o 	c #214B88",
"p 	c #708CB3",
"q 	c #F6F8FA",
"r 	c #A7B8D1",
"s 	c #3D659A",
"t 	c #3C649B",
"u 	c #456CA1",
"v 	c #476EA2",
"w 	c #486FA3",
"x 	c #4970A4",
"y 	c #4971A4",
"z 	c #476FA3",
"A 	c #456DA2",
"B 	c #ACBDD5",
"C 	c #7590B6",
"D 	c #214C87",
"E 	c #5A7AA7",
"F 	c #F2F4F8",
"G 	c #8AA2C2",
"H 	c #396299",
"I 	c #3E669C",
"J 	c #41699F",
"K 	c #456DA1",
"L 	c #4B72A5",
"M 	c #4D74A7",
"N 	c #4E75A8",
"O 	c #4F76A9",
"P 	c #5077A9",
"Q 	c #5076A9",
"R 	c #4F76A8",
"S 	c #4E74A7",
"T 	c #4C73A6",
"U 	c #466EA2",
"V 	c #92A9C8",
"W 	c #F3F5F9",
"X 	c #5E7DA9",
"Y 	c #27508B",
"Z 	c #D9E1EB",
"` 	c #9EB1CC",
" .	c #3E679D",
"..	c #476EA3",
"+.	c #7996BA",
"@.	c #A6B8D0",
"#.	c #CFD8E4",
"$.	c #E5E9EE",
"%.	c #F5F6F7",
"&.	c #EEF0F3",
"*.	c #D7DEE8",
"=.	c #A5B8D1",
"-.	c #5E81B0",
";.	c #5278AA",
">.	c #4870A4",
",.	c #A5B8D2",
"'.	c #F8F9FB",
").	c #DCE3ED",
"!.	c #29518C",
"~.	c #849CBD",
"{.	c #CBD6E4",
"].	c #3B649A",
"^.	c #EFEFEF",
"/.	c #F2F2F2",
"(.	c #F5F5F5",
"_.	c #F7F7F7",
":.	c #F9F9F9",
"<.	c #FAFAFA",
"[.	c #E3E8ED",
"}.	c #6C8DB6",
"|.	c #557BAC",
"1.	c #5178AA",
"2.	c #4B73A5",
"3.	c #D0DAE7",
"4.	c #8BA2C1",
"5.	c #224C88",
"6.	c #254F89",
"7.	c #E5EAF2",
"8.	c #6181AD",
"9.	c #3D659C",
"0.	c #557BAD",
"a.	c #F0F0F0",
"b.	c #F3F3F3",
"c.	c #F1F3F5",
"d.	c #F3F5F7",
"e.	c #FCFCFC",
"f.	c #FBFBFB",
"g.	c #F8F8F8",
"h.	c #C1CEDD",
"i.	c #5A80B0",
"j.	c #577DAE",
"k.	c #5379AB",
"l.	c #6F8FB7",
"m.	c #E8ECF3",
"n.	c #26508B",
"o.	c #607FAA",
"p.	c #C9D4E3",
"q.	c #3B639A",
"r.	c #5177AA",
"s.	c #567CAD",
"t.	c #ECEDEE",
"u.	c #B9C8DB",
"v.	c #7F9DC3",
"w.	c #678CB9",
"x.	c #6A8DBA",
"y.	c #ADC1D9",
"z.	c #F6F6F6",
"A.	c #EBEDF0",
"B.	c #6085B4",
"C.	c #5C82B1",
"D.	c #587EAE",
"E.	c #CED9E7",
"F.	c #6583AD",
"G.	c #A4B5CF",
"H.	c #8CA4C4",
"I.	c #446CA1",
"J.	c #4A71A5",
"K.	c #5F84B3",
"L.	c #7494BD",
"M.	c #688CB9",
"N.	c #6B8FBC",
"O.	c #6E92BE",
"P.	c #6F93BF",
"Q.	c #83A2C7",
"R.	c #EDEFF0",
"S.	c #658AB8",
"T.	c #6186B5",
"U.	c #98AECC",
"V.	c #AABBD3",
"W.	c #224C89",
"X.	c #597FAF",
"Y.	c #5E84B3",
"Z.	c #6488B7",
"`.	c #688DBA",
" +	c #6D91BD",
".+	c #7194C0",
"++	c #7497C2",
"@+	c #7699C3",
"#+	c #C0CFE2",
"$+	c #D1DAE5",
"%+	c #6A8FBB",
"&+	c #6086B4",
"*+	c #5B81B1",
"=+	c #7695BB",
"-+	c #E6EBF2",
";+	c #5578A8",
">+	c #6287B5",
",+	c #7295C0",
"'+	c #7A9DC6",
")+	c #B5C8DE",
"!+	c #F2F3F3",
"~+	c #92ADCE",
"{+	c #6F93BE",
"]+	c #6A8EBB",
"^+	c #6489B7",
"/+	c #587EAF",
"(+	c #6789B4",
"_+	c #F8FAFC",
":+	c #E9EDF4",
"<+	c #486EA2",
"[+	c #5279AB",
"}+	c #7195C0",
"|+	c #769AC4",
"1+	c #7B9EC7",
"2+	c #BACCE0",
"3+	c #F4F4F4",
"4+	c #A9BFD8",
"5+	c #789BC5",
"6+	c #7396C1",
"7+	c #5D81B0",
"8+	c #577AAA",
"9+	c #547AAC",
"0+	c #5B80B0",
"a+	c #7498C2",
"b+	c #AABFD9",
"c+	c #AAC1DB",
"d+	c #82A4CB",
"e+	c #7C9FC8",
"f+	c #7094BF",
"g+	c #5D83B2",
"h+	c #6B8DB8",
"i+	c #E9EEF4",
"j+	c #6B8BB4",
"k+	c #4F75A8",
"l+	c #557CAD",
"m+	c #6388B6",
"n+	c #698EBB",
"o+	c #779AC4",
"p+	c #7DA0C8",
"q+	c #E1E6EC",
"r+	c #BCCEE3",
"s+	c #8BACD2",
"t+	c #85A7CE",
"u+	c #7FA2CA",
"v+	c #799CC5",
"w+	c #7296C1",
"x+	c #6C90BC",
"y+	c #7D9BC0",
"z+	c #D6DEEA",
"A+	c #224B88",
"B+	c #224B89",
"C+	c #A6B8D1",
"D+	c #5D82B2",
"E+	c #7FA1C9",
"F+	c #F1F1F1",
"G+	c #98B7D9",
"H+	c #8EAFD4",
"I+	c #88AAD0",
"J+	c #81A3CB",
"K+	c #7A9DC7",
"L+	c #668BB8",
"M+	c #5F85B4",
"N+	c #9FB5D1",
"O+	c #ADBED5",
"P+	c #234D8A",
"Q+	c #6381AD",
"R+	c #86A8CE",
"S+	c #8DAED3",
"T+	c #93B4D8",
"U+	c #99BADC",
"V+	c #96B6D9",
"W+	c #8FB0D5",
"X+	c #668BB9",
"Y+	c #D3DDEA",
"Z+	c #6886B0",
"`+	c #264F8B",
" @	c #E7ECF3",
".@	c #6E8EB7",
"+@	c #779BC4",
"@@	c #7EA1C9",
"#@	c #E5E7EA",
"$@	c #E6E8EB",
"%@	c #E8EAEC",
"&@	c #92B2D7",
"*@	c #87A9CF",
"=@	c #80A3CB",
"-@	c #7397C1",
";@	c #6C91BD",
">@	c #809EC3",
",@	c #F8F9FC",
"'@	c #EAEEF5",
")@	c #8AA2C1",
"!@	c #D0DAE8",
"~@	c #6287B6",
"{@	c #698DBA",
"]@	c #7599C3",
"^@	c #7C9EC7",
"/@	c #EAEAEA",
"(@	c #EBEBEB",
"_@	c #ECECEC",
":@	c #8CADD3",
"<@	c #83A6CD",
"[@	c #7EA0C9",
"}@	c #668AB8",
"|@	c #D6DFEC",
"1@	c #92A8C6",
"2@	c #244D89",
"3@	c #DDE4EE",
"4@	c #A9BCD5",
"5@	c #537AAB",
"6@	c #5A7FB0",
"7@	c #E8E8E8",
"8@	c #E9E9E9",
"9@	c #83A5CD",
"0@	c #7598C2",
"a@	c #B3C5DC",
"b@	c #F9FAFC",
"c@	c #E1E7F0",
"d@	c #2B538E",
"e@	c #5F7EAB",
"f@	c #F3F6F9",
"g@	c #9AB1CE",
"h@	c #5E83B2",
"i@	c #E0E2E5",
"j@	c #E1E4E6",
"k@	c #E2E4E6",
"l@	c #7DA0C9",
"m@	c #6B90BC",
"n@	c #A6BBD6",
"o@	c #F5F7FA",
"p@	c #6483AE",
"q@	c #234C89",
"r@	c #7893B8",
"s@	c #B5C6DB",
"t@	c #6B8FBB",
"u@	c #799CC6",
"v@	c #BDCDE1",
"w@	c #7E98BC",
"x@	c #244E8A",
"y@	c #F1F4F8",
"z@	c #DAE2ED",
"A@	c #8AA5C7",
"B@	c #7094C0",
"C@	c #95AFCF",
"D@	c #DEE6F0",
"E@	c #F2F5F9",
"F@	c #7E99BC",
"G@	c #214B85",
"H@	c #5071A1",
"I@	c #D5DEEA",
"J@	c #DCE4EE",
"K@	c #AEC1D9",
"L@	c #89A6C8",
"M@	c #7C9BC3",
"N@	c #6F93BD",
"O@	c #7194BE",
"P@	c #80A0C6",
"Q@	c #8FAACD",
"R@	c #B3C5DD",
"S@	c #DFE6F0",
"T@	c #D8E1EC",
"U@	c #5375A4",
"V@	c #214A82",
"W@	c #1B3F72",
"X@	c #234D86",
"Y@	c #7690B7",
"Z@	c #D9E2EC",
"`@	c #7A95BA",
" #	c #244C87",
".#	c #1B3968",
"+#	c #1C4073",
"@#	c #214B86",
"##	c #4D6E9F",
"$#	c #95ABC9",
"%#	c #C8D4E4",
"&#	c #DDE5EE",
"*#	c #ECF0F6",
"=#	c #ECF1F6",
"-#	c #DEE5EF",
";#	c #CAD6E5",
">#	c #98AECB",
",#	c #4E70A0",
"'#	c #1A3E6C",
")#	c #1D4174",
"!#	c #224A82",
"~#	c #224A85",
"{#	c #224B85",
"]#	c #1C3F71",
"                                                                ",
"                        . + @ @ @ @ + #                         ",
"                  $ % & * = - ; ; > , ' ) % $                   ",
"                ! ~ { ] ^ ^ ^ ^ ^ ^ ^ ^ ^ / ( !                 ",
"            _ : < ] ^ / [ } | 1 2 3 4 5 > ^ ^ 6 7 8             ",
"          9 0 a ] b c d e f g h i j j h k l - ^ m n o           ",
"        + p q ^ r s t f h u v w x y y x z A v B ^ ] C D         ",
"        E F ^ G H I J K w L M N O P Q R S T x U V ^ W X         ",
"      Y Z ] ` d  .j ..L +.@.#.$.%.&.*.=.-.;.R T >.,.'.).!.      ",
"    @ ~.] {.].I j w T P ^./.(._.:.<.:._.[.}.|.1.S 2.3.'.4.5.    ",
"    6.7.q 8.9.h z T 1.0.a.b.(.c.d.e.f.g.(.h.i.j.k.N l.^ m.n.    ",
"    o.] p.q.k U T r.s.i.t.u.v.w.x.y.e.:.z.A.B.C.D.k.S E.'.F.    ",
"  @ G.^ H.I I.J.O |.i.K.L.M.N.O.P.Q.f.:.z.R.S.T.C.j.;.U.'.V.W.  ",
"  9 6 ^ } k ..M k.X.Y.Z.`. +.+++@+#+<.g.(.$+%+S.&+*+0.=+'.- o   ",
"  @ -+^ ;+j J.P s.C.>+M. +,+@+'+)+:.:._.!+~+{+]+^+Y./+(+_+:+@   ",
"  9 ^ ^ <+A T [+X.K.S.N.}+|+1+2+_.g._.3+4+5+6+ +w.T.*+7+_+'.+   ",
"  @ -+^ 8+..S 9+0+T.M.O.a+'+b+3+(.z.3+c+d+e+|+f+]+^+g+h+_+i+o   ",
"  % { ^ j+w k+l+C.m+n+f+o+p+q+/.b.3+r+s+t+u+v+w+x+S.K.y+_+z+A+  ",
"  B+C+^ V x O s.D+^+%+}+5+E+^.F+/./.G+H+I+J+K+++ +L+M+N+_+O+P+  ",
"    Q+^ < x Q s.g+^+N.}+5+u+R+S+T+U+V+W+I+d+1+++ +X+B.Y+_+Z+    ",
"    `+ @^ .@R s.D+m+]+.++@@@#@$@%@%@&@S+*@=@'+-@;@L+>@,@'@Y     ",
"    B+)@'.!@P |.*+~@{@P.]@^@/@(@_@_@:@I+<@[@5+}+N.}@|@_+1@2@    ",
"      !.3@'.4@5@6@B.X+ +w+5+7@8@/@/@R+9@u+'+0@{+{@a@b@c@d@      ",
"        e@f@'.g@j.h@Z.n+{+++i@j@j@k@u+l@'+@+}+m@n@b@o@p@        ",
"        q@r@^ _+s@h@B.}@t@P.-@|+v+'+u@+@0@}+P.v@b@_+w@x@        ",
"          5.r@y@_+z@A@T.L+]+O.B@w+-@6+}+{+C@D@b@E@F@x@          ",
"            G@H@I@_+_+J@K@L@M@N@O@P@Q@R@S@b@b@T@U@V@            ",
"              W@X@Y@Z@_+b@b@b@b@b@b@b@b@b@J@`@ #.#              ",
"                  +#@###$#%#&#*#=#-#;#>#,## '#                  ",
"                        )#!#~#+ + {#!#]#                        ",
"                                                                ",
"                                                                "};
