/* XPM */
static char * rarrow_xpm[] = {
/* width height ncolors cpp [x_hot y_hot] */
"24 22 2 1 0 0",
/* colors */
" 	s none	m none	c none",
".	c black",
/* pixels */
"                        ",
"                        ",
"                        ",
"                        ",
"                        ",
"                        ",
"            .           ",
"            ..          ",
"            ...         ",
"            ....        ",
"      ...........       ",
"      .............     ",
"      ...........       ",
"            ....        ",
"            ...         ",
"            ..          ",
"            .           ",
"                        ",
"                        ",
"                        ",
"                        ",
"                        "};
