/* XPM */
static char * rebuild_xpm[] = {
/* width height ncolors cpp [x_hot y_hot] */
"24 24 4 1 0 0",
/* colors */
" 	s none	m none	c none",
".	s iconColor5	m black	c blue",
"X	s iconColor1	m black	c black",
"o	s iconColor2	m white	c white",
/* pixels */
"                        ",
"                        ",
"                        ",
"     .     .     .      ",
"                        ",
"     .     .     .      ",
"                        ",
"     .     .     .      ",
"   . . . . . . . . .    ",
"    ...   ...   ...     ",
"     .     .     .      ",
"   XXXXXXXXXXXXXXXXX    ",
"   XoooooooooooooooX    ",
"   Xo.o.o.o.o.o.o.oX    ",
"   XoooooooooooooooX    ",
"   Xo.o.o.o.o.o.o.oX    ",
"   XoooooooooooooooX    ",
"   XXXXXXXXXXXXXXXXX    ",
"                        ",
"                        ",
"                        ",
"                        ",
"                        ",
"                        "};
