/* XPM */
static char * save_xpm[] = {
"22 22 191 2",
"  	c None",
". 	c #3465A4",
"+ 	c #3565A4",
"@ 	c #ACC5E5",
"# 	c #B1C9E8",
"$ 	c #E68273",
"% 	c #E68071",
"& 	c #E67F70",
"* 	c #E67E6F",
"= 	c #E57D6E",
"- 	c #E57C6C",
"; 	c #E57B6B",
"> 	c #E57969",
", 	c #E47868",
"' 	c #E47666",
") 	c #E47565",
"! 	c #E47564",
"~ 	c #E47463",
"{ 	c #E37261",
"] 	c #E37160",
"^ 	c #E3705F",
"/ 	c #9FB9DD",
"( 	c #96B2D9",
"_ 	c #AEC6E6",
": 	c #729DD5",
"< 	c #D31E03",
"[ 	c #6D95CD",
"} 	c #9AB6DC",
"| 	c #ABC4E4",
"1 	c #6F9AD3",
"2 	c #EDA297",
"3 	c #6993CB",
"4 	c #97B3DA",
"5 	c #A8C1E3",
"6 	c #6F99D1",
"7 	c #FFFFFF",
"8 	c #6991CA",
"9 	c #94B1D8",
"0 	c #A5BFE1",
"a 	c #6D97CF",
"b 	c #F9F9F9",
"c 	c #DEDEDE",
"d 	c #688FC8",
"e 	c #92AED6",
"f 	c #A3BDE0",
"g 	c #6C95CE",
"h 	c #678EC6",
"i 	c #8EABD5",
"j 	c #9FBADF",
"k 	c #6B94CC",
"l 	c #668CC5",
"m 	c #8BA9D3",
"n 	c #9DB8DD",
"o 	c #6A92CB",
"p 	c #FCFCFC",
"q 	c #648BC3",
"r 	c #88A5D1",
"s 	c #9AB5DB",
"t 	c #6991C9",
"u 	c #6389C2",
"v 	c #85A2CE",
"w 	c #97B2D9",
"x 	c #678FC8",
"y 	c #6287C0",
"z 	c #82A0CD",
"A 	c #95B0D7",
"B 	c #668DC6",
"C 	c #648CC5",
"D 	c #638BC5",
"E 	c #638AC4",
"F 	c #628AC3",
"G 	c #6289C3",
"H 	c #6189C2",
"I 	c #6188C2",
"J 	c #6188C1",
"K 	c #6087C1",
"L 	c #6087C0",
"M 	c #6086C0",
"N 	c #5F86C0",
"O 	c #5F85BF",
"P 	c #5F85BE",
"Q 	c #5E84BE",
"R 	c #6085BF",
"S 	c #7E9CCA",
"T 	c #91ADD5",
"U 	c #658CC4",
"V 	c #5C7293",
"W 	c #525252",
"X 	c #5A7092",
"Y 	c #5E84BD",
"Z 	c #5D83BD",
"` 	c #5D82BC",
" .	c #5F83BD",
"..	c #7B9AC8",
"+.	c #8EABD3",
"@.	c #648AC3",
"#.	c #525353",
"$.	c #A1A1A1",
"%.	c #AFAFAF",
"&.	c #B4B4B4",
"*.	c #B8B8B8",
"=.	c #BDBDBD",
"-.	c #C2C2C2",
";.	c #C6C6C6",
">.	c #CACACA",
",.	c #C4C4C4",
"'.	c #AEAEAE",
").	c #5C82BC",
"!.	c #5C81BB",
"~.	c #5D81BB",
"{.	c #7997C6",
"].	c #8BA7D2",
"^.	c #6388C1",
"/.	c #B5B5B5",
"(.	c #B9B9B9",
"_.	c #C9C9C9",
":.	c #BCBCBC",
"<.	c #B6B6B6",
"[.	c #5A7FB9",
"}.	c #5B80BA",
"|.	c #5B7FB9",
"1.	c #5C81BA",
"2.	c #7593C3",
"3.	c #88A4CF",
"4.	c #6187C0",
"5.	c #BFBFBF",
"6.	c #BABABA",
"7.	c #A7A7A7",
"8.	c #5A7FB8",
"9.	c #5A7EB8",
"0.	c #597EB8",
"a.	c #5B7FB8",
"b.	c #7290C2",
"c.	c #86A3CE",
"d.	c #ACACAC",
"e.	c #A6A6A6",
"f.	c #9F9F9F",
"g.	c #999999",
"h.	c #939393",
"i.	c #587CB5",
"j.	c #597DB7",
"k.	c #587CB6",
"l.	c #597CB6",
"m.	c #6E8DBF",
"n.	c #829FCC",
"o.	c #6085BD",
"p.	c #BEBEBE",
"q.	c #9E9E9E",
"r.	c #989898",
"s.	c #919191",
"t.	c #8B8B8B",
"u.	c #858585",
"v.	c #525253",
"w.	c #577AB4",
"x.	c #577BB5",
"y.	c #587BB4",
"z.	c #6B8ABD",
"A.	c #6689BD",
"B.	c #7A98C7",
"C.	c #5E82BB",
"D.	c #B0B0B0",
"E.	c #A9A9A9",
"F.	c #909090",
"G.	c #898989",
"H.	c #838383",
"I.	c #7D7D7D",
"J.	c #767676",
"K.	c #5779B2",
"L.	c #5679B3",
"M.	c #6887BA",
"N.	c #3566A4",
"O.	c #6185BA",
"P.	c #A0A0A0",
"Q.	c #8E8E8E",
"R.	c #878787",
"S.	c #818181",
"T.	c #7A7A7A",
"U.	c #747474",
"V.	c #6E6E6E",
"W.	c #6B6B6B",
"X.	c #535354",
"Y.	c #6987B8",
"Z.	c #6A88BB",
"`.	c #6A88BA",
" +	c #6282B7",
".+	c #525254",
"++	c #525354",
"@+	c #515253",
"#+	c #3463A0",
"$+	c #3464A3",
"%+	c #3465A3",
"  . . . . . . . . . . . . . . . . . . . +   ",
". @ # $ % & * = - ; > , ' ) ! ~ { ] ^ / ( . ",
". _ : < < < < < < < < < < < < < < < < [ } . ",
". | 1 2 2 2 2 2 2 2 2 2 2 2 2 2 2 2 2 3 4 . ",
". 5 6 7 7 7 7 7 7 7 7 7 7 7 7 7 7 7 7 8 9 . ",
". 0 a 7 7 b c c c c c c c c c c 7 7 7 d e . ",
". f g 7 7 7 7 7 7 7 7 7 7 7 7 7 7 7 7 h i . ",
". j k 7 7 7 7 7 7 7 7 7 7 7 7 7 7 7 7 l m . ",
". n o 7 7 p c c c c c c c c c c 7 7 7 q r . ",
". s t 7 7 7 7 7 7 7 7 7 7 7 7 7 7 7 7 u v . ",
". w x 7 7 7 7 7 7 7 7 7 7 7 7 7 7 7 7 y z . ",
". A B C D D E F G H I J K L M N O P Q R S . ",
". T U E V W W W W W W W W W W X Y Z `  .... ",
". +.@.H #.$.%.&.*.=.-.;.>.,.'.W ).!.!.~.{.. ",
". ].^.K W /.(.W W W _.-.:.<.%.W [.}.|.1.2.. ",
". 3.4.O W 5.,.W W W 6.&.'.7.$.W 8.9.0.a.b.. ",
". c.R Q W _.;.W W W d.e.f.g.h.W i.j.k.l.m.. ",
". n.o.` W p.*.W W W q.r.s.t.u.v.w.x.w.y.z.. ",
"+ A.B.C.W D.E.W W W F.G.H.I.J.v.K.L.L.K.M.. ",
"  N.O.{.W P.g.h.Q.R.S.T.U.V.W.X.Y.Z.`.M. +. ",
"    + . .+++++++++++++@+@+@+@+.+#+$+%+. . + ",
"                                            "};
