/* XPM */
static char * search_xpm[] = {
/* width height ncolors cpp [x_hot y_hot] */
"24 24 5 1 0 0",
/* colors */
" 	s none	m none	c none",
".	s iconColor1	m black	c black",
"X	c #aaaaaa",
"o	s iconColor2	m white	c white",
"O	s iconColor7	m white	c cyan",
/* pixels */
"                        ",
"                        ",
"                        ",
"         .....          ",
"        .XoXoX.         ",
"       .XoXoXoX.        ",
"      .XoooooXoX.       ",
"      .oXoooXoXX.       ",
"      .XoooooXoX.       ",
"      .oXoXoXOOO.       ",
"      .XoXoXoOOX.       ",
"      ..XoXoOOO.        ",
"     .o..XXXXX.         ",
"    .o........          ",
"   .o...                ",
"  .o...                 ",
"   ...      ..  ..  ..  ",
"    .       ..  ..  ..  ",
"                        ",
"                        ",
"                        ",
"                        ",
"                        ",
"                        "};
