/* XPM */
static char * shadowman_xpm[] = {
"70 56 17 1",
" 	c None",
".	c #D50101",
"+	c #A10000",
"@	c #5D5E5E",
"#	c #620000",
"$	c #B6B5B5",
"%	c #D8D1D1",
"&	c #F4F3F3",
"*	c #8E8E8E",
"=	c #200404",
"-	c #E99191",
";	c #E8E4E4",
">	c #DE5858",
",	c #323333",
"'	c #000000",
")	c #FFFFFF",
"!	c #CC0000",
"''''''''''''''''''''''''''''''''''''''''''''''''''''''!!!!!!!!!!!!!!!!",
"''''''''''#.!#'#!.......!!!!!!!...!!!!!!!='''''''''''''#!!!!!!!!!!!!!!",
"''''''''''+.!=''=##====#+!!!!!!!!!!!!!!!.#''''''''''''''#!!!!!!!!!!!!!",
"'''''''''=+..#''''''''''#!!!!!!!!!!!!!!!.+'''''''''''''''+!!!!!!!!!!!!",
"'''''''''=!!!!#''''=####+!!!!!!!!!!!!!!!!!#''''''''''''''#!!!!!!!!!!!!",
"'''''''''#.!!.!#'#+!.....!!!!!!!!!!!!!!!!.+'''''''''''''''+!!!!!!!!!!!",
"'''''''''#.!!!.!+!..!!!!!!!!!!!!!!!!!!!!!.!=''''''''''''''=!!!!!!!!!!!",
"'''''''''#.!!!!!.!!!!!!!!!!!!!!!!!!!!!!!!!.#'''''''''''''''#!!!!!!!!!!",
"'''''''''=!.!!!!!!!!!!!!!!!!!!!!!!!!!!!!!!.+'''''''''''''''=!!!!!!!!!!",
"#++!!!!+='#..!!!!!!!!!!!!!!!!!!!!!!!!!!!!!!!='''''''''''''''+!!!!!!!!!",
"....!!.!=''#+..!!!!!!!!!!!!!!!!!!!!!!!!!!!!.#'''''''''''''''#!!!!!!!!!",
"!!!!!!.+''''=#+!...!!!!!!!!!!!!!!!!!!!!!!!!.+'''''''''''''''=+!!!!!!!!",
"!!!!!!!!=''''''=#++!...!!!!!!!!!!!!!!!!!!!!.+''''''''''''''''#!!!!!!!!",
"!!!!!!!.#'''''''''==##+!..!!!!!!!!!!!!!!!!!.+''''''''''''''''#!!!!!!!!",
"!!!!!!!!!#''''''''''''==#+.!!!!!!!!!!!!!!!!.+'#+#='''''''''''=+!!!!!!!",
"!!!!!!!!!.#='''''''''''''=+.!!!!!!!!!!!!!!!.#'+..!+#''''''''''+!!!!!!!",
"!!!!!!!!!!.+#'''''''''''''=!!!!!!!!!!!!!!!!!=#!!!!.!+=''''''''#!!!!!!!",
"!!!!!!!!!!!.!+#='''''''''''+.!!!!!!!!!!!!!.+#!!!!!!!.!='''''''#!!!!!!!",
"!!!!!!!!!!!!!..+#='''''''''#.!!!!!!!!!!!!!!!!!!!!!!!!.!=''''''=!!!!!!!",
".!!!!!!!!!!!!!!..!+#=''''''=+.!!!!!!!!!!!!!!!!!!!!!!!!.+''''''=!!!!!!!",
"+.!!!!!!!!!!!!!!!!..!+##='''=!.!!!!!!!!!!!!!!!!!!!!!!!!!='''''=+!!!!!!",
"=#!.!!!!!!!!!!!!!!!!...!!+###!!!!!!!!!!!!!!!!!!!!!!!!!!.#'''''=+!!!!!!",
"''#!.!!!!!!!!!!!!!!!!!!!!....!!!!!!!!!!!!!!!!!!!!!!!!!!.#''''''+!!!!!!",
"'''=+!.!!!!!!!!!!!!!!!!!!!!!!!!!!!!!!!!!!!!!!!!!!!!!!!!!=''''''+!!!!!!",
"'''''#+..!!!!!!!!!!!!!!!!!!!!!!!!!!!!!!!!!!!!!!!!!!!!!!+=''''''+!!!!!!",
"''''''=#!.!!!!!!!!!!!!!!!!!!!!!!!!!!!!!!!!!!!!!!!!!!!!.#'''''''+!!!!!!",
"''''''''=#!..!!!!!!!!!!!!!!!!!!!!!!!!!!!!!!!!!!!!!!!!.!=''''''=+!!!!!!",
"''''',**@==+!..!!!!!!!!!!!!!!!!!!!!!!!!!!!!!!!!!!!!!!.#'''''''=+!!!!!!",
"'''',&)))%,'=#+..!!!!!!!!!!!!!!!!!!!!!!!!!!!!!!!!!!!.#''''''''=!!!!!!!",
"''''$)))))%=''=#+!...!!!!!!!!!!!!!!!!!!!!!!!!!!!!!.!#'''''''''=!!!!!!!",
"''''$))))))*'''''=#+!..!!!!!!!!!!!!!!!!!!!!!!!!!..+=''''''''''#!!!!!!!",
"''''$))))))&@@$*''''=#+!...!!!!!!!!!!!!!!!!!!...+#''''''''''''#!!!!!!!",
"''''@)))))))&&))@'''''==#++!!!.............!!+#=''''''''''''''+!!!!!!!",
"=='''*))))))))));,'''''''''=###+++++++++++##='''''''''''''''''+!!!!!!!",
"%$@'''$))))))))));,''''''''''''''=''''=''''''''''''''''''''''=!!!!!!!!",
")))@'',%))))))))))&@'''''''''''''''''''''''''''''''''''''''''#!!!!!!!!",
")));,''=*)))))))))))$@,==,,@****,,@$$@,,@$$'''''''''''''''''=+!!!!!!!!",
"))))%@,=*)))))))))))));$%;&)))))&;))))&&))*'''''''''''''''''=!!!!!!!!!",
"))))));%)))))))))))))))))))))))))))))))))&@'''''''''''''''''#!!!!!!!!!",
")))))))))))))))))))))))))))))))))))))))))%'''''''''''''''''=!!!!!!!!!!",
"))))))))))))))))))))))))))))&&)))&&))))))$'''''''''''''''''#!!!!!!!!!!",
")))))))))))))))))))))))))))$,,*&%,$))))))$''''''''''''''''=+!!!!!!!!!!",
")))))))))))))))))))))))))))*''',='$))))))*''''''''''''''''#!!!!!!!!!!!",
")))))))))))))))))))))))))));**,''*&))))))@''''''',,,@,,,'=!!!!!!!!!!!!",
"))))))))))))))))))))))))))))))%$%)))))))$''''=@$%;;&)&;;$+!!!!!!!!!!!!",
")))))))))))))))))))))))))))))))))))))));,''''*))))))))))-!!!!!!!!!!!!!",
")))))))))))))))))))))))))))))))))))))))@''''=$)))))))))%.!!!!!!!!!!!!!",
"))))))))))))))))))))))))))))))))))))))*''',*%)))))))));.!!!!!!!!!!!!!!",
")))))))))))))))))))))))))))))))))))))%='=*&))))))))))&>!!!!!!!!!!!!!!!",
"))))))))))))))))))))))))))))))))))))&@'=$))))))))))))>!!!!!!!!!!!!!!!!",
"))))))))))))))))))))))))))))))))))))*''$))))))))))))>!!!!!!!!!!!!!!!!!",
")))))))))))))))))))))))))))))))))))$'=*)))))))))))&>!!!!!!!!!!!!!!!!!!",
"))))))))))))))))))))))))))))))))))&**%)))))))))));>!!!!!!!!!!!!!!!!!!!",
"))))))))))))))))))))))))))))))))))))))))))))))))%>!!!!!!!!!!!!!!!!!!!!",
")))))))))))))))))))))))))))))))))))))))))))))))-.!!!!!!!!!!!!!!!!!!!!!",
")))))))))))))))))))))))))))))))))))))))))))))%>!!!!!!!!!!!!!!!!!!!!!!!"};
