/* XPM */
static char * shadowman_xpm[] = {
"55 55 318 2",
"  	c None",
". 	c #26AACA",
"+ 	c #35B1CF",
"@ 	c #41B3D0",
"# 	c #58BCD6",
"$ 	c #50B9D4",
"% 	c #2EADCC",
"& 	c #42B4D1",
"* 	c #AEDDEA",
"= 	c #E8F5F9",
"- 	c #F3FAFC",
"; 	c #F0F8FB",
"> 	c #D4EDF4",
", 	c #75C7DD",
"' 	c #2AABCB",
") 	c #41B3D1",
"! 	c #D7EEF5",
"~ 	c #FEFFFF",
"{ 	c #FFFFFF",
"] 	c #F6FBFD",
"^ 	c #90D2E4",
"/ 	c #B3DFEC",
"( 	c #F1F9FB",
"_ 	c #55BBD5",
": 	c #2FADCC",
"< 	c #F7FBFD",
"[ 	c #A2D9E8",
"} 	c #55B9D5",
"| 	c #C9E7F1",
"1 	c #27AACA",
"2 	c #34AFCD",
"3 	c #3BB2CF",
"4 	c #3AB2CF",
"5 	c #28ABCA",
"6 	c #4CB7D3",
"7 	c #BFE4EF",
"8 	c #2DADCC",
"9 	c #33AFCD",
"0 	c #2DACCC",
"a 	c #31AECC",
"b 	c #8CD0E2",
"c 	c #E2F1F7",
"d 	c #FDFEFE",
"e 	c #E1F2F7",
"f 	c #8AD0E2",
"g 	c #32AECD",
"h 	c #FCFEFE",
"i 	c #86CFE2",
"j 	c #2BACCB",
"k 	c #70C5DB",
"l 	c #C0E5EF",
"m 	c #DFF0F6",
"n 	c #DEF0F6",
"o 	c #BDE4EF",
"p 	c #65C2DA",
"q 	c #29ABCB",
"r 	c #30AECC",
"s 	c #B8E1ED",
"t 	c #B4DFEC",
"u 	c #31ADCC",
"v 	c #89CFE2",
"w 	c #FDFEFF",
"x 	c #DFF1F7",
"y 	c #39B1CE",
"z 	c #34AFCE",
"A 	c #B5E1ED",
"B 	c #9CD6E6",
"C 	c #87CDE1",
"D 	c #7DC9DF",
"E 	c #FBFDFE",
"F 	c #DDF1F6",
"G 	c #58BDD7",
"H 	c #99D6E6",
"I 	c #72C7DD",
"J 	c #35AECD",
"K 	c #CFEAF3",
"L 	c #C1E6F0",
"M 	c #60C0D8",
"N 	c #A4DBE9",
"O 	c #C7E8F1",
"P 	c #BCE4EF",
"Q 	c #84CEE1",
"R 	c #3DB2D0",
"S 	c #E6F5F9",
"T 	c #31AECD",
"U 	c #3EB3D0",
"V 	c #3DB2CF",
"W 	c #28ABCB",
"X 	c #2CACCB",
"Y 	c #63C0D8",
"Z 	c #39B1CF",
"` 	c #3CB1CF",
" .	c #DDF0F6",
"..	c #D8EFF5",
"+.	c #35AFCE",
"@.	c #69C3DA",
"#.	c #F9FCFD",
"$.	c #FEFEFF",
"%.	c #AFDFEB",
"&.	c #ABDCEA",
"*.	c #4AB7D2",
"=.	c #3AB1CF",
"-.	c #57BCD6",
";.	c #EBF6FA",
">.	c #36B0CE",
",.	c #53BBD5",
"'.	c #E7F5F9",
").	c #54BBD5",
"!.	c #67C2D9",
"~.	c #CAE9F2",
"{.	c #E9F6F9",
"].	c #D7EFF5",
"^.	c #7FCCE0",
"/.	c #2CACCC",
"(.	c #CEEBF3",
"_.	c #B3E1ED",
":.	c #EAF6FA",
"<.	c #E4F4F8",
"[.	c #6BC4DB",
"}.	c #49B6D2",
"|.	c #F2FAFC",
"1.	c #62C1D9",
"2.	c #65C2D9",
"3.	c #ECF7FA",
"4.	c #E2F3F8",
"5.	c #43B5D1",
"6.	c #4FB8D4",
"7.	c #A0D7E7",
"8.	c #C2E5F0",
"9.	c #C2E5EF",
"0.	c #97D4E5",
"a.	c #4AB7D3",
"b.	c #47B7D2",
"c.	c #74C7DD",
"d.	c #55BCD6",
"e.	c #30ADCC",
"f.	c #7ACBDF",
"g.	c #40B4D0",
"h.	c #6AC4DA",
"i.	c #DAF0F6",
"j.	c #F8FCFD",
"k.	c #D1ECF3",
"l.	c #84CDE0",
"m.	c #B6E1EC",
"n.	c #7CCBDF",
"o.	c #AEDDEB",
"p.	c #7ECCE0",
"q.	c #E5F3F8",
"r.	c #56BCD6",
"s.	c #38B1CF",
"t.	c #7FCDE0",
"u.	c #84CFE1",
"v.	c #31AFCD",
"w.	c #52BBD5",
"x.	c #F4FAFC",
"y.	c #7ECBDF",
"z.	c #4CB8D4",
"A.	c #EDF8FB",
"B.	c #F5FBFC",
"C.	c #68C3DA",
"D.	c #60BFD7",
"E.	c #FAFDFE",
"F.	c #D8EFF6",
"G.	c #37B1CE",
"H.	c #86CEE1",
"I.	c #BEE5F0",
"J.	c #6CC5DC",
"K.	c #ECF6FA",
"L.	c #96D5E5",
"M.	c #45B6D2",
"N.	c #6DC5DB",
"O.	c #9CD8E8",
"P.	c #8FD2E3",
"Q.	c #38B1CE",
"R.	c #CAE9F1",
"S.	c #F2F9FC",
"T.	c #4BB8D4",
"U.	c #B8E2ED",
"V.	c #42B4D0",
"W.	c #7DCCDF",
"X.	c #ADDDEA",
"Y.	c #A1D9E8",
"Z.	c #6FC6DB",
"`.	c #C7E8F2",
" +	c #A8DCEA",
".+	c #53BAD5",
"++	c #50BAD5",
"@+	c #ACDFEB",
"#+	c #8CD1E2",
"$+	c #35B0CE",
"%+	c #89CFE1",
"&+	c #EEF8FB",
"*+	c #D5EEF4",
"=+	c #5FBFD7",
"-+	c #30AECD",
";+	c #44B5D1",
">+	c #4FB9D3",
",+	c #7CCADE",
"'+	c #E1F3F7",
")+	c #48B7D2",
"!+	c #A0D9E8",
"~+	c #E5F4F9",
"{+	c #EDF7FA",
"]+	c #C3E6F0",
"^+	c #52BAD4",
"/+	c #35AFCD",
"(+	c #A7DBE8",
"_+	c #7DCBDF",
":+	c #62C0D8",
"<+	c #DFF2F7",
"[+	c #BBE3EE",
"}+	c #EAF6F9",
"|+	c #81CBDF",
"1+	c #45B5D0",
"2+	c #92D3E4",
"3+	c #B6E2ED",
"4+	c #A2DAE8",
"5+	c #4DB9D4",
"6+	c #AFDFEC",
"7+	c #E2F3F7",
"8+	c #6AC3DA",
"9+	c #A9DCE9",
"0+	c #59BDD6",
"a+	c #EFF8FB",
"b+	c #9DD7E6",
"c+	c #37B0CE",
"d+	c #EEF8FA",
"e+	c #2FAECC",
"f+	c #59BED6",
"g+	c #AFDEEB",
"h+	c #C1E5EF",
"i+	c #79C9DE",
"j+	c #98D5E5",
"k+	c #77CADE",
"l+	c #51BAD4",
"m+	c #A8DDEA",
"n+	c #AEDFEB",
"o+	c #2AACCB",
"p+	c #A6DBE8",
"q+	c #71C6DB",
"r+	c #A8DBE9",
"s+	c #E0F2F7",
"t+	c #3FB3D0",
"u+	c #56BBD5",
"v+	c #F2F9FB",
"w+	c #99D5E5",
"x+	c #A7DCE9",
"y+	c #D3ECF4",
"z+	c #CBE8F1",
"A+	c #47B5D1",
"B+	c #8BD1E2",
"C+	c #C8E8F1",
"D+	c #A0D9E7",
"E+	c #4CB9D4",
"F+	c #A4DBE8",
"G+	c #E5F4F8",
"H+	c #6EC5DB",
"I+	c #D0EBF3",
"J+	c #EAF7FA",
"K+	c #94D5E5",
"L+	c #9DD8E8",
"M+	c #80CCDF",
"N+	c #BFE5EF",
"O+	c #9CD7E6",
"P+	c #EEF7FA",
"Q+	c #C4E7F0",
"R+	c #79CADE",
"S+	c #8BD0E2",
"T+	c #5EBFD7",
"U+	c #F9FDFE",
"V+	c #47B6D1",
"W+	c #4BB8D3",
"X+	c #4DB8D3",
"Y+	c #B9E3ED",
"Z+	c #D6EEF4",
"`+	c #72C6DC",
" @	c #D7EEF4",
".@	c #F6FBFC",
"+@	c #75C8DC",
"@@	c #A7DBE9",
"#@	c #3CB2CF",
"$@	c #8ED1E3",
"%@	c #32AFCD",
"&@	c #3EB3CF",
"*@	c #7ECBDE",
"=@	c #B2E0EC",
"-@	c #E3F2F7",
";@	c #EEF7FB",
">@	c #82CDE0",
",@	c #58BCD5",
"'@	c #5FC0D8",
")@	c #E9F6FA",
"!@	c #B1DFEB",
"~@	c #9FD9E7",
"{@	c #D4EEF4",
"]@	c #81CCE0",
"^@	c #39B0CE",
"/@	c #5DBFD7",
"(@	c #C9E9F2",
"_@	c #E9F5F9",
":@	c #64C2D9",
"<@	c #3AB1CE",
"[@	c #CEEAF2",
"}@	c #61C1D8",
"|@	c #AEDEEA",
"1@	c #FCFDFE",
"2@	c #D2ECF3",
"3@	c #47B6D2",
"4@	c #4CB8D3",
"5@	c #70C5DA",
"6@	c #76C6DB",
"7@	c #5BBDD6",
"8@	c #36AFCD",
"9@	c #89D0E2",
"0@	c #D5EDF4",
"a@	c #85CEE1",
"b@	c #BEE4EF",
"c@	c #40B3D0",
". . . . . . . . . . . . . . . . . . . . . . . . . . . . . . . . . . . . . . . . . . . . . . . . . . . . . . + ",
". . . . . . . . . . . . . . . . . . . . . . . . . . . . . . . . . . . . . . . . . . . . . . . . . . . . . . . ",
". . . . . . . . . . . . . . . . . . . . . . . . . @ # $ % . . . . . . . . . . . . . . . . . . . . . . . . . . ",
". . . . . . . . . . . . . . . . . . . . . . . & * = - ; > , ' . . . . . . . . . . . . . . . . . . . . . . . . ",
". . . . . . . . . . . . . . . . . . . . . . ) ! ~ { { { { ] ^ . . . . . . . . . . . . . . . . . . . . . . . . ",
". . . . . . . . . . . . . . . . . . . . . . / ~ { { { { { { ( _ . . . . . . . . . . . . . . . . . . . . . . . ",
". . . . . . . . . . . . . . . . . . . . . : < { { { { { { { ~ [ . . . . . . . . . . . . . . . . . . . . . . . ",
". . . . . . . . . . . . . . . . . . . . . } { { { { { { { { { | . . . . . . . . . . . . . . . . . . . . . . . ",
". . . . . . . . . 1 2 3 4 2 5 . . . . . . 6 { { { { { { { { { 7 . . . . . . . 8 2 9 0 . . . . . . . . . . . . ",
". . . . . . . . a b c { d e f g . . . . . . = { { { { { { { h i . . . . . j k l m n o p q . . . . . . . . . . ",
". . . . . . . r s { { { { { { t u . . . . . v w { { { { { { x y . . . . z A h { { { { w B q . . . . . . . . . ",
". . . . . . . C { { { { { { { h D . . . . . . B E { { { { F G . . . . . H w { { { { { { { I . . . . . . . . . ",
". . . . . . J K { { { { { { { { L . . . . . . q M N O P Q R . . . . . & S { { { { { { { { > T . . . . . . . . ",
". . . . . . U e { { { { { { { { x V . . . . . . . W % X . . . . . . . Y < { { { { { { { { ] Z . . . . . . . . ",
". . . . . . `  .{ { { { { { { { ..+.. . . . . . . . . . . . . . . . . @.#.{ { { { { { { { $.4 . . . . . . . . ",
". . . . . . q %.{ { { { { { { { &.. . . . . . . . : *.=.. . . . . . . -.- { { { { { { { { ;.>.. . . . . . . . ",
". . . . . . . ,.( { { { { { { '.).. . . . . . . !.~.{.].^./.. . . . . 8 (.{ { { { { { { { _./.. . . . . . . . ",
". . . . . . . ' D :.{ { { ~ <.[.W . . . . . . }.= { { { |.1.. . . . . . 2.3.{ { { { { { 4.5.. . . . . . . . . ",
". . . . . . . . 5 6.7.8.9.0.a.. . ' b.c.d.e.. f.w { { { { &.. 1 3 g.9 1 . h.i.#.{ { j.k.a.. . . . . . . . . . ",
". . . . . . . . . . . . . . . . q l.- { h m.X n.w { { { { o.' p.q.( (.r.1 . s.h.t.u.2.v.. . . . . . . . . . . ",
". . . . . . . . . . . . . . . . w.x.{ { { { y.z.A.{ { { B.C.D.E.{ { { F.G.. . . . . . . . . . . . . . . . . . ",
". . . . . . . . . . . . . . . . H.{ { { { { I.' J.4.~ K.y.. L.{ { { { { M.. . . . . . . . . . . . . . . . . . ",
". . . . . . . . . . . . . . . . N.h { { { { O.1 . . . . . . P.{ { { { E.5.. . . . . . . . . . . . . . . . . . ",
". . . . . . . . . . . . . . . . Q.R.{ { { S.}.. . . . . . . T.K.{ { { U.: . . . . . . . V.W.X.Y.Z.g . . . . . ",
". . . . . . . . . . . . . . . . . U H `. +.+. . . . . . . . 1 ++Y.@+#+$+. . . . . . q %+&+$.{ { E *+=+. . . . ",
". . . . . . . . . . . . . . . . . . 1 -+W . . . . . . . . . . . . . . ;+>+X . . . 5 ,+E.{ { { { { { '+)+. . . ",
". . . . . . . . . . . . . . . . . . . . . . . . . . . . . . . . . -+!+~+{+]+^+. . /+4.{ { { { { { { ~ (+. . . ",
". . . . . . . . . . . . . . . . . . . . . . . . . . . . . . . . . _+E { { { L 0 . :+~ { { { { { { { { <+8 . . ",
". . . . . . . . . . . . . . . . . . . . . . . . . . . . . . . . . [+{ { { { }+*.. |+{ { { { { { { { { 3.1+. . ",
". . . . . . . . . . . . . . . . . . . . . T 2+3+4+5+1 . . . . . . 6+{ { { { 7+V.. 8+{ { { { { { { { { 4.e.. . ",
". . . . . . . . . . . . . . . . . . . . q 9+{ { { ..U . . . . . . 0+a+{ { E b+. . c+d+{ { { { { { { { U.. . . ",
". . . . . . . . . . . . . . . . . . . . e+- { { { { I . . . . . 5 W f+g+h+i+a . . q j+$.{ { { { { { {+).. . . ",
". . . . . . . . . . . . . . . . . . . . e+] { { { { k+. . . . l+m+n+k o+. . . . . . q p+{ { { { { d+q+. . . . ",
". . . . . . . . . . . . . . . . . . . . q r+{ { { s+t+. . . u+v+{ { { w+' . . . . . . . :+x+y+z+2+A+. . . . . ",
". . . . . . . . . . . . . . . . . . . . . ' B+C+D+E+1 . . . F+{ { { { G+3 . . . . . . . . 5 X j 1 . . . . . . ",
". . . . . . . . . . . . . . . H+I+J+<+K+9 . . % 1 . . . . . @+{ { { { 3.U . . . . . . . . . . . . . . . . . . ",
". . . . . . . . . . . . . . @.&+{ { { E L+. . . . . . . . . M+$.{ { { N+e.. . . . . . . . . . . . . . . . . . ",
". . . . . . . . . . . . . . 7 { { { { { &+9 . . . . . . . . 9 O+= P+Q+;+. . % ,.R+S+T+>.. . . . . . . . . . . ",
". . . . . . . . . . . . . . ..{ { { { { U+^+. . . . . . . . . 1 V+W+g . . X+Y+( { { E.Z+`+5 . . . . . . . . . ",
". . . . . . . . . . . . . . l { { { { { &+9 . . . . . . . . . . . . . . ;+ @{ { { { { { .@+@5 . . . . . . . . ",
". . . . . . . . . . . . . . @.&+{ { { E L.. . . . . . . . . . . . . . . @@~ { { { { { { { = #@. . . . . . . . ",
". . . . . . . j 2 c+g . . . . [.(.J+<+$@%@. . . . . . . . . . . . . . &@'.{ { { { { { { { { *@. . . . . . . . ",
". . . . . 1 w.=@-@;@! >@8 . . . . . . . . . . . . . . . . . . . . . . ,@- { { { { { { { { { 4+. . . . . . . . ",
". . . . . '@)@{ { { { { !@8 . . . . . . . . . . . . . . . . . . . . . ,@- { { { { { { { { { ~@. . . . . . . . ",
". . . . c+{@{ { { { { { { ]@. . . . . . . . . . . . . . . . . . . . . ^@'.{ { { { { { { { { ,+. . . . . . . . ",
". . . . /@#.{ { { { { { { (@T . . . . . . . . . . . . . . . . . . . . . (+~ { { { { { { { _@Q.. . . . . . . . ",
". . . . :@{ { { { { { { { e <@. . . . . . . . . . . . . . . . . . . . . V.[@{ { { { { { #.h.1 . . . . . . . . ",
". . . . }@d { { { { { { { k.2 . . . . . . . . . . . . . . . . . . . . . . ;+|@|.{ { 1@2@!.1 . . . . . . . . . ",
". . . . 3@<.{ { { { { { { L.5 . . . . . . . . . . . . . . . . . . . . . . . X 4@5@6@7@8@. . . . . . . . . . . ",
". . . . q 9@#.{ { { { { 0@U . . . . . . . . . . . . . . . . . . . . . . . . . . . . . . . . . . . . . . . . . ",
". . . . . % a@s+.@j.( b@;+. . . . . . . . . . . . . . . . . . . . . . . . . . . . . . . . . . . . . . . . . . ",
". . . . . . . c@T+:+u+1 . . . . . . . . . . . . . . . . . . . . . . . . . . . . . . . . . . . . . . . . . . . ",
". . . . . . . . . . . . . . . . . . . . . . . . . . . . . . . . . . . . . . . . . . . . . . . . . . . . . . . ",
". . . . . . . . . . . . . . . . . . . . . . . . . . . . . . . . . . . . . . . . . . . . . . . . . . . . . . . ",
". . . . . . . . . . . . . . . . . . . . . . . . . . . . . . . . . . . . . . . . . . . . . . . . . . . . . . . "};
