/* XPM */
static char * stop_xpm[] = {
"22 22 251 2",
"  	c None",
". 	c #890000",
"+ 	c #880000",
"@ 	c #B13E3E",
"# 	c #F49494",
"$ 	c #F79B9B",
"% 	c #F79A9A",
"& 	c #F79999",
"* 	c #F79898",
"= 	c #F69696",
"- 	c #F69292",
"; 	c #F28888",
"> 	c #AC2A2A",
", 	c #B03B3B",
"' 	c #E56A6A",
") 	c #DB4F4F",
"! 	c #DB4D4D",
"~ 	c #DB4B4B",
"{ 	c #DA4949",
"] 	c #DA4646",
"^ 	c #D94343",
"/ 	c #E15757",
"( 	c #F28181",
"_ 	c #AB2B2B",
": 	c #B03939",
"< 	c #F49595",
"[ 	c #DC5252",
"} 	c #DC5151",
"| 	c #DB4C4C",
"1 	c #DA4A4A",
"2 	c #DA4747",
"3 	c #D94444",
"4 	c #D94141",
"5 	c #E15555",
"6 	c #F17B7B",
"7 	c #AC2E2E",
"8 	c #AF3535",
"9 	c #E46868",
"0 	c #DB5353",
"a 	c #CB5B5B",
"b 	c #D05555",
"c 	c #DC5050",
"d 	c #CD4646",
"e 	c #C54949",
"f 	c #D73F3F",
"g 	c #DF5252",
"h 	c #EF7676",
"i 	c #A92B2B",
"j 	c #AF3232",
"k 	c #F49393",
"l 	c #E36464",
"m 	c #DA5050",
"n 	c #C95959",
"o 	c #CB7C7C",
"p 	c #C56363",
"q 	c #CE5252",
"r 	c #CD4949",
"s 	c #C05454",
"t 	c #CC7B7B",
"u 	c #C24646",
"v 	c #D43C3C",
"w 	c #DD4F4F",
"x 	c #EC6F6F",
"y 	c #A92A2A",
"z 	c #890404",
"A 	c #F48F8F",
"B 	c #E36161",
"C 	c #D44F4F",
"D 	c #C25555",
"E 	c #DDD3D3",
"F 	c #C45F5F",
"G 	c #CD4E4E",
"H 	c #CE4C4C",
"I 	c #C15555",
"J 	c #E6D8D8",
"K 	c #EAE2E2",
"L 	c #BD4747",
"M 	c #CB3B3B",
"N 	c #D13939",
"O 	c #DA4C4C",
"P 	c #EC6A6A",
"Q 	c #8A0909",
"R 	c #8C0707",
"S 	c #F69090",
"T 	c #DA4848",
"U 	c #CC5151",
"V 	c #C56262",
"W 	c #DED4D4",
"X 	c #DFD5D5",
"Y 	c #C35C5C",
"Z 	c #C25757",
"` 	c #E6D9D9",
" .	c #EBE3E3",
"..	c #C55D5D",
"+.	c #C54242",
"@.	c #D23B3B",
"#.	c #D03838",
"$.	c #CE3535",
"%.	c #EF6C6C",
"&.	c #890808",
"*.	c #F58F8F",
"=.	c #CC4F4F",
"-.	c #E2D8D8",
";.	c #E6E2E2",
">.	c #E9E4E4",
",.	c #C55F5F",
"'.	c #C54343",
").	c #D23C3C",
"!.	c #D13A3A",
"~.	c #CF3737",
"{.	c #CC3434",
"].	c #EF6969",
"^.	c #890707",
"/.	c #F58E8E",
"(.	c #C44B4B",
"_.	c #CF8888",
":.	c #EBEBEB",
"<.	c #EEEEEE",
"[.	c #D59595",
"}.	c #C14343",
"|.	c #D23D3D",
"1.	c #D13B3B",
"2.	c #CF3838",
"3.	c #CD3636",
"4.	c #CB3333",
"5.	c #ED6666",
"6.	c #F58D8D",
"7.	c #D94242",
"8.	c #D94545",
"9.	c #CC4848",
"0.	c #C15353",
"a.	c #E5D6D6",
"b.	c #EDECEC",
"c.	c #F0EEEE",
"d.	c #EEE3E3",
"e.	c #C66262",
"f.	c #CE5F5F",
"g.	c #CD3131",
"h.	c #CA2C2C",
"i.	c #C82727",
"j.	c #C72929",
"k.	c #ED6C6C",
"l.	c #880505",
"m.	c #F58C8C",
"n.	c #D83F3F",
"o.	c #CC4545",
"p.	c #C05151",
"q.	c #E5D5D5",
"r.	c #CC7676",
"s.	c #C66363",
"t.	c #F0E4E4",
"u.	c #F1E3E3",
"v.	c #BB4444",
"w.	c #BE2E2E",
"x.	c #BF0000",
"y.	c #BD0000",
"z.	c #BB0000",
"A.	c #EA4D4D",
"B.	c #860000",
"C.	c #F48989",
"D.	c #D83D3D",
"E.	c #D83E3E",
"F.	c #D13F3F",
"G.	c #E6D6D6",
"H.	c #E8DFDF",
"I.	c #C66767",
"J.	c #C44444",
"K.	c #B50606",
"L.	c #C76464",
"M.	c #F6EAEA",
"N.	c #F5E6E6",
"O.	c #B63535",
"P.	c #B50000",
"Q.	c #BF1616",
"R.	c #E95A5A",
"S.	c #EF6666",
"T.	c #D92A2A",
"U.	c #CF1010",
"V.	c #CB0B0B",
"W.	c #C14747",
"X.	c #D9A2A2",
"Y.	c #C05757",
"Z.	c #BA1D1D",
"`.	c #C50000",
" +	c #C30000",
".+	c #BA1C1C",
"++	c #C86666",
"@+	c #E4BCBC",
"#+	c #BD4444",
"$+	c #B90000",
"%+	c #BA0000",
"&+	c #C21D1D",
"*+	c #EA7272",
"=+	c #9F1414",
"-+	c #ED5D5D",
";+	c #D82020",
">+	c #CB0000",
",+	c #CB1616",
"'+	c #C04545",
")+	c #BF3030",
"!+	c #C20000",
"~+	c #C00000",
"{+	c #B30606",
"]+	c #C55656",
"^+	c #C83C3C",
"/+	c #C31F1F",
"(+	c #E45353",
"_+	c #BB2929",
":+	c #9D1212",
"<+	c #EB5656",
"[+	c #D51F1F",
"}+	c #C80000",
"|+	c #C60000",
"1+	c #BE0000",
"2+	c #C52020",
"3+	c #E45454",
"4+	c #B72828",
"5+	c #9C1010",
"6+	c #EA5252",
"7+	c #D31E1E",
"8+	c #C10000",
"9+	c #C62020",
"0+	c #AC1111",
"a+	c #9B0F0F",
"b+	c #E94B4B",
"c+	c #D11D1D",
"d+	c #C30505",
"e+	c #C20505",
"f+	c #C00505",
"g+	c #BF0404",
"h+	c #BD0404",
"i+	c #BB0404",
"j+	c #C82424",
"k+	c #A80F0F",
"l+	c #6E0000",
"m+	c #990D0D",
"n+	c #E44545",
"o+	c #E95656",
"p+	c #EA6262",
"q+	c #E85F5F",
"r+	c #E85D5D",
"s+	c #E75B5B",
"t+	c #E65858",
"u+	c #E56262",
"v+	c #A20F0F",
"w+	c #740000",
"x+	c #560000",
"y+	c #840000",
"z+	c #830000",
"A+	c #820000",
"B+	c #5E0000",
"                                            ",
"            . + . . . . . . + .             ",
"          . @ # $ % & * = - ; > .           ",
"        + , # ' ) ! ~ { ] ^ / ( _ .         ",
"      + : < ' [ } ) | 1 2 3 4 5 6 7 .       ",
"    + 8 # 9 0 a b c ! 1 2 d e f g h i +     ",
"  + j k l m n o p q ! 1 r s t u v w x y +   ",
"  z A B | C D E E F G H I J K L M N O P Q   ",
"  R S T ~ ! U V W X Y Z `  ...+.@.#.$.%.&.  ",
"  R *.] { 1 ~ =.F -.;.>. .,.'.).!.~.{.].^.  ",
"  R /.3 ] 2 T { (._.:.<.[.}.|.1.2.3.4.5.^.  ",
"  R 6.7.^ 8.8.9.0.a.b.c.d.e.f.g.h.i.j.k.l.  ",
"  R m.n.4 7.o.p.q.K r.s.t.u.v.w.x.y.z.A.B.  ",
"  R C.D.E.F.I G.H.I.J.K.L.M.N.O.P.z.Q.R.B.  ",
"  z S.T.U.V.W.X.Y.Z.`. +.+++@+#+$+%+&+*+B.  ",
"    =+-+;+>+,+'+)+`. +!+~+{+]+^+%+/+(+_++   ",
"      :+<+[+}+|+`. +!+~+1+y.z.%+2+3+4++     ",
"        5+6+7+`. +8+~+1+y.z.%+9+3+0++       ",
"          a+b+c+d+e+f+g+h+i+j+3+k++         ",
"          l+m+n+o+p+q+r+s+t+u+v+w+          ",
"            x+y+y+z+z+A+z+z+y+B+            ",
"                                            "};
