/* XPM */
static char * stop_xpm[] = {
/* width height ncolors chars_per_pixel */
"32 32 3 1",
/* colors */
" 	s None c None m None",
".	c red m black",
"X	c white m white",
/* pixels */
"          ............          ",
"         .XXXXXXXXXXXX.         ",
"        .X............X.        ",
"       .X..............X.       ",
"      .X................X.      ",
"     .X..................X.     ",
"    .X....................X.    ",
"   .X......................X.   ",
"  .X........................X.  ",
" .X..........................X. ",
".X...XXX..XXXXX..XXX..XXXX....X.",
".X..X...X...X...X...X.X...X...X.",
".X..X.......X...X...X.X...X...X.",
".X..X.......X...X...X.X...X...X.",
".X...X......X...X...X.X...X...X.",
".X....X.....X...X...X.XXXX....X.",
".X.....X....X...X...X.X.......X.",
".X......X...X...X...X.X.......X.",
".X......X...X...X...X.X.......X.",
".X......X...X...X...X.X.......X.",
".X..X...X...X...X...X.X.......X.",
".X...XXX....X....XXX..X.......X.",
" .X..........................X. ",
"  .X........................X.  ",
"   .X......................X.   ",
"    .X....................X.    ",
"     .X..................X.     ",
"      .X................X.      ",
"       .X..............X.       ",
"        .X............X.        ",
"         .XXXXXXXXXXXX.         ",
"          ............          "};
