/* XPM */
static char * stree_xpm[] = {
"22 22 79 1",
" 	c None",
".	c #204A87",
"+	c #3465A4",
"@	c #F7F7F7",
"#	c #F6F6F6",
"$	c #F3F3F3",
"%	c #F3F2F2",
"&	c #F2F1F2",
"*	c #F0F0F0",
"=	c #EFEFEF",
"-	c #EFEEEF",
";	c #EEEDEE",
">	c #EDECEC",
",	c #EBECEB",
"'	c #F7F6F6",
")	c #F5F5F5",
"!	c #F4F5F4",
"~	c #F2F2F1",
"{	c #F1F0F1",
"]	c #EEEEEE",
"^	c #EEEDED",
"/	c #ECECEC",
"(	c #EBEBEB",
"_	c #EAEAEA",
":	c #F6F6F7",
"<	c #F5F6F6",
"[	c #F4F4F4",
"}	c #F3F3F4",
"|	c #F1F1F1",
"1	c #EFEFF0",
"2	c #EEEEEF",
"3	c #EDEDED",
"4	c #E9E9EA",
"5	c #F6F7F6",
"6	c #F6F5F5",
"7	c #F5F4F5",
"8	c #F2F2F2",
"9	c #EDEEED",
"0	c #ECECED",
"a	c #EAEBEB",
"b	c #E9E9E9",
"c	c #E8E8E8",
"d	c #F5F5F4",
"e	c #F4F3F3",
"f	c #F7F7F6",
"g	c #F5F5F6",
"h	c #F4F3F4",
"i	c #F2F3F3",
"j	c #F1FAFF",
"k	c #95BCF0",
"l	c #F3F4F3",
"m	c #F0F1F1",
"n	c #FFFFFF",
"o	c #9A9A9A",
"p	c #F2F3F2",
"q	c #F1F2F2",
"r	c #F1F0F0",
"s	c #F57900",
"t	c #F2F2F3",
"u	c #F1F2F1",
"v	c #F0F1F0",
"w	c #EEEEED",
"x	c #ECEDED",
"y	c #F0EFEF",
"z	c #ECEDEC",
"A	c #ECECEB",
"B	c #EDEDEC",
"C	c #EBECEC",
"D	c #EBEBEA",
"E	c #EAEAE9",
"F	c #E7E8E8",
"G	c #E7E7E7",
"H	c #E7E6E6",
"I	c #EAE9EA",
"J	c #E9E8E9",
"K	c #E6E6E6",
"L	c #E8E8E9",
"M	c #E8E7E7",
"N	c #E6E7E6",
"......................",
".++++++++++++++++++++.",
".++++++++++++++++++++.",
"......................",
".@@@@@@@@#.+$%&*=-;>,.",
".@@@@@@')!.+~{*=]^/(_.",
".@@@@:<)[}.+|12]3/(_4.",
".@@@567[$8.+=]90/a_bc.",
".@@#)de...............",
".fg)hi8.jjjjjjjjjjjjk.",
".6dli8m.jnonnnnnnnnnk.",
".[$pqr=.jnonnnssssnnk.",
".tq|*=].jnonnnssssnnk.",
".uv1=wx.jnooonssssnnk.",
".*y]wzA.jnonnnssssnnk.",
".=]3/,_.jnonnnnnnnnnk.",
".9BC(4b.jnonnnssssnnk.",
"./(DEbF.jnonnnssssnnk.",
".D_bcGH.jnooonssssnnk.",
".IJcKKK.jnnnnnssssnnk.",
".LMNKKK.kkkkkkkkkkkkk.",
"......................"};
