/* XPM */
static char * tilda_right_xpm[] = {
"24 24 95 2",
"  	c None",
". 	c #EABFE9",
"+ 	c #F83E4B",
"@ 	c #FF0000",
"# 	c #F93541",
"$ 	c #F83E4C",
"% 	c #EBADD3",
"& 	c #FD0E11",
"* 	c #F17791",
"= 	c #F17690",
"- 	c #EBAED4",
"; 	c #F17B96",
"> 	c #EF0000",
", 	c #1A0000",
"' 	c #000000",
") 	c #FD0B0E",
"! 	c #F17C97",
"~ 	c #FF4E4E",
"{ 	c #FF4D4D",
"] 	c #FFFFFF",
"^ 	c #EB3838",
"/ 	c #B00000",
"( 	c #FFE6E6",
"_ 	c #FF1010",
": 	c #FFA4A4",
"< 	c #FFA3A3",
"[ 	c #FC0E0E",
"} 	c #190000",
"| 	c #AAAAAA",
"1 	c #D3D3D3",
"2 	c #0000FF",
"3 	c #FF9F9F",
"4 	c #FF1313",
"5 	c #B19A9A",
"6 	c #170000",
"7 	c #ED0000",
"8 	c #E38585",
"9 	c #BEBEBE",
"0 	c #FF4848",
"a 	c #AD0000",
"b 	c #FF5151",
"c 	c #B50000",
"d 	c #B39696",
"e 	c #F10000",
"f 	c #FF0F0F",
"g 	c #FFE4E4",
"h 	c #FF5A5A",
"i 	c #780000",
"j 	c #3C0000",
"k 	c #FD0000",
"l 	c #F22424",
"m 	c #030000",
"n 	c #00008B",
"o 	c #0B0000",
"p 	c #FF2323",
"q 	c #8D0000",
"r 	c #E10000",
"s 	c #DA6C6C",
"t 	c #960000",
"u 	c #FF3030",
"v 	c #FFFAFA",
"w 	c #D28282",
"x 	c #180000",
"y 	c #C17C7C",
"z 	c #FE0000",
"A 	c #FD0404",
"B 	c #2D0000",
"C 	c #F23E3E",
"D 	c #A60000",
"E 	c #EBB3DB",
"F 	c #E20000",
"G 	c #210000",
"H 	c #FE0608",
"I 	c #EF8DAC",
"J 	c #F74756",
"K 	c #FA2A34",
"L 	c #EABCE6",
"M 	c #F46278",
"N 	c #FB1D24",
"O 	c #EABAE3",
"P 	c #F085A2",
"Q 	c #FE0709",
"R 	c #EDA3C7",
"S 	c #FB1D23",
"T 	c #F46379",
"U 	c #EBB0D7",
"V 	c #FD1115",
"W 	c #F26D85",
"X 	c #EF8CAB",
"Y 	c #ECA7CB",
"Z 	c #F7404E",
"` 	c #F9313C",
" .	c #EABEE8",
"..	c #F74251",
"+.	c #F83946",
". . . . . . . . . . . . . . . . . . . . . . . . ",
". . . . . . . . . . . . . . . . . . . . . . . . ",
". . . . . . . . . . . . . . . . . . . . . . . . ",
". . . . . + @ # . . . . . . . . # @ $ . . . . . ",
". . . . . % & @ * . . . . . . = @ & - . . . . . ",
". . . . . . ; @ > , ' ' ' ' , ) @ ! . . . . . . ",
". . . . . . ' ~ @ { ] ] ] ] ^ @ / ' ' . . . . . ",
"' ' . . . ' ] ( _ @ : ] ] < @ [ } | 1 ' ' ' . . ",
"2 ' ' ' ' ] ] ] 3 @ 4 5 6 7 @ 8 9 ' | 9 ] ] ' ' ",
"2 ' | ] ] ] ] ] ] 0 @ a b @ c 9 1 9 ' | 1 9 ] ' ",
"2 ' | 1 ] ] ] ] ] d e @ @ f g ' ' ' ' ' ' ' ' ' ",
"2 ' | 9 1 ] ] ] 9 ' h @ @ i 1 9 | ' . . . . . . ",
"2 ' | | 9 1 9 1 | j k @ @ l m ' ' . . . . . . . ",
"n ' | | | 9 1 9 o p @ q r @ s | ' . . . . . . . ",
"n ' ' ' ' | | 1 t @ u v w @ e x . . . . . . . . ",
"n ' . . . ' ' y z A B ' 1 C @ D . . . . . . . . ",
"' . . . . . E F @ i ' ' ' G H @ I . . . . . . . ",
". . . . . . J @ K L . . . . M @ N O . . . . . . ",
". . . . . P @ Q R . . . . . O S @ T . . . . . . ",
". . . . U V @ W . . . . . . . X @ Q Y . . . . . ",
". . . . Z @ `  .. . . . . . . . ..@ +.. . . . . ",
". . . . . . . . . . . . . . . . . . . . . . . . ",
". . . . . . . . . . . . . . . . . . . . . . . . ",
". . . . . . . . . . . . . . . . . . . . . . . . "};
