/* XPM */
static char * tilda_left_xpm[] = {
"24 24 76 1",
" 	c None",
".	c #F5983D",
"+	c #D03E24",
"@	c #FF0000",
"#	c #D6351F",
"$	c #F40E08",
"%	c #B55900",
"&	c #EF0000",
"*	c #1A0000",
"=	c #000000",
"-	c #B10000",
";	c #FF4D4D",
">	c #FFFFFF",
",	c #FF4C4C",
"'	c #B00000",
")	c #D3D3D3",
"!	c #AAAAAA",
"~	c #D7BEBE",
"{	c #FF1010",
"]	c #FFA4A4",
"^	c #FFA3A3",
"/	c #FF1111",
"(	c #FFE6E6",
"_	c #BEBEBE",
":	c #D67676",
"<	c #EC0000",
"[	c #B19A9A",
"}	c #FFE8E8",
"|	c #FF1212",
"1	c #FFA1A1",
"2	c #0000FF",
"3	c #FF4848",
"4	c #AD0000",
"5	c #F14343",
"6	c #FF4A4A",
"7	c #FFE2E2",
"8	c #FF0E0E",
"9	c #FA0A0A",
"0	c #FFE4E4",
"a	c #A50000",
"b	c #780000",
"c	c #CD9191",
"d	c #FF0202",
"e	c #CE0000",
"f	c #ABA8A8",
"g	c #C0B5B5",
"h	c #F81C1C",
"i	c #8D0000",
"j	c #FF1E1E",
"k	c #6E0000",
"l	c #00008B",
"m	c #960000",
"n	c #F22323",
"o	c #FFFAFA",
"p	c #FFAFAF",
"q	c #F10000",
"r	c #D7BFBF",
"s	c #450000",
"t	c #FE0000",
"u	c #FD0404",
"v	c #DAADAD",
"w	c #E63232",
"x	c #E13B3B",
"y	c #EE150C",
"z	c #210000",
"A	c #F60000",
"B	c #CA4729",
"C	c #DF2A19",
"D	c #E81D11",
"E	c #F90704",
"F	c #E91D11",
"G	c #F2110A",
"H	c #CF4025",
"I	c #DA311C",
"J	c #CD4227",
"K	c #D43921",
"........................",
"........................",
"........................",
"......+@#........#@+....",
".......$@%.......@$%....",
".......%@&*====*&@......",
".....===-@;>>>>,@'......",
"..===)!=~{@]>>^@/(=...==",
"==>>_!=_):@<[}|@1>>====2",
"=>_)!=_)_=3@45@6>>>>>!=2",
"=)=======>78@@90>>>>)!=2",
"==....=!_)=a@@b_>>>)_!=2",
".......===cd@@ef)_)_!!=2",
".......=!gh@ij@k_)_!!!=l",
"........=m@nop@qr!!====l",
"........stuv==w@x==...=l",
"........y@b===zA@......=",
".......B@C.....%@D......",
".......@E.......F@%.....",
"......G@%........@E.....",
".....H@I.........J@K....",
"........................",
"........................",
"........................"};
