/* XPM */
static char * tilda_left_xpm[] = {
"24 24 94 2",
"  	c None",
". 	c #71BF70",
"+ 	c #D03E24",
"@ 	c #FF0000",
"# 	c #D6351F",
"$ 	c #7DAD65",
"% 	c #F40E08",
"& 	c #A67745",
"* 	c #A77645",
"= 	c #7DAE66",
"- 	c #A37B48",
"; 	c #EF0000",
"> 	c #1A0000",
", 	c #000000",
"' 	c #A27C48",
") 	c #B10000",
"! 	c #FF4D4D",
"~ 	c #FFFFFF",
"{ 	c #FF4C4C",
"] 	c #B00000",
"^ 	c #D3D3D3",
"/ 	c #AAAAAA",
"( 	c #D7BEBE",
"_ 	c #FF1010",
": 	c #FFA4A4",
"< 	c #FFA3A3",
"[ 	c #FF1111",
"} 	c #FFE6E6",
"| 	c #BEBEBE",
"1 	c #D67676",
"2 	c #EC0000",
"3 	c #B19A9A",
"4 	c #FFE8E8",
"5 	c #FF1212",
"6 	c #FFA1A1",
"7 	c #0000FF",
"8 	c #FF4848",
"9 	c #AD0000",
"0 	c #F14343",
"a 	c #FF4A4A",
"b 	c #FFE2E2",
"c 	c #FF0E0E",
"d 	c #FA0A0A",
"e 	c #FFE4E4",
"f 	c #A50000",
"g 	c #780000",
"h 	c #CD9191",
"i 	c #FF0202",
"j 	c #CE0000",
"k 	c #ABA8A8",
"l 	c #C0B5B5",
"m 	c #F81C1C",
"n 	c #8D0000",
"o 	c #FF1E1E",
"p 	c #6E0000",
"q 	c #00008B",
"r 	c #960000",
"s 	c #F22323",
"t 	c #FFFAFA",
"u 	c #FFAFAF",
"v 	c #F10000",
"w 	c #D7BFBF",
"x 	c #450000",
"y 	c #FE0000",
"z 	c #FD0404",
"A 	c #DAADAD",
"B 	c #E63232",
"C 	c #E13B3B",
"D 	c #79B369",
"E 	c #EE150C",
"F 	c #210000",
"G 	c #F60000",
"H 	c #958D53",
"I 	c #CA4729",
"J 	c #DF2A19",
"K 	c #72BC6E",
"L 	c #B56239",
"M 	c #E81D11",
"N 	c #74BA6D",
"O 	c #9B854E",
"P 	c #F90704",
"Q 	c #85A35F",
"R 	c #E91D11",
"S 	c #B4633A",
"T 	c #7BB067",
"U 	c #F2110A",
"V 	c #AD6D40",
"W 	c #968C52",
"X 	c #82A761",
"Y 	c #CF4025",
"Z 	c #DA311C",
"` 	c #71BE6F",
" .	c #CD4227",
"..	c #D43921",
". . . . . . . . . . . . . . . . . . . . . . . . ",
". . . . . . . . . . . . . . . . . . . . . . . . ",
". . . . . . . . . . . . . . . . . . . . . . . . ",
". . . . . . + @ # . . . . . . . . # @ + . . . . ",
". . . . . . $ % @ & . . . . . . * @ % = . . . . ",
". . . . . . . - @ ; > , , , , > ; @ ' . . . . . ",
". . . . . , , , ) @ ! ~ ~ ~ ~ { @ ] . . . . . . ",
". . , , , ^ / , ( _ @ : ~ ~ < @ [ } , . . . , , ",
", , ~ ~ | / , | ^ 1 @ 2 3 4 5 @ 6 ~ ~ , , , , 7 ",
", ~ | ^ / , | ^ | , 8 @ 9 0 @ a ~ ~ ~ ~ ~ / , 7 ",
", ^ , , , , , , , ~ b c @ @ d e ~ ~ ~ ~ ^ / , 7 ",
", , . . . . , / | ^ , f @ @ g | ~ ~ ~ ^ | / , 7 ",
". . . . . . . , , , h i @ @ j k ^ | ^ | / / , 7 ",
". . . . . . . , / l m @ n o @ p | ^ | / / / , q ",
". . . . . . . . , r @ s t u @ v w / / , , , , q ",
". . . . . . . . x y z A , , B @ C , , . . . , q ",
". . . . . . . D E @ g , , , F G @ H . . . . . , ",
". . . . . . . I @ J K . . . . L @ M N . . . . . ",
". . . . . . O @ P Q . . . . . N R @ S . . . . . ",
". . . . . T U @ V . . . . . . . W @ P X . . . . ",
". . . . . Y @ Z ` . . . . . . . .  .@ ... . . . ",
". . . . . . . . . . . . . . . . . . . . . . . . ",
". . . . . . . . . . . . . . . . . . . . . . . . ",
". . . . . . . . . . . . . . . . . . . . . . . . "};
