/* XPM */
static char * tilda_right_xpm[] = {
"24 24 86 1",
" 	c None",
".	c #7CA1D0",
"+	c #F83E4B",
"@	c #FF0000",
"#	c #F93541",
"$	c #F83E4C",
"%	c #91A5C4",
"&	c #FD0E11",
"*	c #F17791",
"=	c #F17690",
"-	c #F17B96",
";	c #EF0000",
">	c #1A0000",
",	c #000000",
"'	c #FD0B0E",
")	c #F17C97",
"!	c #FF4E4E",
"~	c #FF4D4D",
"{	c #FFFFFF",
"]	c #EB3838",
"^	c #B00000",
"/	c #FFE6E6",
"(	c #FF1010",
"_	c #FFA4A4",
":	c #FFA3A3",
"<	c #FC0E0E",
"[	c #190000",
"}	c #AAAAAA",
"|	c #D3D3D3",
"1	c #0000FF",
"2	c #FF9F9F",
"3	c #FF1313",
"4	c #B19A9A",
"5	c #170000",
"6	c #ED0000",
"7	c #E38585",
"8	c #BEBEBE",
"9	c #FF4848",
"0	c #AD0000",
"a	c #FF5151",
"b	c #B50000",
"c	c #B39696",
"d	c #F10000",
"e	c #FF0F0F",
"f	c #FFE4E4",
"g	c #FF5A5A",
"h	c #780000",
"i	c #3C0000",
"j	c #FD0000",
"k	c #F22424",
"l	c #030000",
"m	c #00008B",
"n	c #0B0000",
"o	c #FF2323",
"p	c #8D0000",
"q	c #E10000",
"r	c #DA6C6C",
"s	c #960000",
"t	c #FF3030",
"u	c #FFFAFA",
"v	c #D28282",
"w	c #180000",
"x	c #C17C7C",
"y	c #FE0000",
"z	c #FD0404",
"A	c #2D0000",
"B	c #F23E3E",
"C	c #A60000",
"D	c #E20000",
"E	c #210000",
"F	c #FE0608",
"G	c #EF8DAC",
"H	c #F74756",
"I	c #FA2A34",
"J	c #F46278",
"K	c #FB1D24",
"L	c #F085A2",
"M	c #FE0709",
"N	c #FB1D23",
"O	c #F46379",
"P	c #FD1115",
"Q	c #F26D85",
"R	c #F7404E",
"S	c #F9313C",
"T	c #F74251",
"U	c #F83946",
"........................",
"........................",
"........................",
".....+@#........#@$.....",
".....%&@*......=@&%.....",
"......-@;>,,,,>'@)......",
"......,!@~{{{{]@^,,.....",
",,...,{/(@_{{:@<[}|,,,..",
"1,,,,{{{2@3456@78,}8{{,,",
"1,}{{{{{{9@0a@b8|8,}|8{,",
"1,}|{{{{{cd@@ef,,,,,,,,,",
"1,}8|{{{8,g@@h|8},......",
"1,}}8|8|}ij@@kl,,.......",
"m,}}}8|8no@pq@r},.......",
"m,,,,}}|s@tuv@dw........",
"m,...,,xyzA,|B@C........",
",......D@h,,,EF@G.......",
"......H@I.....J@K.......",
".....L@M%......N@O......",
"....%P@Q.......%@M%.....",
"....R@S.........T@U.....",
"........................",
"........................",
"........................"};
