/* XPM */
static char * tree_xpm[] = {
"22 22 83 1",
" 	c None",
".	c #204A87",
"+	c #3465A4",
"@	c #F7F7F7",
"#	c #F6F6F6",
"$	c #F5F5F5",
"%	c #F4F4F4",
"&	c #F3F3F3",
"*	c #F3F2F2",
"=	c #F2F1F2",
"-	c #F0F0F0",
";	c #EFEFEF",
">	c #EFEEEF",
",	c #EEEDEE",
"'	c #EDECEC",
")	c #EBECEB",
"!	c #8E8E8E",
"~	c #F7F6F6",
"{	c #F4F5F4",
"]	c #F3F4F3",
"^	c #F3F2F3",
"/	c #F2F2F1",
"(	c #F1F0F1",
"_	c #EEEEEE",
":	c #EEEDED",
"<	c #ECECEC",
"[	c #EBEBEB",
"}	c #EAEAEA",
"|	c #F6F6F7",
"1	c #F3F3F4",
"2	c #F2F2F2",
"3	c #F1F2F2",
"4	c #F1F1F1",
"5	c #EFEFF0",
"6	c #EEEEEF",
"7	c #EDEDED",
"8	c #E9E9EA",
"9	c #F6F7F6",
"0	c #F6F5F5",
"a	c #EDEEED",
"b	c #ECECED",
"c	c #EAEBEB",
"d	c #E9E9E9",
"e	c #E8E8E8",
"f	c #F5F5F4",
"g	c #EFF0F0",
"h	c #EFEFEE",
"i	c #F57900",
"j	c #E9EAE9",
"k	c #E7E7E7",
"l	c #E7E6E6",
"m	c #F7F7F6",
"n	c #F5F5F6",
"o	c #F4F3F4",
"p	c #F2F3F3",
"q	c #F1F0F0",
"r	c #F0F0EF",
"s	c #EEEEED",
"t	c #E6E6E7",
"u	c #E6E6E6",
"v	c #F2F3F2",
"w	c #EEEFEF",
"x	c #ECECEB",
"y	c #EBEAEB",
"z	c #F2F2F3",
"A	c #ECEBEB",
"B	c #EBEBEA",
"C	c #E9EAEA",
"D	c #F1F2F1",
"E	c #F0F1F0",
"F	c #EBECEC",
"G	c #F0EFEF",
"H	c #ECEDEC",
"I	c #E7E7E6",
"J	c #E8E7E8",
"K	c #EDEDEC",
"L	c #F0F0F1",
"M	c #EAEAE9",
"N	c #EAE9EA",
"O	c #E9E8E9",
"P	c #E8E8E9",
"Q	c #E8E7E7",
"R	c #E6E7E6",
"......................",
".++++++++++++++++++++.",
".++++++++++++++++++++.",
"......................",
".@@@@@@@@#$%&*=-;>,').",
".@@@@@!~${]^/(-;_:<[}.",
".@@@@|!$%123456_7<[}8.",
".@@@90!%&24-;_ab<c}de.",
".@@#$f!^44ghiiiiijekl.",
".mn$op!4qr_siiiiiektu.",
".0f]p2!-!!!!iiiiituuu.",
".%&v3q!w:7xyiiiiiuuuu.",
".z34-;!7<ABCiiiiiuuuu.",
".DE5;s!F[}jeeuuuuuuuu.",
".-G_sH!yjdeIuuuuuuuuu.",
".;_7<)!CeJluiiiiiuuuu.",
".aKF[8!eknLdiiiiiuuuu.",
".<[BMd!!!!!!iiiiiuuuu.",
".B}dekluuuuuiiiiiuuuu.",
".NOeuuuuuuuuiiiiiuuuu.",
".PQRuuuuuuuuuuuuuuuuu.",
"......................"};
