/* XPM */
static char * tree_xpm[] = {
/* width height ncolors cpp [x_hot y_hot] */
"24 24 7 1 0 0",
/* colors */
" 	s none	m none	c none",
".	s iconColor5	m black	c blue",
"X	s iconColor2	m white	c white",
"o	s iconColor4	m white	c green",
"O	s iconColor1	m black	c black",
"+	s iconColor6	m white	c yellow",
"@	s iconColor3	m black	c red",
/* pixels */
"                        ",
"                 .....  ",
"                ..XXX.  ",
"         ooooo . .....  ",
" OOOOOOOOoXXXo.         ",
"         ooooo+         ",
"               +        ",
"                ++++++  ",
"                 +XXX+  ",
"                ++++++  ",
"         @@@@@ +        ",
"        O@XXX@+         ",
" OOOOO O @@@@@          ",
" OXXXOO                 ",
" OOOOO O .....   ooooo  ",
"        O.XXX.ooooXXXo  ",
"         .....@  ooooo  ",
"               @        ",
"                @       ",
"                 @@@@@  ",
"                 @XXX@  ",
"                 @@@@@  ",
"                        ",
"                        "};
