/* XPM */
static char * clsbr_ec_xpm[] = {
/* width height num_colors chars_per_pixel */
"16 16 4 1",
/* colors */
" 	c None",
".	c black",
"X	c white",
"o	c blue",
/* pixels */
"       .        ",
"      .X.       ",
"     .XXX.      ",
"    .XXXXX.     ",
"   .XXXXXXX.    ",
"  .XXoXXXoXX.   ",
" .XXXoXXXoXXX.  ",
".XXoooooooooXX. ",
" .XXXoXXXoXXX.  ",
"  .XXoXXXoXX.   ",
"   .XXXXXXX.    ",
"    .XXXXX.     ",
"     .XXX.      ",
"      .X.       ",
"       .        ",
"                "};
