/* XPM */
static char * type_lv_xpm[] = {
/* width height num_colors chars_per_pixel */
"16 16 5 1",
/* colors */
" 	c None",
".	c black",
"X	c white",
"o	c red",
"O	c blue",
/* pixels */
"       ..       ",
"      .XX.      ",
"     .XXXX.     ",
"    .XXXXXX.    ",
"   .XooXXooX.   ",
"  .XooXXXXooX.  ",
" .XXooXOOXooXX. ",
".XXooXOOOOXooXX.",
".XXooXOOOOXooXX.",
" .XXooXOOXooXX. ",
"  .XooXXXXooX.  ",
"   .XooXXooX.   ",
"    .XXXXXX.    ",
"     .XXXX.     ",
"      .XX.      ",
"       ..       "};
