/* XPM */
static char * type_e_xpm[] = {
/* width height num_colors chars_per_pixel */
"16 16 4 1",
/* colors */
" 	c None",
".	c black",
"X	c white",
"o	c blue",
/* pixels */
"       .        ",
"      .X.       ",
"     .XXX.      ",
"    .XXXXX.     ",
"   .XXXoXXX.    ",
"  .XXXXoXXXX.   ",
" .XXXXXoXXXXX.  ",
".XXXoooooooXXX. ",
" .XXXXXoXXXXX.  ",
"  .XXXXoXXXX.   ",
"   .XXXoXXX.    ",
"    .XXXXX.     ",
"     .XXX.      ",
"      .X.       ",
"       .        ",
"                "};
