/* XPM */
static char * clsbr_s_xpm[] = {
/* width height num_colors chars_per_pixel */
"16 16 5 1",
/* colors */
" 	c None",
".	c #7f7f00",
"X	c black",
"o	c red",
"O	c white",
/* pixels */
"  ..   X        ",
" .o.  XOX       ",
".oo. XOOOX      ",
"...o.OOOOOX     ",
"   .o.OOOOOX    ",
"  XO.o.OOOOOX   ",
" XOOO.o.OOOOOX  ",
"XOOOOO.o.OOOOOX ",
" XOOOOO..OOOOX  ",
"  XOOOOOOOOOX   ",
"   XOOOOOOOX    ",
"    XOOOOOX     ",
"     XOOOX      ",
"      XOX       ",
"       X        ",
"                "};
