#define undef_m.xbm_width 12
#define undef_m.xbm_height 12
static char undef_m.xbm_bits[] = {
   0xff, 0x0f, 0x01, 0x08, 0x01, 0x08, 0x01, 0x08, 0x01, 0x08, 0x01, 0x08,
   0x01, 0x08, 0x01, 0x08, 0x01, 0x08, 0x01, 0x08, 0x01, 0x08, 0xff, 0x0f};
