/* XPM */
static char * undo_xpm[] = {
"22 22 62 1",
" 	c None",
".	c #4E9A06",
"+	c #8AE234",
"@	c #7CDD1E",
"#	c #72CA1C",
"$	c #79D71E",
"%	c #85DD30",
"&	c #94D63C",
"*	c #97A020",
"=	c #69C113",
"-	c #68BF13",
";	c #77D31D",
">	c #7DDA24",
",	c #7CD623",
"'	c #7AD422",
")	c #80D52B",
"!	c #8FE53C",
"~	c #9ADC3F",
"{	c #6FCB15",
"]	c #76D816",
"^	c #75D01C",
"/	c #77D41D",
"(	c #8CE435",
"_	c #91E53F",
":	c #6BC414",
"<	c #78DB17",
"[	c #74D416",
"}	c #76D31C",
"|	c #92E540",
"1	c #8CCF2D",
"2	c #6ECA14",
"3	c #6AC214",
"4	c #8FE53B",
"5	c #90E53E",
"6	c #91E53E",
"7	c #8CE437",
"8	c #79D61E",
"9	c #7AD91E",
"0	c #8BE434",
"a	c #8EE43A",
"b	c #91D32B",
"c	c #8CEA30",
"d	c #7DDA22",
"e	c #90E53D",
"f	c #75D516",
"g	c #89E92B",
"h	c #A1EC57",
"i	c #93E542",
"j	c #99EB46",
"k	c #8AE331",
"l	c #A7B432",
"m	c #8BE332",
"n	c #94A303",
"o	c #4D9905",
"p	c #52920D",
"q	c #87E02C",
"r	c #82D82A",
"s	c #4C9705",
"t	c #67AC0F",
"u	c #4B9405",
"v	c #499105",
"w	c #4A9305",
"         .            ",
"        ..            ",
"       .+.            ",
"      .++.            ",
"     .+@+....         ",
"    .+#$%+++&*.       ",
"   .+=-$;>,')!~.      ",
"  .+==-{];^/;;(_.     ",
"   .+=-:<[^^^^}|1.    ",
"    .+2345567(890.    ",
"     .+2a....bcde.    ",
"      .+_.   .fg5.    ",
"       .+.    .hi.    ",
"        ..    .j(.    ",
"         .    .kl.    ",
"              .mno    ",
"              pq.     ",
"             or.      ",
"            st.       ",
"            uv        ",
"          w           ",
"                      "};
