/* XPM */
static char * unvisited_xpm[] = {
"12 12 71 1",
" 	c None",
".	c #F3E0DF",
"+	c #F2D9D8",
"@	c #F1D4D3",
"#	c #F1D1D0",
"$	c #F0CFCE",
"%	c #F0CECD",
"&	c #EFD1D0",
"*	c #F7DDDD",
"=	c #917E7A",
"-	c #EFC7C6",
";	c #FFFFFF",
">	c #EDBAB9",
",	c #ECB9B9",
"'	c #F3CACA",
")	c #967470",
"!	c #EBBCBB",
"~	c #ECB5B5",
"{	c #F0B7B7",
"]	c #9B6A66",
"^	c #EAADAC",
"/	c #E9A4A3",
"(	c #E79C9B",
"_	c #E39696",
":	c #ECA5A5",
"<	c #9F605D",
"[	c #E79B9B",
"}	c #E18E8D",
"|	c #E08585",
"1	c #DF8383",
"2	c #E89292",
"3	c #A35754",
"4	c #E18A89",
"5	c #DF7E7E",
"6	c #E58181",
"7	c #A84D4B",
"8	c #DF7B7B",
"9	c #DD6F6F",
"0	c #D95858",
"a	c #D85756",
"b	c #E27070",
"c	c #AB4543",
"d	c #DA6160",
"e	c #D85454",
"f	c #D64A4A",
"g	c #D54545",
"h	c #D54343",
"i	c #D54747",
"j	c #D64F4F",
"k	c #DF6161",
"l	c #AF3D3B",
"m	c #E06A6A",
"n	c #DD5959",
"o	c #DA4A4A",
"p	c #D83E3E",
"q	c #D63636",
"r	c #D63535",
"s	c #D73B3B",
"t	c #D94545",
"u	c #DD5555",
"v	c #B23735",
"w	c #B03B39",
"x	c #B53130",
"y	c #B82928",
"z	c #BB2221",
"A	c #BD1E1D",
"B	c #BE1D1C",
"C	c #BC2120",
"D	c #BA2625",
"E	c #B62F2D",
"F	c #B23836",
"            ",
" .+@#$%$&*= ",
" $-;;>,;;') ",
" !~;;;;;;{] ",
" ^/(;;;;_:< ",
" [}|;;;;123 ",
" 45;;;;;;67 ",
" 89;;0a;;bc ",
" 9defghijkl ",
" mnopqrstuv ",
" wxyzABCDEF ",
"            "};
