/* XPM */
static char * up_xpm[] = {
"22 22 131 2",
"  	c None",
". 	c #3C7603",
"+ 	c #3C7604",
"@ 	c #558B22",
"# 	c #558D22",
"$ 	c #3C7503",
"% 	c #4B8118",
"& 	c #9CC575",
"* 	c #9AC572",
"= 	c #4B8317",
"- 	c #457C10",
"; 	c #9CC376",
"> 	c #72AF3A",
", 	c #6FAD35",
"' 	c #96C16D",
") 	c #447B0F",
"! 	c #3E7609",
"~ 	c #96BF70",
"{ 	c #85B952",
"] 	c #5AA118",
"^ 	c #569E11",
"/ 	c #79B343",
"( 	c #8EBB64",
"_ 	c #3D7808",
": 	c #8CB665",
"< 	c #94C269",
"[ 	c #63A623",
"} 	c #5EA31C",
"| 	c #59A016",
"1 	c #549D0E",
"2 	c #83B850",
"3 	c #82B255",
"4 	c #3B7503",
"5 	c #3A7604",
"6 	c #82AC59",
"7 	c #A2CA7D",
"8 	c #6CAC31",
"9 	c #66A828",
"0 	c #61A521",
"a 	c #5CA21A",
"b 	c #549E0F",
"c 	c #4F9B08",
"d 	c #8DBE5F",
"e 	c #76A748",
"f 	c #3B7604",
"g 	c #74A149",
"h 	c #ADD18D",
"i 	c #77B140",
"j 	c #6FAD34",
"k 	c #6BAC2D",
"l 	c #68AB27",
"m 	c #61A81C",
"n 	c #53A109",
"o 	c #51A007",
"p 	c #56A10E",
"q 	c #95C36A",
"r 	c #689A39",
"s 	c #649437",
"t 	c #B5D598",
"u 	c #84B851",
"v 	c #79B541",
"w 	c #77B53B",
"x 	c #73B434",
"y 	c #6EB32C",
"z 	c #5CAA11",
"A 	c #57A80A",
"B 	c #57A709",
"C 	c #56A609",
"D 	c #5EA817",
"E 	c #9CC872",
"F 	c #5B8E29",
"G 	c #588A28",
"H 	c #BBD7A0",
"I 	c #BFDBA5",
"J 	c #BEDBA3",
"K 	c #BDDCA0",
"L 	c #7DBB41",
"M 	c #79BC3A",
"N 	c #65B319",
"O 	c #5CB00C",
"P 	c #5CAF0C",
"Q 	c #AAD581",
"R 	c #A9D380",
"S 	c #A8D180",
"T 	c #A0CB79",
"U 	c #4F851F",
"V 	c #3B7504",
"W 	c #3A7304",
"X 	c #3D7805",
"Y 	c #C0DEA2",
"Z 	c #82C145",
"` 	c #72BB2A",
" .	c #60B60E",
"..	c #61B80E",
"+.	c #62B80E",
"@.	c #61B70E",
"#.	c #ACD982",
"$.	c #3E7905",
"%.	c #C2E1A5",
"&.	c #87C74A",
"*.	c #66BA14",
"=.	c #65BD10",
"-.	c #67BF10",
";.	c #67C011",
">.	c #66BF10",
",.	c #AFDC83",
"'.	c #C4E3A6",
").	c #7CC338",
"!.	c #69C311",
"~.	c #6BC712",
"{.	c #6CC813",
"].	c #6BC612",
"^.	c #B0DF84",
"/.	c #C6E4A9",
"(.	c #74C129",
"_.	c #6FCC14",
":.	c #71D015",
"<.	c #6DCA13",
"[.	c #B1E084",
"}.	c #6CBD1E",
"|.	c #66BE10",
"1.	c #6AC412",
"2.	c #6DC913",
"3.	c #6ECB14",
"4.	c #6CC713",
"5.	c #B1DF84",
"6.	c #C5E3A9",
"7.	c #AFDA85",
"8.	c #AEDB83",
"9.	c #B0DE83",
"0.	c #AFDD83",
"                                            ",
"                                            ",
"                                            ",
"                    . +                     ",
"                    @ # $                   ",
"                  % & * =                   ",
"                - ; > , ' )                 ",
"              ! ~ { ] ^ / ( _               ",
"            . : < [ } | 1 2 3 4             ",
"          5 6 7 8 9 0 a b c d e f           ",
"        . g h i j k l m n o p q r $         ",
"        s t u v w x y z A B C D E F         ",
"      G H I J K L M N O O P Q R S T U       ",
"    V W W W X Y Z `  ...+.@.#.$.W W W 5     ",
"            W %.&.*.=.-.;.>.,.W             ",
"            W '.).=.!.~.{.].^.W             ",
"            W /.(.>.]._.:.<.[.W             ",
"            W /.}.|.1.2.3.4.5.W             ",
"            W 6.7.8.9.5.[.5.0.W             ",
"            W W W W W W W W W W             ",
"                                            ",
"                                            "};
