/* XPM */
static char * updir_xpm[] = {
"22 22 174 2",
"  	c None",
". 	c #BFD2BD",
"+ 	c #70716F",
"@ 	c #6D6F6B",
"# 	c #676965",
"$ 	c #9FC29C",
"% 	c #0B8D00",
"& 	c #70B26A",
"* 	c #D0D0D0",
"= 	c #309D18",
"- 	c #D1EEC5",
"; 	c #3EA531",
"> 	c #A6A6A5",
", 	c #8E8E8D",
"' 	c #5D5F5B",
") 	c #83867E",
"! 	c #52AE4A",
"~ 	c #B9E2AC",
"{ 	c #CAFABD",
"] 	c #C1EAB4",
"^ 	c #49A441",
"/ 	c #A8A8A8",
"( 	c #A8A8A7",
"_ 	c #81B867",
": 	c #7EC673",
"< 	c #CBFFBD",
"[ 	c #92F27B",
"} 	c #BBFAAC",
"| 	c #8DCE83",
"1 	c #6EB45A",
"2 	c #6480A4",
"3 	c #3465A4",
"4 	c #518640",
"5 	c #D7FFC5",
"6 	c #A1F68B",
"7 	c #92F67B",
"8 	c #8DF27B",
"9 	c #C2F6B4",
"0 	c #52B24A",
"a 	c #41725B",
"b 	c #396091",
"c 	c #D2D2D2",
"d 	c #AFC7E3",
"e 	c #A7C2E0",
"f 	c #A9C3E0",
"g 	c #C7D8E2",
"h 	c #56AA4A",
"i 	c #BBF2AC",
"j 	c #A9FA94",
"k 	c #9AFA83",
"l 	c #82F26A",
"m 	c #7DEA6A",
"n 	c #41A237",
"o 	c #B5CDDD",
"p 	c #9EBCDD",
"q 	c #89AED6",
"r 	c #B3CFD2",
"s 	c #77C262",
"t 	c #8ED683",
"u 	c #BFFAAC",
"v 	c #A1FA8B",
"w 	c #A4F694",
"x 	c #8DF67B",
"y 	c #8DEE7B",
"z 	c #85EA73",
"A 	c #A3EA94",
"B 	c #97E28B",
"C 	c #74B65D",
"D 	c #5883AC",
"E 	c #5F615D",
"F 	c #A0C4C8",
"G 	c #118E0B",
"H 	c #0C9100",
"I 	c #86F673",
"J 	c #ACF69C",
"K 	c #279D18",
"L 	c #7398AA",
"M 	c #95B8CB",
"N 	c #1F9510",
"O 	c #85EE73",
"P 	c #A8F294",
"Q 	c #289828",
"R 	c #93B6CE",
"S 	c #91B3D2",
"T 	c #A4C2CF",
"U 	c #3768A4",
"V 	c #555753",
"W 	c #8EB2D3",
"X 	c #2C9D18",
"Y 	c #B8F6A4",
"Z 	c #81EA6A",
"` 	c #A0F28B",
" .	c #339921",
"..	c #8FB3CF",
"+.	c #95B3D4",
"@.	c #8DB2D3",
"#.	c #47A531",
"$.	c #96E47A",
"%.	c #7CDB5E",
"&.	c #8DDC75",
"*.	c #40A529",
"=.	c #9EC1C2",
"-.	c #86A4C5",
";.	c #366196",
">.	c #88AED6",
",.	c #88ADD5",
"'.	c #88ADD6",
").	c #87ADD5",
"!.	c #8DB2D1",
"~.	c #55B231",
"{.	c #7CD058",
"].	c #77D852",
"^.	c #77C951",
"/.	c #4DAA29",
"(.	c #A1C7AC",
"_.	c #85ACD5",
":.	c #7C9CBE",
"<.	c #386093",
"[.	c #A3BFDE",
"}.	c #82AAD4",
"|.	c #82A9D4",
"1.	c #81A9D4",
"2.	c #80A8D4",
"3.	c #81A8D4",
"4.	c #80A9D4",
"5.	c #56B137",
"6.	c #86D35D",
"7.	c #7FD653",
"8.	c #7DCF54",
"9.	c #9DC7A3",
"0.	c #8AAFD7",
"a.	c #6F8BAD",
"b.	c #3B5F8B",
"c.	c #677E9C",
"d.	c #A5C2E0",
"e.	c #7BA5D2",
"f.	c #7AA4D2",
"g.	c #7AA5D2",
"h.	c #79A4D2",
"i.	c #79A3D2",
"j.	c #79A4D1",
"k.	c #55B135",
"l.	c #7CCD4E",
"m.	c #7BCC4B",
"n.	c #79C94B",
"o.	c #90B4D9",
"p.	c #58779F",
"q.	c #A5A8AA",
"r.	c #758EB2",
"s.	c #8DB2D9",
"t.	c #73A1D0",
"u.	c #73A0D0",
"v.	c #72A0D0",
"w.	c #729FD0",
"x.	c #719FD0",
"y.	c #75A3CA",
"z.	c #7DCB4B",
"A.	c #7BC847",
"B.	c #80C94D",
"C.	c #95C0AF",
"D.	c #89AFD7",
"E.	c #446894",
"F.	c #ADC1D4",
"G.	c #94B5D7",
"H.	c #6C9CCE",
"I.	c #6D9CCE",
"J.	c #6B9CCE",
"K.	c #6B9BCE",
"L.	c #80AFB6",
"M.	c #55B132",
"N.	c #89B3BF",
"O.	c #6E8BB1",
"P.	c #395E8E",
"Q.	c #4572A9",
"                                            ",
"                            .               ",
"  + @ @ @ @ @ # #         $ % &             ",
"  @ * * * * * * * #       = - ;             ",
"  @ > , , , , , , , ' ) ! ~ { ] ^           ",
"  @ * / / / / / / / ( _ : < [ } | 1         ",
"  # > 2 3 3 3 3 3 3 4 ; 5 6 7 8 9 0 a 3 b   ",
"  # c 3 d e e e f g h i j k 7 l m i n o 3   ",
"  # > 3 p q q q r s t u v w x y z A B C D   ",
"  E c 3 p q q q F G H % H { I J % H % K L   ",
"  E > 3 p q q q q q q M N } O P Q R S T U   ",
"  V c 3 p q q q q q q W X Y Z `  ...q +.3   ",
"  V > 3 p q q q q q q @.#.$.%.&.*.=.q -.;.  ",
"  V c 3 e q q >.,.'.).!.~.{.].^./.(._.:.<.  ",
"  V > 3 [.}.|.1.2.3.4.2.5.6.7.8.~.9.0.a.b.  ",
"  V c c.d.e.f.g.f.h.i.j.k.l.m.n.~.9.o.p.    ",
"  V q.r.s.t.u.u.v.w.x.y.~.z.A.B.~.C.D.E.    ",
"  V F.G.H.I.J.J.K.K.K.L.M.~.~.~.~.N.O.P.    ",
"    3 3 3 3 3 3 3 3 3 3 3 3 3 3 3 Q.3       ",
"                                            ",
"                                            ",
"                                            "};
