/* XPM */
static char * waste_xpm[] = {
"22 22 277 2",
"  	c None",
". 	c #575F15",
"+ 	c #4D5506",
"@ 	c #4E5608",
"# 	c #555D12",
"$ 	c #565E13",
"% 	c #8B9161",
"& 	c #E7ECE9",
"* 	c #EFF3F4",
"= 	c #EEF2F3",
"- 	c #EDF1F2",
"; 	c #ECF0F1",
"> 	c #EBEFF0",
", 	c #E2E6E0",
"' 	c #6A7231",
") 	c #525A0D",
"! 	c #6B6F6F",
"~ 	c #5B5D59",
"{ 	c #5D5F5B",
"] 	c #5F615D",
"^ 	c #61635F",
"/ 	c #636561",
"( 	c #666863",
"_ 	c #686A65",
": 	c #6A6C67",
"< 	c #6C6E69",
"[ 	c #6E706C",
"} 	c #70726E",
"| 	c #727470",
"1 	c #757772",
"2 	c #777974",
"3 	c #B9BCB7",
"4 	c #C3C8B4",
"5 	c #838A56",
"6 	c #D4D8D9",
"7 	c #393E3F",
"8 	c #B8BBB4",
"9 	c #E2E6E4",
"0 	c #666D2A",
"a 	c #CACEBD",
"b 	c #8A8E8F",
"c 	c #363B3B",
"d 	c #BBBEB7",
"e 	c #D2D6CF",
"f 	c #B6BBA0",
"g 	c #596017",
"h 	c #535B10",
"i 	c #B8BCA8",
"j 	c #DCDFE0",
"k 	c #D7DBDC",
"l 	c #DBDEDF",
"m 	c #DADEDF",
"n 	c #DADDDE",
"o 	c #D9DDDE",
"p 	c #D9DCDD",
"q 	c #D8DCDD",
"r 	c #D8DBDC",
"s 	c #D7DADB",
"t 	c #D6DADB",
"u 	c #D6D9DA",
"v 	c #D5D9DA",
"w 	c #D5D8D9",
"x 	c #A8AD93",
"y 	c #565E14",
"z 	c #50580A",
"A 	c #51590C",
"B 	c #646F0B",
"C 	c #ADB84A",
"D 	c #B4BE51",
"E 	c #B1BB50",
"F 	c #ADB84F",
"G 	c #AAB54D",
"H 	c #A5AE4B",
"I 	c #9EA848",
"J 	c #97A045",
"K 	c #919942",
"L 	c #87903E",
"M 	c #7D843A",
"N 	c #747B35",
"O 	c #6B7232",
"P 	c #686E32",
"Q 	c #646B30",
"R 	c #62682F",
"S 	c #5F662F",
"T 	c #5A6226",
"U 	c #636C0B",
"V 	c #646F0C",
"W 	c #A8B24A",
"X 	c #B6C154",
"Y 	c #B5C051",
"Z 	c #B1BC4F",
"` 	c #ADB84E",
" .	c #A9B34C",
"..	c #A8B252",
"+.	c #A9B25A",
"@.	c #A0AA4F",
"#.	c #98A146",
"$.	c #929C44",
"%.	c #8C9541",
"&.	c #848D3E",
"*.	c #7C853A",
"=.	c #7A823D",
"-.	c #727930",
";.	c #616C0B",
">.	c #636E0D",
",.	c #A3AD4A",
"'.	c #B8C258",
").	c #B4BF50",
"!.	c #B0BB4F",
"~.	c #ACB64D",
"{.	c #B4BD66",
"].	c #B0B964",
"^.	c #C7CC93",
"/.	c #C7CC97",
"(.	c #9BA44E",
"_.	c #9DA656",
":.	c #8E9742",
"<.	c #8A9340",
"[.	c #879043",
"}.	c #949B56",
"|.	c #889047",
"1.	c #5F690B",
"2.	c #606A0C",
"3.	c #9DA747",
"4.	c #BBC55E",
"5.	c #B3BE50",
"6.	c #AEB94E",
"7.	c #AFB957",
"8.	c #BFC67E",
"9.	c #B6BE70",
"0.	c #A9B25E",
"a.	c #CCD1A3",
"b.	c #C8CD9F",
"c.	c #9EA65A",
"d.	c #939D4D",
"e.	c #969E56",
"f.	c #979F5C",
"g.	c #A0A76A",
"h.	c #868E46",
"i.	c #5B6509",
"j.	c #5C660A",
"k.	c #96A043",
"l.	c #BEC765",
"m.	c #B8C25E",
"n.	c #BCC56F",
"o.	c #BDC577",
"p.	c #AFB85F",
"q.	c #ADB562",
"r.	c #BDC484",
"s.	c #D1D5AC",
"t.	c #CCD0A5",
"u.	c #9FA85E",
"v.	c #9BA35B",
"w.	c #979F59",
"x.	c #949C57",
"y.	c #A3AA6D",
"z.	c #7F873D",
"A.	c #8E983D",
"B.	c #C1CB6E",
"C.	c #B7C257",
"D.	c #BAC467",
"E.	c #D8DDAB",
"F.	c #DADFB3",
"G.	c #B8C073",
"H.	c #A9B160",
"I.	c #A4AC5E",
"J.	c #A4AB61",
"K.	c #A4AC68",
"L.	c #9AA25B",
"M.	c #929A53",
"N.	c #919A53",
"O.	c #A6AD73",
"P.	c #777F33",
"Q.	c #828A32",
"R.	c #C7D07C",
"S.	c #BDC765",
"T.	c #BEC86A",
"U.	c #BFC874",
"V.	c #DBDFB2",
"W.	c #C7CC8C",
"X.	c #B9C076",
"Y.	c #A5AD5B",
"Z.	c #A0A959",
"`.	c #ADB473",
" +	c #B5BB85",
".+	c #A2A969",
"++	c #8F974F",
"@+	c #8F974E",
"#+	c #A9AF77",
"$+	c #6B7224",
"%+	c #7C8432",
"&+	c #CED68D",
"*+	c #BFC868",
"=+	c #BBC465",
"-+	c #BDC56F",
";+	c #D0D69E",
">+	c #B1B962",
",+	c #ABB55F",
"'+	c #A5AE58",
")+	c #A5AE5D",
"!+	c #B0B775",
"~+	c #9AA456",
"{+	c #A9B071",
"]+	c #979F58",
"^+	c #8C954A",
"/+	c #8B9449",
"(+	c #A9AF78",
"_+	c #5E6716",
":+	c #6B7423",
"<+	c #BCC663",
"[+	c #B8C260",
"}+	c #B4BD5E",
"|+	c #BAC372",
"1+	c #C2CA87",
"2+	c #B6BD74",
"3+	c #A4AD57",
"4+	c #C4C996",
"5+	c #C5CA9C",
"6+	c #B9BF8A",
"7+	c #B5BA86",
"8+	c #8F974D",
"9+	c #899246",
"0+	c #899245",
"a+	c #535C0A",
"b+	c #5B6413",
"c+	c #CED58C",
"d+	c #BAC35F",
"e+	c #B5BE5B",
"f+	c #B0BA59",
"g+	c #ADB658",
"h+	c #B1B96C",
"i+	c #A5AF5D",
"j+	c #C9CFA1",
"k+	c #C6CA9D",
"l+	c #BBC08E",
"m+	c #959E55",
"n+	c #879042",
"o+	c #868F41",
"p+	c #899247",
"q+	c #A4AA6F",
"r+	c #4E5707",
"s+	c #50590B",
"t+	c #CBD384",
"u+	c #B1BC57",
"v+	c #ADB654",
"w+	c #A9B252",
"x+	c #A3AE4F",
"y+	c #9FA84C",
"z+	c #9AA44A",
"A+	c #A4AB5F",
"B+	c #A8AF6C",
"C+	c #8B9542",
"D+	c #87903F",
"E+	c #858E3F",
"F+	c #909850",
"G+	c #9BA264",
"H+	c #4D5508",
"I+	c #4D550A",
"J+	c #A7AE5F",
"K+	c #C8D085",
"L+	c #C5CC82",
"M+	c #C2C981",
"N+	c #BEC67F",
"O+	c #BBC27C",
"P+	c #B7BE7B",
"Q+	c #B4BB7A",
"R+	c #B1B879",
"S+	c #AFB679",
"T+	c #ABB177",
"U+	c #A8AF75",
"V+	c #A7AE75",
"W+	c #A3AA6E",
"X+	c #79813D",
"Y+	c #474E09",
"Z+	c #4A5207",
"`+	c #495106",
" @	c #474F09",
"                                            ",
"    . + + + + + + + + + + + + + + + @ #     ",
"  $ % & * * = = = - - - - ; ; ; > > , '     ",
"  ) , ! ~ { ] ^ / ( _ : < [ } | 1 2 3 4 $   ",
"  5 6 7 ~ { ] ^ / ( _ : < [ } | 1 2 8 9 0   ",
"$ a b c ~ { ] ^ / ( _ : < [ } | 1 2 d e f g ",
"h i j k l m m n o p q q r k s t t u v w x y ",
"  z + + + + + + + + + + + + + + + + + + A   ",
"  B C D E F G H I J K L M N O P Q R S T U   ",
"  V W X Y Y Y Z `  ...+.@.#.$.%.&.*.=.-.;.  ",
"  >.,.'.Y Y ).!.~.{.].^./.(._.:.<.[.}.|.1.  ",
"  2.3.4.Y Y 5.6.7.8.9.0.a.b.c.d.e.f.g.h.i.  ",
"  j.k.l.Y Y m.n.o.p.q.r.s.t.u.v.w.x.y.z.    ",
"    A.B.Y C.D.E.F.G.q.H.I.J.K.L.M.N.O.P.    ",
"    Q.R.S.T.U.V.W.X.0.Y.Z.`. +.+++@+#+$+    ",
"    %+&+*+=+-+;+>+,+'+)+!+~+{+]+^+/+(+_+    ",
"    :+&+<+[+}+|+1+2+3+4+5+6+7+8+9+0+#+a+    ",
"    b+c+d+e+f+g+G.h+i+j+k+l+m+n+o+p+q+r+    ",
"    s+t+[+u+v+w+x+y+z+A+B+C+D+E+E+F+G+H+    ",
"    I+J+K+L+M+N+O+P+Q+R+S+T+U+V+V+W+X+Y+    ",
"      I+Z+`+`+`+`+`+`+`+`+`+`+`+`+`+ @      ",
"                                            "};
