/* XPM */
static char * delete_xpm[] = {
/* width height ncolors cpp [x_hot y_hot] */
"24 24 3 1 0 0",
/* colors */
" 	s none	m none	c none",
".	s iconColor1	m black	c black",
"X	s iconColor2	m white	c white",
/* pixels */
"                        ",
"                        ",
"                        ",
"                        ",
"          ...           ",
"       .........        ",
"      .XXXXXXXXX.       ",
"      ...........       ",
"       .X.X.X.X.        ",
"       .X.X.X.X.        ",
"       .X.X.X.X.        ",
"       .X.X.X.X.        ",
"       .X.X.X.X.        ",
"       .X.X.X.X.        ",
"       .X.X.X.X.        ",
"       .X.X.X.X.        ",
"       .X.X.X.X.        ",
"       .X.X.X.X.        ",
"        .......         ",
"                        ",
"                        ",
"                        ",
"                        ",
"                        "};
