/* XPM */
static char * watch_xpm[] = {
/* width height ncolors cpp [x_hot y_hot] */
"24 24 4 1 0 0",
/* colors */
" 	s none	m none	c none",
".	s iconColor5	m black	c blue",
"X	s iconColor2	m white	c white",
"o	c #aaaaaa",
/* pixels */
"                        ",
"                        ",
"                        ",
"                        ",
"                        ",
"         .              ",
"        . .       .     ",
"       .  .      . .    ",
"      .   .     .  .    ",
"     .         .   .    ",
"     ... .. ...         ",
"    .XXX.  .XXX.        ",
"    .XXo.  .XXo.        ",
"    .XoX.  .XoX.        ",
"    .oXo.  .oXo.        ",
"     ...    ...         ",
"                        ",
"                        ",
"                        ",
"                        ",
"                        ",
"                        ",
"                        ",
"                        "};
