/* XPM */
static char * watch_xpm[] = {
"22 22 131 2",
"  	c None",
". 	c #767875",
"+ 	c #6F706C",
"@ 	c #70716D",
"# 	c #6E706B",
"$ 	c #6F716C",
"% 	c #6D6F6A",
"& 	c #7A7C78",
"* 	c #6D6F6C",
"= 	c #CBCCCA",
"- 	c #DADBDC",
"; 	c #D4D6D9",
"> 	c #D1D5D9",
", 	c #D6D8DA",
"' 	c #D7D8DA",
") 	c #CACAC9",
"! 	c #6C6E6B",
"~ 	c #DADBDB",
"{ 	c #96A9C1",
"] 	c #6D97C5",
"^ 	c #75A1CF",
"/ 	c #729FCF",
"( 	c #749FCE",
"_ 	c #6893C2",
": 	c #9BADC2",
"< 	c #DEDEDE",
"[ 	c #6C6E6A",
"} 	c #DADADA",
"| 	c #8AA6C5",
"1 	c #C7D8EB",
"2 	c #E2EBF5",
"3 	c #E0EAF4",
"4 	c #D6E3F1",
"5 	c #AEC8E3",
"6 	c #729FCE",
"7 	c #8EA8C5",
"8 	c #DBDBDB",
"9 	c #6B6D69",
"0 	c #A7A8A6",
"a 	c #9EAFC4",
"b 	c #D6E2F1",
"c 	c #E7EEF7",
"d 	c #ECF2F8",
"e 	c #E4ECF6",
"f 	c #DBE6F3",
"g 	c #D1E0F0",
"h 	c #97B8DB",
"i 	c #719ECE",
"j 	c #ADBACA",
"k 	c #A3A4A1",
"l 	c #696B66",
"m 	c #DADAD9",
"n 	c #6690BF",
"o 	c #A9C4E2",
"p 	c #DAE5F2",
"q 	c #E1EAF5",
"r 	c #E4ECF5",
"s 	c #DBE6F2",
"t 	c #D2E0EF",
"u 	c #85ABD6",
"v 	c #82A4CA",
"w 	c #D9D9D8",
"x 	c #DCDDDE",
"y 	c #6E9ACA",
"z 	c #C4D6EA",
"A 	c #D3E0F0",
"B 	c #DEE8F4",
"C 	c #DDE8F3",
"D 	c #D9E4F2",
"E 	c #B9CEE7",
"F 	c #729DCF",
"G 	c #729ECF",
"H 	c #E2E2E2",
"I 	c #D8DADB",
"J 	c #B4CCE6",
"K 	c #CBDBEC",
"L 	c #D3E1F0",
"M 	c #D7E4F1",
"N 	c #D9E5F2",
"O 	c #C8D9EC",
"P 	c #6C6E69",
"Q 	c #DFDFDF",
"R 	c #76A0CD",
"S 	c #8FB1D9",
"T 	c #B6CDE6",
"U 	c #C7D9EC",
"V 	c #C0D3E9",
"W 	c #739FCF",
"X 	c #6E9AC9",
"Y 	c #838580",
"Z 	c #C4C4C4",
"` 	c #85A6CA",
" .	c #6994C5",
"..	c #618AB9",
"+.	c #89A9CB",
"@.	c #C9C9C8",
"#.	c #848682",
"$.	c #B55900",
"%.	c #D2D9E0",
"&.	c #676965",
"*.	c #F57900",
"=.	c #739FCE",
"-.	c #BECEDE",
";.	c #CCCCCC",
">.	c #ADADAD",
",.	c #686966",
"'.	c #D5DCE4",
").	c #6A6B68",
"!.	c #E1E1E1",
"~.	c #A8A8A8",
"{.	c #969696",
"].	c #666864",
"^.	c #646662",
"/.	c #6D6E6B",
"(.	c #D8D8D8",
"_.	c #999999",
":.	c #6B6B6B",
"<.	c #6C6D6A",
"[.	c #D2D2D2",
"}.	c #9B9B9B",
"|.	c #A1A1A1",
"1.	c #686A66",
"2.	c #6B6C69",
"3.	c #D1D1D1",
"4.	c #D5D5D5",
"5.	c #585A57",
"6.	c #5E605D",
"7.	c #DCDCDC",
"8.	c #686A67",
"9.	c #5F605E",
"0.	c #696A68",
"                                            ",
"          . + @ # $ % &                     ",
"        * = - ; > , ' ) !                   ",
"      $ ~ { ] ^ / ( _ : < #                 ",
"    [ } | / 1 2 3 4 5 6 7 8 9               ",
"    0 a 6 b c d e f g h i j k               ",
"  l m n o p q r 2 s t u / v w l             ",
"  % x y z A p B C D E F G y H [             ",
"  # I i J K L M N O     F i H #             ",
"  P Q R S T U V         W X 8 P             ",
"  Y Z `  .F             ..+.@.#.            ",
"    $.$.$.$.$.$.$.$.$.  6 %.&.              ",
"    $.*.*.*.*.*.*.*.$.=.-.;.>.,.            ",
"    $.*.*.*.*.*.*.*.$.'.).!.~.{.].          ",
"    $.*.*.*.*.*.*.*.$.^.  /.(.{._.&.        ",
"    $.*.*.*.*.*.*.*.$.    :.<.[.}._.&.      ",
"    $.*.*.*.*.*.*.*.$.        <.[.|.~.1.    ",
"    $.$.$.$.$.$.$.$.$.          2.3.Z 4.5.  ",
"                                  6.7.H 8.  ",
"                                    9.0.    ",
"                                            ",
"                                            "};
