/* XPM */
static char * where_xpm[] = {
/* width height ncolors cpp [x_hot y_hot] */
"25 25 3 1 0 0",
/* colors */
" 	s none	m none	c none",
".	c blue",
"X	s iconColor6	m white	c yellow",
/* pixels */
"                         ",
"          ......         ",
"       ............      ",
"      ....XXXXX.....     ",
"     ....XX.XXXX.....    ",
"    .....XX..XXXX.....   ",
"   .....XXX..XXXX......  ",
"   ......X...XXXX......  ",
"   ..........XXXX......  ",
"  ..........XXXX........ ",
"  ..........XXX......... ",
"  .........XXX.......... ",
"  .........XX........... ",
"  ...................... ",
"  ...................... ",
"   ....................  ",
"   ........XX..........  ",
"   .......XXXX.........  ",
"    ......XXXX........   ",
"     ......XX........    ",
"      ..............     ",
"       ............      ",
"          ......         ",
"                         ",
"                         "};
